<svg width="178" height="55" viewBox="0 0 178 55" fill="none" xmlns="http://www.w3.org/2000/svg">
<rect x="4" y="4" width="174" height="51" rx="4" fill="#5F5FCC"/>
<rect x="0.5" y="0.5" width="173" height="50" rx="3.5" fill="white"/>
<path d="M18.6651 22V31.4C18.6651 32.1733 18.7851 32.8667 19.0251 33.48C19.2784 34.08 19.6317 34.5933 20.0851 35.02C20.5384 35.4467 21.0784 35.7733 21.7051 36C22.3317 36.2267 23.0184 36.34 23.7651 36.34C24.5117 36.34 25.1984 36.2267 25.8251 36C26.4517 35.7733 26.9917 35.4467 27.4451 35.02C27.9117 34.5933 28.2651 34.08 28.5051 33.48C28.7584 32.8667 28.8851 32.1733 28.8851 31.4V22H26.5051V31.3C26.5051 32.1533 26.2717 32.8467 25.8051 33.38C25.3517 33.9133 24.6717 34.18 23.7651 34.18C22.8717 34.18 22.1917 33.9133 21.7251 33.38C21.2584 32.8467 21.0251 32.1533 21.0251 31.3V22H18.6651ZM37.6301 30.4V36H39.8501V30.14C39.8501 29.0467 39.5767 28.1867 39.0301 27.56C38.4834 26.92 37.6901 26.6 36.6501 26.6C36.0234 26.6 35.4767 26.7333 35.0101 27C34.5567 27.2667 34.1834 27.6733 33.8901 28.22V26.8H31.7101V36H33.8901V30.4C33.8901 29.9867 33.9701 29.6267 34.1301 29.32C34.3034 29 34.5434 28.76 34.8501 28.6C35.1567 28.4267 35.5167 28.34 35.9301 28.34C36.5034 28.34 36.9301 28.5133 37.2101 28.86C37.4901 29.2067 37.6301 29.72 37.6301 30.4ZM42.5285 23.14C42.5285 23.5 42.6618 23.8133 42.9285 24.08C43.2085 24.3333 43.5285 24.46 43.8885 24.46C44.2752 24.46 44.6018 24.3333 44.8685 24.08C45.1352 23.8133 45.2685 23.5 45.2685 23.14C45.2685 22.7667 45.1352 22.4533 44.8685 22.2C44.6018 21.9467 44.2752 21.82 43.8885 21.82C43.5285 21.82 43.2085 21.9467 42.9285 22.2C42.6618 22.4533 42.5285 22.7667 42.5285 23.14ZM42.8285 26.8V36H44.9685V26.8H42.8285ZM47.1805 26.8V28.7H52.4605V26.8H47.1805ZM52.2405 22.72L53.2405 21.04C53.1339 20.9067 52.9872 20.7733 52.8005 20.64C52.6139 20.4933 52.3872 20.3733 52.1205 20.28C51.8539 20.1867 51.5405 20.14 51.1805 20.14C50.5272 20.14 49.9805 20.2667 49.5405 20.52C49.1005 20.7733 48.7605 21.14 48.5205 21.62C48.2939 22.0867 48.1805 22.68 48.1805 23.4V36H50.3205V23.82C50.3205 23.4333 50.3605 23.12 50.4405 22.88C50.5205 22.64 50.6272 22.4667 50.7605 22.36C50.9072 22.2533 51.0805 22.2 51.2805 22.2C51.4405 22.2 51.6072 22.2333 51.7805 22.3C51.9539 22.3667 52.1072 22.5067 52.2405 22.72ZM62.2524 26.8H59.9324L57.0524 34.02L58.0724 34.08L55.1324 26.8H52.6524L56.3724 34.92L53.9524 40.4H56.2524L62.2524 26.8ZM68.8016 26.8V28.7H74.0816V26.8H68.8016ZM73.8616 22.72L74.8616 21.04C74.755 20.9067 74.6083 20.7733 74.4216 20.64C74.235 20.4933 74.0083 20.3733 73.7416 20.28C73.475 20.1867 73.1616 20.14 72.8016 20.14C72.1483 20.14 71.6016 20.2667 71.1616 20.52C70.7216 20.7733 70.3816 21.14 70.1416 21.62C69.915 22.0867 69.8016 22.68 69.8016 23.4V36H71.9416V23.82C71.9416 23.4333 71.9816 23.12 72.0616 22.88C72.1416 22.64 72.2483 22.4667 72.3816 22.36C72.5283 22.2533 72.7016 22.2 72.9016 22.2C73.0616 22.2 73.2283 22.2333 73.4016 22.3C73.575 22.3667 73.7283 22.5067 73.8616 22.72ZM75.0335 31.4C75.0335 32.3333 75.2468 33.1667 75.6735 33.9C76.1135 34.62 76.7068 35.1867 77.4535 35.6C78.2135 36 79.0602 36.2 79.9935 36.2C80.9402 36.2 81.7868 36 82.5335 35.6C83.2802 35.1867 83.8668 34.62 84.2935 33.9C84.7335 33.1667 84.9535 32.3333 84.9535 31.4C84.9535 30.4533 84.7335 29.62 84.2935 28.9C83.8668 28.18 83.2802 27.62 82.5335 27.22C81.7868 26.8067 80.9402 26.6 79.9935 26.6C79.0602 26.6 78.2135 26.8067 77.4535 27.22C76.7068 27.62 76.1135 28.18 75.6735 28.9C75.2468 29.62 75.0335 30.4533 75.0335 31.4ZM77.2535 31.4C77.2535 30.8267 77.3735 30.32 77.6135 29.88C77.8535 29.44 78.1802 29.1 78.5935 28.86C79.0068 28.62 79.4735 28.5 79.9935 28.5C80.5135 28.5 80.9802 28.62 81.3935 28.86C81.8068 29.1 82.1335 29.44 82.3735 29.88C82.6135 30.32 82.7335 30.8267 82.7335 31.4C82.7335 31.9733 82.6135 32.48 82.3735 32.92C82.1335 33.3467 81.8068 33.6867 81.3935 33.94C80.9802 34.18 80.5135 34.3 79.9935 34.3C79.4735 34.3 79.0068 34.18 78.5935 33.94C78.1802 33.6867 77.8535 33.3467 77.6135 32.92C77.3735 32.48 77.2535 31.9733 77.2535 31.4ZM89.1626 26.8H87.0226V36H89.1626V26.8ZM91.9026 29.1L92.9626 27.28C92.7492 27.0267 92.4959 26.8467 92.2026 26.74C91.9092 26.6333 91.5959 26.58 91.2626 26.58C90.7959 26.58 90.3426 26.7533 89.9026 27.1C89.4759 27.4333 89.1226 27.8867 88.8426 28.46C88.5759 29.02 88.4426 29.6667 88.4426 30.4L89.1626 30.82C89.1626 30.38 89.2092 30 89.3026 29.68C89.4092 29.3467 89.5759 29.0867 89.8026 28.9C90.0292 28.7133 90.3226 28.62 90.6826 28.62C90.9492 28.62 91.1692 28.66 91.3426 28.74C91.5292 28.82 91.7159 28.94 91.9026 29.1ZM102.301 32.4H109.701L109.261 30.4H102.761L102.301 32.4ZM105.961 25.96L108.201 31.16L108.241 31.74L110.141 36H112.821L105.961 21.22L99.1205 36H101.781L103.721 31.62L103.761 31.1L105.961 25.96ZM121.169 20.4V36H123.349V20.4H121.169ZM113.549 31.4C113.549 32.4 113.756 33.26 114.169 33.98C114.582 34.7 115.129 35.2533 115.809 35.64C116.502 36.0133 117.242 36.2 118.029 36.2C118.802 36.2 119.476 36.0067 120.049 35.62C120.636 35.2333 121.096 34.68 121.429 33.96C121.776 33.24 121.949 32.3867 121.949 31.4C121.949 30.4 121.776 29.5467 121.429 28.84C121.096 28.12 120.636 27.5667 120.049 27.18C119.476 26.7933 118.802 26.6 118.029 26.6C117.242 26.6 116.502 26.7933 115.809 27.18C115.129 27.5533 114.582 28.1 114.169 28.82C113.756 29.5267 113.549 30.3867 113.549 31.4ZM115.789 31.4C115.789 30.7867 115.916 30.26 116.169 29.82C116.422 29.38 116.756 29.0467 117.169 28.82C117.596 28.5933 118.056 28.48 118.549 28.48C118.976 28.48 119.389 28.5933 119.789 28.82C120.189 29.0467 120.516 29.38 120.769 29.82C121.036 30.2467 121.169 30.7733 121.169 31.4C121.169 32.0267 121.036 32.56 120.769 33C120.516 33.4267 120.189 33.7533 119.789 33.98C119.389 34.2067 118.976 34.32 118.549 34.32C118.056 34.32 117.596 34.2067 117.169 33.98C116.756 33.7533 116.422 33.42 116.169 32.98C115.916 32.54 115.789 32.0133 115.789 31.4ZM139.206 30.14C139.206 29.3933 139.093 28.7533 138.866 28.22C138.653 27.6867 138.333 27.2867 137.906 27.02C137.48 26.74 136.933 26.6 136.266 26.6C135.653 26.6 135.1 26.74 134.606 27.02C134.126 27.2867 133.72 27.6933 133.386 28.24C133.186 27.7067 132.86 27.3 132.406 27.02C131.966 26.74 131.413 26.6 130.746 26.6C130.146 26.6 129.633 26.7333 129.206 27C128.78 27.2533 128.426 27.6333 128.146 28.14V26.8H126.026V36H128.146V30.4C128.146 29.96 128.22 29.5867 128.366 29.28C128.526 28.9733 128.74 28.74 129.006 28.58C129.286 28.42 129.606 28.34 129.966 28.34C130.5 28.34 130.886 28.5133 131.126 28.86C131.38 29.1933 131.506 29.7067 131.506 30.4V36H133.666V30.4C133.666 29.96 133.74 29.5867 133.886 29.28C134.046 28.9733 134.26 28.74 134.526 28.58C134.806 28.42 135.133 28.34 135.506 28.34C136.026 28.34 136.406 28.5133 136.646 28.86C136.9 29.1933 137.026 29.7067 137.026 30.4V36H139.206V30.14ZM141.864 23.14C141.864 23.5 141.998 23.8133 142.264 24.08C142.544 24.3333 142.864 24.46 143.224 24.46C143.611 24.46 143.938 24.3333 144.204 24.08C144.471 23.8133 144.604 23.5 144.604 23.14C144.604 22.7667 144.471 22.4533 144.204 22.2C143.938 21.9467 143.611 21.82 143.224 21.82C142.864 21.82 142.544 21.9467 142.264 22.2C141.998 22.4533 141.864 22.7667 141.864 23.14ZM142.164 26.8V36H144.304V26.8H142.164ZM153.196 30.4V36H155.416V30.14C155.416 29.0467 155.143 28.1867 154.596 27.56C154.05 26.92 153.256 26.6 152.216 26.6C151.59 26.6 151.043 26.7333 150.576 27C150.123 27.2667 149.75 27.6733 149.456 28.22V26.8H147.276V36H149.456V30.4C149.456 29.9867 149.536 29.6267 149.696 29.32C149.87 29 150.11 28.76 150.416 28.6C150.723 28.4267 151.083 28.34 151.496 28.34C152.07 28.34 152.496 28.5133 152.776 28.86C153.056 29.2067 153.196 29.72 153.196 30.4Z" fill="black"/>
<rect x="0.5" y="0.5" width="173" height="50" rx="3.5" stroke="black"/>
</svg>
