<svg width="15" height="15" viewBox="0 0 15 15" fill="none" xmlns="http://www.w3.org/2000/svg">
<path d="M4.90172 14.7754C4.17167 14.7761 3.45783 14.5602 2.85065 14.1548C2.24347 13.7495 1.77028 13.173 1.49104 12.4985C1.46675 12.4373 1.45584 12.3717 1.45904 12.3059C1.46225 12.2402 1.4795 12.1759 1.50963 12.1174C1.53976 12.0589 1.58207 12.0075 1.63372 11.9667C1.68537 11.9259 1.74516 11.8967 1.80906 11.8809V11.8809C1.91596 11.855 2.02862 11.8681 2.12667 11.918C2.22472 11.9679 2.30171 12.0512 2.34371 12.1528C2.5542 12.6574 2.90956 13.0883 3.36486 13.391C3.82016 13.6937 4.35497 13.8547 4.90172 13.8536H5.06764C5.80108 13.8572 6.50593 13.5694 7.02714 13.0534C7.54835 12.5373 7.84322 11.8354 7.84689 11.102C7.85056 10.3685 7.56272 9.66368 7.04669 9.14247C6.53067 8.62126 5.82873 8.32639 5.0953 8.32272H4.90172C4.37357 8.3223 3.85634 8.47312 3.4112 8.75736C2.96606 9.04159 2.61162 9.44736 2.3898 9.92667C2.34343 10.027 2.26252 10.1074 2.16184 10.1531C2.06115 10.1988 1.9474 10.2068 1.84132 10.1756C1.77832 10.1574 1.71991 10.126 1.67 10.0835C1.62009 10.0409 1.57984 9.98825 1.55192 9.92892C1.524 9.86959 1.50906 9.80499 1.5081 9.73943C1.50714 9.67386 1.52018 9.60885 1.54635 9.54873C1.84395 8.90905 2.31756 8.36735 2.91177 7.98699C3.50598 7.60664 4.19621 7.40335 4.90172 7.40092C4.99534 7.39501 5.08925 7.39501 5.18287 7.40092C6.102 7.4819 6.95737 7.90454 7.5801 8.5854C8.20282 9.26626 8.54765 10.1558 8.54649 11.0785C8.54533 12.0012 8.19828 12.89 7.57384 13.5693C6.94941 14.2485 6.09298 14.669 5.17365 14.7477C5.08375 14.7631 4.99289 14.7724 4.90172 14.7754V14.7754Z" fill="#0A278D"/>
<path d="M6.18282 11.8625C6.19139 12.1763 6.07921 12.4815 5.8694 12.7151C5.71105 12.8813 5.50184 12.99 5.27484 13.0239V13.3327C5.27484 13.444 5.23065 13.5507 5.15199 13.6293C5.07333 13.708 4.96665 13.7522 4.85542 13.7522V13.7522C4.74418 13.7522 4.6375 13.708 4.55884 13.6293C4.48018 13.5507 4.43599 13.444 4.43599 13.3327V12.9963C4.23363 12.9297 4.0537 12.8082 3.9162 12.6455C3.77869 12.4828 3.68899 12.2851 3.65707 12.0745C3.64559 12.0295 3.64382 11.9826 3.65188 11.9368C3.65993 11.8911 3.67762 11.8476 3.70378 11.8092C3.72994 11.7709 3.76396 11.7385 3.80359 11.7143C3.84321 11.6901 3.88753 11.6746 3.93361 11.6689C4.00748 11.6587 4.08257 11.6749 4.14576 11.7145C4.20894 11.7541 4.25621 11.8146 4.27929 11.8855C4.31108 11.992 4.36442 12.0908 4.43599 12.1759C4.4935 12.2411 4.56452 12.293 4.64411 12.328C4.7237 12.3631 4.80996 12.3803 4.8969 12.3787C5.02193 12.383 5.1459 12.3544 5.2564 12.2957C5.29122 12.2765 5.3237 12.2533 5.35319 12.2266C5.40017 12.1879 5.43902 12.1403 5.4675 12.0865C5.49598 12.0327 5.51352 11.9738 5.51912 11.9132C5.53306 11.8129 5.51362 11.7109 5.46381 11.6228C5.42052 11.557 5.35992 11.5043 5.28866 11.4707H5.2564C5.16422 11.4292 4.97986 11.3693 4.70793 11.2863L4.4406 11.1849C4.33083 11.1434 4.227 11.0876 4.1318 11.019C4.00124 10.9177 3.89692 10.7865 3.8276 10.6365C3.75531 10.4804 3.71757 10.3106 3.71699 10.1387C3.71298 9.93886 3.7623 9.74159 3.85986 9.56716C3.95112 9.40153 4.09111 9.26798 4.26085 9.18461C4.31829 9.15438 4.37848 9.12969 4.4406 9.11087V8.86198C4.4406 8.75074 4.48479 8.64406 4.56345 8.5654C4.64211 8.48674 4.74879 8.44256 4.86002 8.44256V8.44256C4.97126 8.44256 5.07794 8.48674 5.1566 8.5654C5.23526 8.64406 5.27945 8.75074 5.27945 8.86198V9.09704C5.46077 9.13872 5.62777 9.22779 5.76339 9.35514C5.89431 9.48194 5.98966 9.64087 6.03994 9.81605C6.0515 9.86243 6.05275 9.91079 6.04362 9.95771C6.03448 10.0046 6.01518 10.049 5.98706 10.0877C5.95894 10.1263 5.92269 10.1583 5.88087 10.1815C5.83904 10.2046 5.79265 10.2183 5.74496 10.2216V10.2216C5.67523 10.2274 5.60559 10.2096 5.54712 10.1712C5.48866 10.1328 5.44473 10.0759 5.42233 10.0096C5.39918 9.93341 5.35809 9.86387 5.30249 9.80683V9.80683C5.18882 9.71719 5.04596 9.67285 4.90151 9.68239C4.75982 9.67263 4.61887 9.70989 4.50052 9.78839L4.46826 9.81605C4.4329 9.84605 4.40463 9.88352 4.3855 9.92576C4.36638 9.968 4.35686 10.014 4.35764 10.0603C4.35799 10.1072 4.36799 10.1535 4.38703 10.1963C4.40606 10.2391 4.43371 10.2776 4.46826 10.3092V10.3092C4.64799 10.4215 4.84616 10.501 5.0536 10.5443L5.28866 10.618C5.45208 10.6694 5.60729 10.7439 5.74957 10.8393C5.89379 10.9411 6.00832 11.0795 6.08142 11.2402C6.16189 11.4373 6.19656 11.65 6.18282 11.8625ZM8.30297 7.86182C8.19026 7.86146 8.07776 7.85221 7.96651 7.83416C7.69293 7.79131 7.44366 7.65211 7.26365 7.44168C7.08365 7.23125 6.98475 6.96343 6.98479 6.68652C6.98479 6.50555 7.02743 6.32712 7.10923 6.1657C7.13102 6.12617 7.14245 6.08177 7.14245 6.03664C7.14245 5.99151 7.13102 5.94711 7.10923 5.90759C7.08546 5.86918 7.05219 5.83755 7.01263 5.81575C6.97307 5.79395 6.92856 5.78272 6.88339 5.78315H6.81886L1.74893 7.43318C1.63041 7.48112 1.50343 7.50464 1.3756 7.50231C1.13607 7.50293 0.902446 7.42798 0.707981 7.28814C0.513516 7.14829 0.368116 6.95066 0.292476 6.72339C0.203629 6.50508 0.184732 6.26457 0.238394 6.03506C0.292056 5.80556 0.41563 5.59836 0.592063 5.44208L1.67518 4.51105C1.72147 4.47198 1.77501 4.44241 1.83273 4.42404C1.89045 4.40567 1.95123 4.39886 2.01159 4.404C2.07194 4.40913 2.1307 4.42612 2.18448 4.45398C2.23827 4.48184 2.28604 4.52003 2.32506 4.56636V4.56636C2.36413 4.61265 2.3937 4.66618 2.41207 4.72391C2.43044 4.78163 2.43725 4.84241 2.43212 4.90276C2.42698 4.96312 2.41 5.02187 2.38213 5.07566C2.35427 5.12945 2.31608 5.17722 2.26975 5.21623L1.16819 6.13804C1.13939 6.17482 1.12152 6.21897 1.11663 6.26543C1.11174 6.31189 1.12003 6.35878 1.14054 6.40076C1.17741 6.50215 1.26498 6.62199 1.37099 6.5759L6.51467 4.91665C6.62771 4.87957 6.74598 4.8609 6.86495 4.86134C7.06718 4.86138 7.26609 4.91279 7.44301 5.01076C7.61993 5.10873 7.76905 5.25003 7.8764 5.42142C7.98375 5.59281 8.0458 5.78866 8.05672 5.99059C8.06764 6.19253 8.02709 6.39393 7.93886 6.5759C7.92341 6.61012 7.91622 6.6475 7.91786 6.68501C7.91951 6.72253 7.92995 6.75913 7.94833 6.79187C7.96672 6.82461 7.99255 6.85257 8.02372 6.8735C8.0549 6.89443 8.09056 6.90774 8.12783 6.91236C8.40641 6.95541 8.69117 6.89649 8.9298 6.74643C8.98727 6.70998 9.04127 6.66832 9.09111 6.62199L10.3263 5.15632C10.407 5.05989 10.5078 4.98227 10.6217 4.92893C10.7355 4.87558 10.8597 4.84779 10.9854 4.84751H11.6076V2.67666H5.55599C5.3871 2.68188 5.22482 2.74355 5.09509 2.8518L4.05805 3.70908C4.01177 3.74816 3.95823 3.77773 3.90051 3.7961C3.84279 3.81447 3.78201 3.82128 3.72165 3.81614C3.66129 3.811 3.60254 3.79402 3.54875 3.76616C3.49497 3.7383 3.4472 3.70011 3.40818 3.65377C3.3691 3.60749 3.33954 3.55395 3.32117 3.49623C3.3028 3.43851 3.29599 3.37773 3.30112 3.31737C3.30626 3.25702 3.32324 3.19826 3.3511 3.14447C3.37896 3.09069 3.41715 3.04292 3.46349 3.0039L4.48208 2.14201C4.78335 1.89008 5.16327 1.75148 5.55599 1.75024H12.5202V5.78315H10.9808L9.72716 7.2903C9.3427 7.65548 8.83322 7.85993 8.30297 7.86182V7.86182Z" fill="#0A278D"/>
<path d="M13.4971 6.4239H12.4646C12.3509 6.4239 12.2382 6.40149 12.133 6.35794C12.0279 6.3144 11.9324 6.25057 11.8519 6.17011C11.7715 6.08965 11.7076 5.99413 11.6641 5.889C11.6206 5.78387 11.5981 5.6712 11.5981 5.55741V1.75496C11.5994 1.52595 11.6912 1.30673 11.8536 1.14523C12.0159 0.983722 12.2356 0.893063 12.4646 0.893066H13.4971C13.7269 0.893066 13.9473 0.984358 14.1098 1.14686C14.2723 1.30936 14.3636 1.52975 14.3636 1.75956V5.55741C14.3636 5.78722 14.2723 6.00761 14.1098 6.17011C13.9473 6.33261 13.7269 6.4239 13.4971 6.4239V6.4239ZM12.52 5.5021H13.4418V1.81487H12.52V5.5021Z" fill="#0A278D"/>
</svg>
