<svg width="201" height="55" viewBox="0 0 201 55" fill="none" xmlns="http://www.w3.org/2000/svg">
<rect x="4" y="4" width="197" height="51" rx="4" fill="#95BD9E"/>
<rect x="0.5" y="0.5" width="196" height="50" rx="3.5" fill="white"/>
<path d="M18.9151 22V31.4C18.9151 32.1733 19.0351 32.8667 19.2751 33.48C19.5284 34.08 19.8817 34.5933 20.3351 35.02C20.7884 35.4467 21.3284 35.7733 21.9551 36C22.5817 36.2267 23.2684 36.34 24.0151 36.34C24.7617 36.34 25.4484 36.2267 26.0751 36C26.7017 35.7733 27.2417 35.4467 27.6951 35.02C28.1617 34.5933 28.5151 34.08 28.7551 33.48C29.0084 32.8667 29.1351 32.1733 29.1351 31.4V22H26.7551V31.3C26.7551 32.1533 26.5217 32.8467 26.0551 33.38C25.6017 33.9133 24.9217 34.18 24.0151 34.18C23.1217 34.18 22.4417 33.9133 21.9751 33.38C21.5084 32.8467 21.2751 32.1533 21.2751 31.3V22H18.9151ZM37.8801 30.4V36H40.1001V30.14C40.1001 29.0467 39.8267 28.1867 39.2801 27.56C38.7334 26.92 37.9401 26.6 36.9001 26.6C36.2734 26.6 35.7267 26.7333 35.2601 27C34.8067 27.2667 34.4334 27.6733 34.1401 28.22V26.8H31.9601V36H34.1401V30.4C34.1401 29.9867 34.2201 29.6267 34.3801 29.32C34.5534 29 34.7934 28.76 35.1001 28.6C35.4067 28.4267 35.7667 28.34 36.1801 28.34C36.7534 28.34 37.1801 28.5133 37.4601 28.86C37.7401 29.2067 37.8801 29.72 37.8801 30.4ZM42.7785 23.14C42.7785 23.5 42.9118 23.8133 43.1785 24.08C43.4585 24.3333 43.7785 24.46 44.1385 24.46C44.5252 24.46 44.8518 24.3333 45.1185 24.08C45.3852 23.8133 45.5185 23.5 45.5185 23.14C45.5185 22.7667 45.3852 22.4533 45.1185 22.2C44.8518 21.9467 44.5252 21.82 44.1385 21.82C43.7785 21.82 43.4585 21.9467 43.1785 22.2C42.9118 22.4533 42.7785 22.7667 42.7785 23.14ZM43.0785 26.8V36H45.2185V26.8H43.0785ZM47.4305 26.8V28.7H52.7105V26.8H47.4305ZM52.4905 22.72L53.4905 21.04C53.3839 20.9067 53.2372 20.7733 53.0505 20.64C52.8639 20.4933 52.6372 20.3733 52.3705 20.28C52.1039 20.1867 51.7905 20.14 51.4305 20.14C50.7772 20.14 50.2305 20.2667 49.7905 20.52C49.3505 20.7733 49.0105 21.14 48.7705 21.62C48.5439 22.0867 48.4305 22.68 48.4305 23.4V36H50.5705V23.82C50.5705 23.4333 50.6105 23.12 50.6905 22.88C50.7705 22.64 50.8772 22.4667 51.0105 22.36C51.1572 22.2533 51.3305 22.2 51.5305 22.2C51.6905 22.2 51.8572 22.2333 52.0305 22.3C52.2039 22.3667 52.3572 22.5067 52.4905 22.72ZM62.5024 26.8H60.1824L57.3024 34.02L58.3224 34.08L55.3824 26.8H52.9024L56.6224 34.92L54.2024 40.4H56.5024L62.5024 26.8ZM69.0516 26.8V28.7H74.3316V26.8H69.0516ZM74.1116 22.72L75.1116 21.04C75.005 20.9067 74.8583 20.7733 74.6716 20.64C74.485 20.4933 74.2583 20.3733 73.9916 20.28C73.725 20.1867 73.4116 20.14 73.0516 20.14C72.3983 20.14 71.8516 20.2667 71.4116 20.52C70.9716 20.7733 70.6316 21.14 70.3916 21.62C70.165 22.0867 70.0516 22.68 70.0516 23.4V36H72.1916V23.82C72.1916 23.4333 72.2316 23.12 72.3116 22.88C72.3916 22.64 72.4983 22.4667 72.6316 22.36C72.7783 22.2533 72.9516 22.2 73.1516 22.2C73.3116 22.2 73.4783 22.2333 73.6516 22.3C73.825 22.3667 73.9783 22.5067 74.1116 22.72ZM75.2835 31.4C75.2835 32.3333 75.4968 33.1667 75.9235 33.9C76.3635 34.62 76.9568 35.1867 77.7035 35.6C78.4635 36 79.3102 36.2 80.2435 36.2C81.1902 36.2 82.0368 36 82.7835 35.6C83.5302 35.1867 84.1168 34.62 84.5435 33.9C84.9835 33.1667 85.2035 32.3333 85.2035 31.4C85.2035 30.4533 84.9835 29.62 84.5435 28.9C84.1168 28.18 83.5302 27.62 82.7835 27.22C82.0368 26.8067 81.1902 26.6 80.2435 26.6C79.3102 26.6 78.4635 26.8067 77.7035 27.22C76.9568 27.62 76.3635 28.18 75.9235 28.9C75.4968 29.62 75.2835 30.4533 75.2835 31.4ZM77.5035 31.4C77.5035 30.8267 77.6235 30.32 77.8635 29.88C78.1035 29.44 78.4302 29.1 78.8435 28.86C79.2568 28.62 79.7235 28.5 80.2435 28.5C80.7635 28.5 81.2302 28.62 81.6435 28.86C82.0568 29.1 82.3835 29.44 82.6235 29.88C82.8635 30.32 82.9835 30.8267 82.9835 31.4C82.9835 31.9733 82.8635 32.48 82.6235 32.92C82.3835 33.3467 82.0568 33.6867 81.6435 33.94C81.2302 34.18 80.7635 34.3 80.2435 34.3C79.7235 34.3 79.2568 34.18 78.8435 33.94C78.4302 33.6867 78.1035 33.3467 77.8635 32.92C77.6235 32.48 77.5035 31.9733 77.5035 31.4ZM89.4126 26.8H87.2726V36H89.4126V26.8ZM92.1526 29.1L93.2126 27.28C92.9992 27.0267 92.7459 26.8467 92.4526 26.74C92.1592 26.6333 91.8459 26.58 91.5126 26.58C91.0459 26.58 90.5926 26.7533 90.1526 27.1C89.7259 27.4333 89.3726 27.8867 89.0926 28.46C88.8259 29.02 88.6926 29.6667 88.6926 30.4L89.4126 30.82C89.4126 30.38 89.4592 30 89.5526 29.68C89.6592 29.3467 89.8259 29.0867 90.0526 28.9C90.2792 28.7133 90.5726 28.62 90.9326 28.62C91.1992 28.62 91.4192 28.66 91.5926 28.74C91.7792 28.82 91.9659 28.94 92.1526 29.1ZM100.871 22V36H108.791V33.88H103.231V22H100.871ZM114.319 36.2C115.386 36.2 116.299 35.9933 117.059 35.58C117.819 35.1533 118.446 34.5267 118.939 33.7L117.059 32.96C116.779 33.4533 116.419 33.82 115.979 34.06C115.539 34.3 115.019 34.42 114.419 34.42C113.859 34.42 113.386 34.3 112.999 34.06C112.613 33.82 112.313 33.4667 112.099 33C111.899 32.5333 111.806 31.9733 111.819 31.32C111.819 30.6533 111.919 30.0933 112.119 29.64C112.333 29.1867 112.626 28.84 112.999 28.6C113.386 28.36 113.853 28.24 114.399 28.24C114.853 28.24 115.246 28.34 115.579 28.54C115.926 28.74 116.193 29.02 116.379 29.38C116.579 29.74 116.679 30.1667 116.679 30.66C116.679 30.7533 116.653 30.8667 116.599 31C116.559 31.1333 116.519 31.24 116.479 31.32L117.139 30.4H110.919V31.9H118.999C118.999 31.8467 118.999 31.76 118.999 31.64C119.013 31.52 119.019 31.4067 119.019 31.3C119.019 30.3133 118.839 29.4733 118.479 28.78C118.119 28.0733 117.593 27.5333 116.899 27.16C116.219 26.7867 115.393 26.6 114.419 26.6C113.446 26.6 112.599 26.8 111.879 27.2C111.159 27.5867 110.599 28.14 110.199 28.86C109.813 29.58 109.619 30.4267 109.619 31.4C109.619 32.36 109.813 33.2 110.199 33.92C110.586 34.64 111.133 35.2 111.839 35.6C112.559 36 113.386 36.2 114.319 36.2ZM122.541 31.4C122.541 30.8267 122.667 30.32 122.921 29.88C123.174 29.44 123.514 29.0933 123.941 28.84C124.381 28.5867 124.867 28.46 125.401 28.46C125.827 28.46 126.241 28.5267 126.641 28.66C127.041 28.7933 127.394 28.98 127.701 29.22C128.021 29.4467 128.254 29.7133 128.401 30.02V27.62C128.081 27.3133 127.647 27.0667 127.101 26.88C126.554 26.6933 125.954 26.6 125.301 26.6C124.367 26.6 123.521 26.8067 122.761 27.22C122.014 27.62 121.421 28.18 120.981 28.9C120.541 29.62 120.321 30.4533 120.321 31.4C120.321 32.3333 120.541 33.1667 120.981 33.9C121.421 34.62 122.014 35.1867 122.761 35.6C123.521 36 124.367 36.2 125.301 36.2C125.954 36.2 126.554 36.1067 127.101 35.92C127.647 35.7333 128.081 35.48 128.401 35.16V32.78C128.254 33.0733 128.027 33.34 127.721 33.58C127.414 33.8067 127.061 33.9933 126.661 34.14C126.274 34.2733 125.854 34.34 125.401 34.34C124.867 34.34 124.381 34.2133 123.941 33.96C123.514 33.7067 123.174 33.36 122.921 32.92C122.667 32.48 122.541 31.9733 122.541 31.4ZM129.508 26.8V28.7H134.728V26.8H129.508ZM131.068 23.6V36H133.188V23.6H131.068ZM138.438 32.4V26.8H136.218V32.64C136.218 33.7333 136.491 34.6 137.038 35.24C137.598 35.88 138.391 36.2 139.418 36.2C140.058 36.2 140.605 36.0667 141.058 35.8C141.525 35.52 141.905 35.1133 142.198 34.58V36H144.358V26.8H142.198V32.4C142.198 32.8133 142.111 33.1733 141.938 33.48C141.765 33.7867 141.525 34.0267 141.218 34.2C140.911 34.3733 140.558 34.46 140.158 34.46C139.571 34.46 139.138 34.28 138.858 33.92C138.578 33.56 138.438 33.0533 138.438 32.4ZM149.256 26.8H147.116V36H149.256V26.8ZM151.996 29.1L153.056 27.28C152.843 27.0267 152.59 26.8467 152.296 26.74C152.003 26.6333 151.69 26.58 151.356 26.58C150.89 26.58 150.436 26.7533 149.996 27.1C149.57 27.4333 149.216 27.8867 148.936 28.46C148.67 29.02 148.536 29.6667 148.536 30.4L149.256 30.82C149.256 30.38 149.303 30 149.396 29.68C149.503 29.3467 149.67 29.0867 149.896 28.9C150.123 28.7133 150.416 28.62 150.776 28.62C151.043 28.62 151.263 28.66 151.436 28.74C151.623 28.82 151.81 28.94 151.996 29.1ZM158.245 36.2C159.312 36.2 160.225 35.9933 160.985 35.58C161.745 35.1533 162.372 34.5267 162.865 33.7L160.985 32.96C160.705 33.4533 160.345 33.82 159.905 34.06C159.465 34.3 158.945 34.42 158.345 34.42C157.785 34.42 157.312 34.3 156.925 34.06C156.539 33.82 156.239 33.4667 156.025 33C155.825 32.5333 155.732 31.9733 155.745 31.32C155.745 30.6533 155.845 30.0933 156.045 29.64C156.259 29.1867 156.552 28.84 156.925 28.6C157.312 28.36 157.779 28.24 158.325 28.24C158.779 28.24 159.172 28.34 159.505 28.54C159.852 28.74 160.119 29.02 160.305 29.38C160.505 29.74 160.605 30.1667 160.605 30.66C160.605 30.7533 160.579 30.8667 160.525 31C160.485 31.1333 160.445 31.24 160.405 31.32L161.065 30.4H154.845V31.9H162.925C162.925 31.8467 162.925 31.76 162.925 31.64C162.939 31.52 162.945 31.4067 162.945 31.3C162.945 30.3133 162.765 29.4733 162.405 28.78C162.045 28.0733 161.519 27.5333 160.825 27.16C160.145 26.7867 159.319 26.6 158.345 26.6C157.372 26.6 156.525 26.8 155.805 27.2C155.085 27.5867 154.525 28.14 154.125 28.86C153.739 29.58 153.545 30.4267 153.545 31.4C153.545 32.36 153.739 33.2 154.125 33.92C154.512 34.64 155.059 35.2 155.765 35.6C156.485 36 157.312 36.2 158.245 36.2ZM167.166 26.8H165.026V36H167.166V26.8ZM169.906 29.1L170.966 27.28C170.753 27.0267 170.5 26.8467 170.206 26.74C169.913 26.6333 169.6 26.58 169.266 26.58C168.8 26.58 168.346 26.7533 167.906 27.1C167.48 27.4333 167.126 27.8867 166.846 28.46C166.58 29.02 166.446 29.6667 166.446 30.4L167.166 30.82C167.166 30.38 167.213 30 167.306 29.68C167.413 29.3467 167.58 29.0867 167.806 28.9C168.033 28.7133 168.326 28.62 168.686 28.62C168.953 28.62 169.173 28.66 169.346 28.74C169.533 28.82 169.72 28.94 169.906 29.1ZM172.868 32.96L171.608 34.24C171.875 34.5867 172.208 34.92 172.608 35.24C173.008 35.5467 173.468 35.8 173.988 36C174.508 36.1867 175.088 36.28 175.728 36.28C176.728 36.28 177.522 36.02 178.108 35.5C178.708 34.9667 179.008 34.2667 179.008 33.4C179.008 32.84 178.882 32.3867 178.628 32.04C178.375 31.6933 178.035 31.4 177.608 31.16C177.182 30.92 176.708 30.7 176.188 30.5C175.815 30.3533 175.475 30.2133 175.168 30.08C174.875 29.9467 174.635 29.8 174.448 29.64C174.275 29.4667 174.188 29.2733 174.188 29.06C174.188 28.8067 174.288 28.6133 174.488 28.48C174.688 28.3467 174.948 28.28 175.268 28.28C175.722 28.28 176.162 28.3933 176.588 28.62C177.015 28.8467 177.375 29.14 177.668 29.5L178.868 28.22C178.615 27.9133 178.308 27.64 177.948 27.4C177.588 27.16 177.182 26.9667 176.728 26.82C176.288 26.6733 175.815 26.6 175.308 26.6C174.748 26.6 174.222 26.6933 173.728 26.88C173.248 27.0533 172.862 27.3267 172.568 27.7C172.288 28.0733 172.148 28.54 172.148 29.1C172.148 29.6467 172.275 30.1 172.528 30.46C172.795 30.82 173.128 31.1133 173.528 31.34C173.942 31.5533 174.355 31.74 174.768 31.9C175.182 32.0467 175.542 32.1933 175.848 32.34C176.155 32.4733 176.395 32.64 176.568 32.84C176.742 33.0267 176.828 33.2533 176.828 33.52C176.828 33.8267 176.715 34.0667 176.488 34.24C176.275 34.4133 175.975 34.5 175.588 34.5C175.282 34.5 174.975 34.44 174.668 34.32C174.362 34.2 174.062 34.0267 173.768 33.8C173.475 33.5733 173.175 33.2933 172.868 32.96Z" fill="black"/>
<rect x="0.5" y="0.5" width="196" height="50" rx="3.5" stroke="black"/>
</svg>
