<svg width="164" height="51" viewBox="0 0 164 51" fill="none" xmlns="http://www.w3.org/2000/svg">
<rect x="4.49414" y="4.30762" width="159.303" height="46.6923" rx="3.66214" fill="#1B1B22"/>
<rect x="1.2898" y="1.10328" width="158.388" height="45.7768" rx="3.20437" fill="white"/>
<path d="M54.9755 23.7341L58.0517 28.1561H59.3975L56.1932 23.7341H54.9755ZM53.3733 19.1839V28.1561H54.4628V19.1839H53.3733ZM53.9757 20.1452H55.8086C56.1932 20.1452 56.5307 20.2136 56.8212 20.3503C57.1203 20.487 57.351 20.6835 57.5134 20.9399C57.6843 21.1962 57.7697 21.5081 57.7697 21.8756C57.7697 22.243 57.6843 22.5549 57.5134 22.8112C57.351 23.0676 57.1203 23.2641 56.8212 23.4008C56.5307 23.5376 56.1932 23.6059 55.8086 23.6059H53.9757V24.5672H55.8086C56.3897 24.5672 56.9067 24.4604 57.3595 24.2468C57.821 24.0246 58.1841 23.7127 58.449 23.3111C58.7225 22.901 58.8592 22.4224 58.8592 21.8756C58.8592 21.3201 58.7225 20.8416 58.449 20.44C58.1841 20.0384 57.821 19.7308 57.3595 19.5171C56.9067 19.295 56.3897 19.1839 55.8086 19.1839H53.9757V20.1452ZM62.763 28.2843C63.3953 28.2843 63.9422 28.1604 64.4037 27.9126C64.8736 27.6562 65.2624 27.2803 65.57 26.7847L64.7369 26.2591C64.5233 26.618 64.2627 26.8872 63.955 27.0666C63.6474 27.2375 63.2928 27.323 62.8912 27.323C62.4896 27.323 62.1478 27.2375 61.8658 27.0666C61.5838 26.8957 61.3702 26.6479 61.2249 26.3232C61.0797 25.9985 61.007 25.6054 61.007 25.144C61.0156 24.6911 61.0925 24.3109 61.2377 24.0033C61.3915 23.6871 61.6052 23.4478 61.8786 23.2855C62.1606 23.1146 62.4981 23.0291 62.8912 23.0291C63.2244 23.0291 63.515 23.1018 63.7628 23.247C64.0106 23.3923 64.2029 23.5931 64.3396 23.8495C64.4848 24.1058 64.5575 24.4091 64.5575 24.7595C64.5575 24.8193 64.5446 24.8962 64.519 24.9902C64.4934 25.0757 64.4677 25.1397 64.4421 25.1825L64.8523 24.5929H60.6225V25.4645H65.6598C65.6598 25.4474 65.6598 25.4089 65.6598 25.3491C65.6683 25.2807 65.6726 25.2166 65.6726 25.1568C65.6726 24.533 65.5615 23.9947 65.3393 23.5418C65.1172 23.0889 64.7967 22.7429 64.378 22.5036C63.9679 22.2558 63.4723 22.1319 62.8912 22.1319C62.3101 22.1319 61.7974 22.2601 61.3531 22.5164C60.9173 22.7728 60.5755 23.1317 60.3277 23.5931C60.0884 24.0545 59.9688 24.5929 59.9688 25.2081C59.9688 25.8148 60.0842 26.3489 60.3149 26.8103C60.5541 27.2717 60.8831 27.6349 61.3018 27.8998C61.7291 28.1561 62.2161 28.2843 62.763 28.2843ZM75.153 24.4391C75.153 23.952 75.0761 23.5376 74.9223 23.1958C74.777 22.8454 74.5634 22.5805 74.2814 22.4011C73.9995 22.2216 73.6577 22.1319 73.256 22.1319C72.863 22.1319 72.5126 22.2259 72.205 22.4139C71.8974 22.5933 71.641 22.8668 71.436 23.2342C71.2992 22.8839 71.0813 22.6147 70.7823 22.4267C70.4917 22.2302 70.1414 22.1319 69.7312 22.1319C69.3638 22.1319 69.0434 22.2131 68.7699 22.3754C68.505 22.5378 68.2829 22.7856 68.1034 23.1189V22.2601H67.078V28.1561H68.1034V24.5672C68.1034 24.2596 68.1589 23.9947 68.27 23.7725C68.3811 23.5504 68.5392 23.3837 68.7443 23.2727C68.9494 23.153 69.1929 23.0932 69.4749 23.0932C69.8594 23.0932 70.1414 23.2128 70.3208 23.4521C70.5088 23.6914 70.6028 24.0631 70.6028 24.5672V28.1561H71.6282V24.5672C71.6282 24.2596 71.6838 23.9947 71.7948 23.7725C71.9059 23.5504 72.064 23.3837 72.2691 23.2727C72.4742 23.153 72.7177 23.0932 72.9997 23.0932C73.3842 23.0932 73.6662 23.2128 73.8456 23.4521C74.0336 23.6914 74.1276 24.0631 74.1276 24.5672V28.1561H75.153V24.4391ZM76.5665 25.2081C76.5665 25.7977 76.6989 26.3275 76.9638 26.7975C77.2372 27.2589 77.6047 27.6221 78.0661 27.887C78.5275 28.1519 79.0445 28.2843 79.617 28.2843C80.1981 28.2843 80.7151 28.1519 81.1679 27.887C81.6294 27.6221 81.9925 27.2589 82.2574 26.7975C82.5309 26.3275 82.6676 25.7977 82.6676 25.2081C82.6676 24.61 82.5309 24.0802 82.2574 23.6187C81.9925 23.1573 81.6294 22.7941 81.1679 22.5292C80.7151 22.2644 80.1981 22.1319 79.617 22.1319C79.0445 22.1319 78.5275 22.2644 78.0661 22.5292C77.6047 22.7941 77.2372 23.1573 76.9638 23.6187C76.6989 24.0802 76.5665 24.61 76.5665 25.2081ZM77.6047 25.2081C77.6047 24.7979 77.6901 24.4348 77.861 24.1186C78.0405 23.7939 78.2797 23.5418 78.5788 23.3624C78.8864 23.1829 79.2325 23.0932 79.617 23.0932C80.0015 23.0932 80.3433 23.1829 80.6424 23.3624C80.95 23.5418 81.1893 23.7939 81.3602 24.1186C81.5396 24.4348 81.6294 24.7979 81.6294 25.2081C81.6294 25.6183 81.5396 25.9814 81.3602 26.2976C81.1893 26.6138 80.95 26.8658 80.6424 27.0538C80.3433 27.2333 80.0015 27.323 79.617 27.323C79.2325 27.323 78.8864 27.2333 78.5788 27.0538C78.2797 26.8658 78.0405 26.6138 77.861 26.2976C77.6901 25.9814 77.6047 25.6183 77.6047 25.2081ZM83.179 22.2601V23.2214H86.127V22.2601H83.179ZM84.1403 20.2093V28.1561H85.1657V20.2093H84.1403ZM89.4369 28.2843C90.0693 28.2843 90.6161 28.1604 91.0776 27.9126C91.5475 27.6562 91.9363 27.2803 92.244 26.7847L91.4108 26.2591C91.1972 26.618 90.9366 26.8872 90.6289 27.0666C90.3213 27.2375 89.9667 27.323 89.5651 27.323C89.1635 27.323 88.8217 27.2375 88.5397 27.0666C88.2577 26.8957 88.0441 26.6479 87.8988 26.3232C87.7536 25.9985 87.6809 25.6054 87.6809 25.144C87.6895 24.6911 87.7664 24.3109 87.9116 24.0033C88.0654 23.6871 88.2791 23.4478 88.5525 23.2855C88.8345 23.1146 89.172 23.0291 89.5651 23.0291C89.8984 23.0291 90.1889 23.1018 90.4367 23.247C90.6845 23.3923 90.8768 23.5931 91.0135 23.8495C91.1587 24.1058 91.2314 24.4091 91.2314 24.7595C91.2314 24.8193 91.2186 24.8962 91.1929 24.9902C91.1673 25.0757 91.1416 25.1397 91.116 25.1825L91.5262 24.5929H87.2964V25.4645H92.3337C92.3337 25.4474 92.3337 25.4089 92.3337 25.3491C92.3422 25.2807 92.3465 25.2166 92.3465 25.1568C92.3465 24.533 92.2354 23.9947 92.0132 23.5418C91.7911 23.0889 91.4706 22.7429 91.0519 22.5036C90.6418 22.2558 90.1462 22.1319 89.5651 22.1319C88.984 22.1319 88.4713 22.2601 88.027 22.5164C87.5912 22.7728 87.2494 23.1317 87.0016 23.5931C86.7623 24.0545 86.6427 24.5929 86.6427 25.2081C86.6427 25.8148 86.7581 26.3489 86.9888 26.8103C87.228 27.2717 87.557 27.6349 87.9757 27.8998C88.403 28.1561 88.89 28.2843 89.4369 28.2843ZM97.5947 18.1585V28.1561H98.6201V18.1585H97.5947ZM102.83 28.2843C103.463 28.2843 104.009 28.1604 104.471 27.9126C104.941 27.6562 105.33 27.2803 105.637 26.7847L104.804 26.2591C104.59 26.618 104.33 26.8872 104.022 27.0666C103.715 27.2375 103.36 27.323 102.958 27.323C102.557 27.323 102.215 27.2375 101.933 27.0666C101.651 26.8957 101.437 26.6479 101.292 26.3232C101.147 25.9985 101.074 25.6054 101.074 25.144C101.083 24.6911 101.16 24.3109 101.305 24.0033C101.459 23.6871 101.672 23.4478 101.946 23.2855C102.228 23.1146 102.565 23.0291 102.958 23.0291C103.292 23.0291 103.582 23.1018 103.83 23.247C104.078 23.3923 104.27 23.5931 104.407 23.8495C104.552 24.1058 104.625 24.4091 104.625 24.7595C104.625 24.8193 104.612 24.8962 104.586 24.9902C104.561 25.0757 104.535 25.1397 104.509 25.1825L104.919 24.5929H100.69V25.4645H105.727C105.727 25.4474 105.727 25.4089 105.727 25.3491C105.735 25.2807 105.74 25.2166 105.74 25.1568C105.74 24.533 105.629 23.9947 105.407 23.5418C105.184 23.0889 104.864 22.7429 104.445 22.5036C104.035 22.2558 103.539 22.1319 102.958 22.1319C102.377 22.1319 101.865 22.2601 101.42 22.5164C100.984 22.7728 100.643 23.1317 100.395 23.5931C100.156 24.0545 100.036 24.5929 100.036 25.2081C100.036 25.8148 100.151 26.3489 100.382 26.8103C100.621 27.2717 100.95 27.6349 101.369 27.8998C101.796 28.1561 102.283 28.2843 102.83 28.2843ZM107.607 26.336C107.607 26.1224 107.658 25.9387 107.76 25.7849C107.863 25.6311 108.017 25.5115 108.222 25.426C108.435 25.3406 108.709 25.2978 109.042 25.2978C109.401 25.2978 109.739 25.3448 110.055 25.4388C110.371 25.5243 110.679 25.6695 110.978 25.8746V25.2722C110.918 25.1953 110.802 25.097 110.632 24.9774C110.461 24.8492 110.23 24.7381 109.939 24.6441C109.657 24.5416 109.303 24.4903 108.876 24.4903C108.149 24.4903 107.581 24.6655 107.171 25.0158C106.769 25.3576 106.568 25.8148 106.568 26.3873C106.568 26.7889 106.662 27.1307 106.85 27.4127C107.038 27.6947 107.286 27.9126 107.594 28.0664C107.91 28.2117 108.247 28.2843 108.606 28.2843C108.931 28.2843 109.256 28.2245 109.581 28.1049C109.914 27.9852 110.191 27.8015 110.414 27.5537C110.644 27.3059 110.76 26.994 110.76 26.618L110.555 25.849C110.555 26.1566 110.478 26.43 110.324 26.6693C110.179 26.9 109.978 27.0795 109.722 27.2076C109.474 27.3358 109.192 27.3999 108.876 27.3999C108.628 27.3999 108.406 27.3614 108.209 27.2845C108.021 27.1991 107.872 27.0752 107.76 26.9128C107.658 26.7505 107.607 26.5582 107.607 26.336ZM107.453 23.6187C107.547 23.5504 107.675 23.4692 107.837 23.3752C108 23.2812 108.196 23.2 108.427 23.1317C108.666 23.0633 108.931 23.0291 109.222 23.0291C109.401 23.0291 109.572 23.0462 109.734 23.0804C109.897 23.1146 110.038 23.1701 110.157 23.247C110.285 23.3239 110.384 23.4307 110.452 23.5675C110.52 23.6956 110.555 23.8623 110.555 24.0673V28.1561H111.58V23.9264C111.58 23.5418 111.482 23.2171 111.285 22.9522C111.097 22.6873 110.828 22.4865 110.478 22.3498C110.136 22.2045 109.734 22.1319 109.273 22.1319C108.726 22.1319 108.256 22.2131 107.863 22.3754C107.478 22.5378 107.175 22.7001 106.953 22.8625L107.453 23.6187ZM114.342 22.2601H113.316V28.1561H114.342V22.2601ZM116.123 23.388L116.687 22.5421C116.533 22.3797 116.362 22.2729 116.174 22.2216C115.995 22.1618 115.798 22.1319 115.585 22.1319C115.311 22.1319 115.042 22.2387 114.777 22.4523C114.512 22.666 114.295 22.9565 114.124 23.3239C113.961 23.6828 113.88 24.0973 113.88 24.5672H114.342C114.342 24.2852 114.367 24.0332 114.418 23.811C114.478 23.5888 114.581 23.4137 114.726 23.2855C114.871 23.1573 115.072 23.0932 115.328 23.0932C115.499 23.0932 115.64 23.1189 115.751 23.1701C115.863 23.2128 115.986 23.2855 116.123 23.388ZM121.491 24.5672V28.1561H122.516V24.4391C122.516 23.7298 122.332 23.1701 121.965 22.76C121.606 22.3413 121.115 22.1319 120.491 22.1319C120.106 22.1319 119.765 22.2174 119.466 22.3883C119.175 22.5592 118.932 22.8241 118.735 23.1829V22.2601H117.71V28.1561H118.735V24.5672C118.735 24.2767 118.795 24.0204 118.914 23.7982C119.043 23.576 119.218 23.4051 119.44 23.2855C119.671 23.1573 119.936 23.0932 120.235 23.0932C120.645 23.0932 120.957 23.2171 121.17 23.4649C121.384 23.7127 121.491 24.0802 121.491 24.5672ZM124.444 19.8248C124.444 20.0127 124.512 20.1794 124.649 20.3246C124.794 20.4614 124.961 20.5297 125.149 20.5297C125.345 20.5297 125.512 20.4614 125.649 20.3246C125.785 20.1794 125.854 20.0127 125.854 19.8248C125.854 19.6282 125.785 19.4616 125.649 19.3249C125.512 19.1882 125.345 19.1198 125.149 19.1198C124.961 19.1198 124.794 19.1882 124.649 19.3249C124.512 19.4616 124.444 19.6282 124.444 19.8248ZM124.636 22.2601V28.1561H125.661V22.2601H124.636ZM131.554 24.5672V28.1561H132.58V24.4391C132.58 23.7298 132.396 23.1701 132.029 22.76C131.67 22.3413 131.179 22.1319 130.555 22.1319C130.17 22.1319 129.828 22.2174 129.529 22.3883C129.239 22.5592 128.995 22.8241 128.799 23.1829V22.2601H127.773V28.1561H128.799V24.5672C128.799 24.2767 128.859 24.0204 128.978 23.7982C129.106 23.576 129.282 23.4051 129.504 23.2855C129.734 23.1573 129.999 23.0932 130.298 23.0932C130.709 23.0932 131.02 23.2171 131.234 23.4649C131.448 23.7127 131.554 24.0802 131.554 24.5672ZM134.11 28.5407C134.11 29.0448 134.234 29.4891 134.482 29.8737C134.73 30.2667 135.072 30.5701 135.507 30.7837C135.952 30.9973 136.46 31.1042 137.033 31.1042C137.528 31.1042 137.998 30.9888 138.443 30.7581C138.887 30.5274 139.25 30.1813 139.532 29.7199C139.814 29.267 139.955 28.703 139.955 28.028V22.2601H138.93V28.028C138.93 28.5236 138.831 28.9252 138.635 29.2328C138.447 29.549 138.208 29.7797 137.917 29.9249C137.626 30.0702 137.332 30.1428 137.033 30.1428C136.648 30.1428 136.315 30.0659 136.033 29.9121C135.751 29.7669 135.533 29.5703 135.379 29.3225C135.225 29.0833 135.148 28.8226 135.148 28.5407H134.11ZM133.995 25.2081C133.995 25.8404 134.127 26.3873 134.392 26.8487C134.657 27.3102 135.012 27.6648 135.456 27.9126C135.9 28.1604 136.387 28.2843 136.917 28.2843C137.413 28.2843 137.844 28.1604 138.212 27.9126C138.579 27.6648 138.865 27.3102 139.071 26.8487C139.284 26.3873 139.391 25.8404 139.391 25.2081C139.391 24.5672 139.284 24.0204 139.071 23.5675C138.865 23.106 138.579 22.7514 138.212 22.5036C137.844 22.2558 137.413 22.1319 136.917 22.1319C136.387 22.1319 135.9 22.2558 135.456 22.5036C135.012 22.7514 134.657 23.106 134.392 23.5675C134.127 24.0204 133.995 24.5672 133.995 25.2081ZM135.033 25.2081C135.033 24.7552 135.123 24.3707 135.302 24.0545C135.49 23.7384 135.738 23.4991 136.046 23.3368C136.353 23.1744 136.687 23.0932 137.045 23.0932C137.268 23.0932 137.49 23.1402 137.712 23.2342C137.934 23.3282 138.135 23.4649 138.314 23.6444C138.502 23.8238 138.652 24.046 138.763 24.3109C138.874 24.5672 138.93 24.8663 138.93 25.2081C138.93 25.661 138.836 26.0455 138.648 26.3617C138.46 26.6778 138.22 26.9171 137.93 27.0795C137.639 27.2418 137.344 27.323 137.045 27.323C136.687 27.323 136.353 27.2418 136.046 27.0795C135.738 26.9171 135.49 26.6778 135.302 26.3617C135.123 26.0455 135.033 25.661 135.033 25.2081Z" fill="black"/>
<rect x="15.4805" y="8.45886" width="29.2971" height="29.2971" rx="14.6486" fill="#FFEFDB"/>
<path d="M35.6949 17.2479H24.562C24.0772 17.2479 23.6831 17.642 23.6831 18.1268V25.7441V26.623C23.6831 27.1079 24.0772 27.5019 24.562 27.5019H28.9639L28.8658 27.7495C28.7105 28.1333 28.3443 28.3808 27.9312 28.3808H27.3452C27.1841 28.3808 27.0523 28.5127 27.0523 28.6738C27.0523 28.8349 27.1841 28.9668 27.3452 28.9668H27.9312H32.3258H32.9117C33.0728 28.9668 33.2047 28.8349 33.2047 28.6738C33.2047 28.5127 33.0728 28.3808 32.9117 28.3808H32.3258C31.9127 28.3808 31.5465 28.1333 31.3926 27.7495L31.293 27.5019H35.6949C36.1798 27.5019 36.5738 27.1079 36.5738 26.623V25.7441V18.1268C36.5738 17.642 36.1798 17.2479 35.6949 17.2479ZM24.269 18.1268C24.269 17.9657 24.4009 17.8339 24.562 17.8339H35.6949C35.8561 17.8339 35.9879 17.9657 35.9879 18.1268V25.4511H24.269V18.1268ZM30.8477 27.9663C30.9092 28.1186 30.9913 28.2578 31.0909 28.3808H29.1661C29.2657 28.2578 29.3477 28.1186 29.4092 27.9663L29.5938 27.5019H30.6617L30.8477 27.9663ZM35.9879 26.623C35.9879 26.7841 35.8561 26.916 35.6949 26.916H30.8609H29.396H24.562C24.4009 26.916 24.269 26.7841 24.269 26.623V26.0371H35.9879V26.623Z" fill="#8C4E06" stroke="#8C4E06" stroke-width="0.183107"/>
<path d="M33.9371 18.7126H30.7144C30.4888 18.7126 30.2837 18.7991 30.1285 18.9382C29.9732 18.7991 29.7681 18.7126 29.5425 18.7126H26.3198C26.1587 18.7126 26.0269 18.8445 26.0269 19.0056V23.4002C26.0269 23.5613 26.1587 23.6932 26.3198 23.6932H29.5425C29.7036 23.6932 29.8355 23.825 29.8355 23.9861C29.8355 24.1473 29.9673 24.2791 30.1285 24.2791C30.2896 24.2791 30.4214 24.1473 30.4214 23.9861C30.4214 23.825 30.5533 23.6932 30.7144 23.6932H31.7398V24.2791C31.7398 24.4402 31.8716 24.5721 32.0328 24.5721C32.1939 24.5721 32.3257 24.4402 32.3257 24.2791V23.6932H33.9371C34.0982 23.6932 34.2301 23.5613 34.2301 23.4002V19.0056C34.2301 18.8445 34.0982 18.7126 33.9371 18.7126ZM29.8355 23.157C29.7432 23.1248 29.6451 23.1072 29.5425 23.1072H26.6128V19.2986H29.5425C29.7036 19.2986 29.8355 19.4304 29.8355 19.5916V23.157ZM33.6441 23.1072H30.7144C30.6119 23.1072 30.5137 23.1248 30.4214 23.157V19.5916C30.4214 19.4304 30.5533 19.2986 30.7144 19.2986H33.6441V23.1072Z" fill="#8C4E06" stroke="#8C4E06" stroke-width="0.183107"/>
<rect x="1.2898" y="1.10328" width="158.388" height="45.7768" rx="3.20437" stroke="black" stroke-width="0.915535"/>
</svg>
