<svg width="165" height="52" viewBox="0 0 165 52" fill="none" xmlns="http://www.w3.org/2000/svg">
<rect x="4.39648" y="4.47607" width="160.394" height="47.0121" rx="3.68722" fill="#1B1B22"/>
<rect x="1.16989" y="1.24972" width="159.472" height="46.0903" rx="3.22632" fill="white"/>
<path d="M54.4584 27.616H59.0139V26.5835H54.4584V27.616ZM54.4584 19.6147H59.0139V18.5823H54.4584V19.6147ZM54.4584 23.2282H58.7558V22.1957H54.4584V23.2282ZM53.8518 18.5823V27.616H54.9488V18.5823H53.8518ZM61.3473 25.7834C61.3473 25.5683 61.3989 25.3834 61.5021 25.2285C61.6054 25.0736 61.7602 24.9532 61.9667 24.8671C62.1818 24.7811 62.4571 24.7381 62.7927 24.7381C63.154 24.7381 63.4938 24.7854 63.8122 24.88C64.1305 24.9661 64.4402 25.1123 64.7414 25.3188V24.7123C64.6811 24.6348 64.565 24.5359 64.3929 24.4155C64.2208 24.2864 63.9885 24.1746 63.696 24.0799C63.4121 23.9767 63.0551 23.9251 62.6249 23.9251C61.8936 23.9251 61.3215 24.1014 60.9085 24.4542C60.5041 24.7983 60.3019 25.2586 60.3019 25.835C60.3019 26.2394 60.3966 26.5835 60.5858 26.8675C60.7751 27.1514 61.0246 27.3708 61.3344 27.5256C61.6527 27.6719 61.9925 27.745 62.3539 27.745C62.6808 27.745 63.0077 27.6848 63.3347 27.5643C63.6702 27.4439 63.9498 27.2589 64.1735 27.0094C64.4058 26.7599 64.522 26.4459 64.522 26.0673L64.3155 25.293C64.3155 25.6027 64.238 25.8781 64.0832 26.119C63.9369 26.3512 63.7347 26.5319 63.4766 26.661C63.2271 26.79 62.9432 26.8546 62.6249 26.8546C62.3754 26.8546 62.1517 26.8158 61.9538 26.7384C61.7645 26.6524 61.614 26.5276 61.5021 26.3642C61.3989 26.2007 61.3473 26.0071 61.3473 25.7834ZM61.1924 23.0475C61.287 22.9787 61.4161 22.8969 61.5796 22.8023C61.743 22.7077 61.9409 22.6259 62.1732 22.5571C62.4141 22.4883 62.6808 22.4539 62.9733 22.4539C63.154 22.4539 63.3261 22.4711 63.4895 22.5055C63.653 22.5399 63.795 22.5958 63.9154 22.6732C64.0445 22.7507 64.1434 22.8582 64.2122 22.9959C64.2811 23.1249 64.3155 23.2927 64.3155 23.4992V27.616H65.3479V23.3572C65.3479 22.9701 65.249 22.6431 65.0511 22.3764C64.8618 22.1097 64.5908 21.9075 64.238 21.7699C63.8939 21.6236 63.4895 21.5505 63.0249 21.5505C62.4743 21.5505 62.0011 21.6322 61.6054 21.7957C61.2182 21.9592 60.9128 22.1226 60.6891 22.2861L61.1924 23.0475ZM67.3411 25.7963L66.528 26.2996C66.6399 26.5319 66.8033 26.7599 67.0184 26.9836C67.2421 27.2073 67.5131 27.3923 67.8315 27.5385C68.1498 27.6762 68.5068 27.745 68.9026 27.745C69.5134 27.745 70.0038 27.5729 70.3738 27.2288C70.7524 26.8847 70.9416 26.4545 70.9416 25.9383C70.9416 25.5855 70.8556 25.2973 70.6835 25.0736C70.5201 24.8499 70.2964 24.6607 70.0125 24.5058C69.7285 24.3423 69.4145 24.1918 69.0704 24.0541C68.8639 23.9681 68.666 23.8777 68.4767 23.7831C68.2874 23.6885 68.1326 23.5809 68.0121 23.4605C67.8917 23.34 67.8315 23.2024 67.8315 23.0475C67.8315 22.8496 67.9089 22.7034 68.0638 22.6087C68.2186 22.5141 68.4036 22.4668 68.6187 22.4668C68.9284 22.4668 69.2037 22.5399 69.4446 22.6861C69.6941 22.8324 69.9006 23.0174 70.0641 23.2411L70.89 22.712C70.7696 22.4883 70.6018 22.2904 70.3867 22.1183C70.1716 21.9462 69.9221 21.8086 69.6382 21.7053C69.3629 21.6021 69.0661 21.5505 68.7477 21.5505C68.4294 21.5505 68.1197 21.6064 67.8186 21.7183C67.526 21.8301 67.2851 22.0022 67.0959 22.2345C66.9152 22.4668 66.8248 22.7593 66.8248 23.112C66.8248 23.4562 66.9109 23.7444 67.083 23.9767C67.2636 24.2004 67.483 24.3853 67.7411 24.5316C68.0078 24.6693 68.2702 24.7897 68.5283 24.893C68.7606 24.979 68.98 25.0736 69.1865 25.1769C69.393 25.2715 69.5608 25.392 69.6898 25.5382C69.8275 25.6759 69.8963 25.8479 69.8963 26.0544C69.8963 26.2867 69.8103 26.4717 69.6382 26.6094C69.4747 26.7384 69.2467 26.8029 68.9542 26.8029C68.7133 26.8029 68.4896 26.7599 68.2831 26.6739C68.0853 26.5792 67.9089 26.4545 67.754 26.2996C67.5992 26.1448 67.4615 25.977 67.3411 25.7963ZM76.9482 21.6795H75.7868L73.9542 26.2738L74.3801 26.3254L72.4959 21.6795H71.2699L73.5412 26.7771L71.9152 30.4551H73.0767L76.9482 21.6795ZM82.0359 25.7963L81.2229 26.2996C81.3348 26.5319 81.4982 26.7599 81.7133 26.9836C81.937 27.2073 82.208 27.3923 82.5263 27.5385C82.8447 27.6762 83.2017 27.745 83.5975 27.745C84.2083 27.745 84.6987 27.5729 85.0687 27.2288C85.4472 26.8847 85.6365 26.4545 85.6365 25.9383C85.6365 25.5855 85.5505 25.2973 85.3784 25.0736C85.2149 24.8499 84.9913 24.6607 84.7073 24.5058C84.4234 24.3423 84.1094 24.1918 83.7653 24.0541C83.5588 23.9681 83.3609 23.8777 83.1716 23.7831C82.9823 23.6885 82.8275 23.5809 82.707 23.4605C82.5866 23.34 82.5263 23.2024 82.5263 23.0475C82.5263 22.8496 82.6038 22.7034 82.7586 22.6087C82.9135 22.5141 83.0985 22.4668 83.3136 22.4668C83.6233 22.4668 83.8986 22.5399 84.1395 22.6861C84.389 22.8324 84.5955 23.0174 84.759 23.2411L85.5849 22.712C85.4644 22.4883 85.2967 22.2904 85.0816 22.1183C84.8665 21.9462 84.617 21.8086 84.3331 21.7053C84.0578 21.6021 83.7609 21.5505 83.4426 21.5505C83.1243 21.5505 82.8146 21.6064 82.5134 21.7183C82.2209 21.8301 81.98 22.0022 81.7907 22.2345C81.6101 22.4668 81.5197 22.7593 81.5197 23.112C81.5197 23.4562 81.6058 23.7444 81.7778 23.9767C81.9585 24.2004 82.1779 24.3853 82.436 24.5316C82.7027 24.6693 82.9651 24.7897 83.2232 24.893C83.4555 24.979 83.6749 25.0736 83.8814 25.1769C84.0879 25.2715 84.2557 25.392 84.3847 25.5382C84.5224 25.6759 84.5912 25.8479 84.5912 26.0544C84.5912 26.2867 84.5052 26.4717 84.3331 26.6094C84.1696 26.7384 83.9416 26.8029 83.6491 26.8029C83.4082 26.8029 83.1845 26.7599 82.978 26.6739C82.7801 26.5792 82.6038 26.4545 82.4489 26.2996C82.294 26.1448 82.1564 25.977 82.0359 25.7963ZM86.0923 21.6795V22.6474H89.0606V21.6795H86.0923ZM87.0602 19.6147V27.616H88.0927V19.6147H87.0602ZM91.1284 25.293V21.6795H90.096V25.4221C90.096 26.1276 90.281 26.6911 90.6509 27.1127C91.0209 27.5342 91.5156 27.745 92.135 27.745C92.5308 27.745 92.8749 27.659 93.1675 27.4869C93.46 27.3062 93.7052 27.0395 93.9031 26.6868V27.616H94.9355V21.6795H93.9031V25.293C93.9031 25.5855 93.8385 25.8436 93.7095 26.0673C93.589 26.291 93.4127 26.4674 93.1804 26.5964C92.9567 26.7169 92.6943 26.7771 92.3931 26.7771C91.9802 26.7771 91.6661 26.6481 91.4511 26.39C91.236 26.1319 91.1284 25.7662 91.1284 25.293ZM101.329 17.5498V27.616H102.361V17.5498H101.329ZM96.3601 24.6478C96.3601 25.2844 96.4935 25.835 96.7602 26.2996C97.0269 26.7642 97.3839 27.1213 97.8313 27.3708C98.2787 27.6203 98.7691 27.745 99.3025 27.745C99.8015 27.745 100.236 27.6203 100.606 27.3708C100.976 27.1213 101.264 26.7642 101.471 26.2996C101.686 25.835 101.793 25.2844 101.793 24.6478C101.793 24.0025 101.686 23.4519 101.471 22.9959C101.264 22.5313 100.976 22.1742 100.606 21.9247C100.236 21.6752 99.8015 21.5505 99.3025 21.5505C98.7691 21.5505 98.2787 21.6752 97.8313 21.9247C97.3839 22.1742 97.0269 22.5313 96.7602 22.9959C96.4935 23.4519 96.3601 24.0025 96.3601 24.6478ZM97.4054 24.6478C97.4054 24.1918 97.4958 23.8046 97.6764 23.4863C97.8657 23.1679 98.1152 22.927 98.4249 22.7636C98.7347 22.6001 99.0702 22.5184 99.4316 22.5184C99.7327 22.5184 100.03 22.6001 100.322 22.7636C100.615 22.927 100.855 23.1679 101.045 23.4863C101.234 23.8046 101.329 24.1918 101.329 24.6478C101.329 25.1037 101.234 25.4909 101.045 25.8092C100.855 26.1276 100.615 26.3685 100.322 26.5319C100.03 26.6954 99.7327 26.7771 99.4316 26.7771C99.0702 26.7771 98.7347 26.6954 98.4249 26.5319C98.1152 26.3685 97.8657 26.1276 97.6764 25.8092C97.4958 25.4909 97.4054 25.1037 97.4054 24.6478ZM106.533 27.745C107.17 27.745 107.721 27.6203 108.185 27.3708C108.659 27.1127 109.05 26.7341 109.36 26.2351L108.521 25.706C108.306 26.0673 108.043 26.3383 107.734 26.519C107.424 26.6911 107.067 26.7771 106.663 26.7771C106.258 26.7771 105.914 26.6911 105.63 26.519C105.346 26.3469 105.131 26.0974 104.985 25.7705C104.839 25.4436 104.765 25.0478 104.765 24.5832C104.774 24.1272 104.852 23.7444 104.998 23.4347C105.153 23.1163 105.368 22.8754 105.643 22.712C105.927 22.5399 106.267 22.4539 106.663 22.4539C106.998 22.4539 107.291 22.527 107.54 22.6732C107.79 22.8195 107.983 23.0217 108.121 23.2798C108.267 23.5379 108.34 23.8433 108.34 24.1961C108.34 24.2563 108.327 24.3337 108.302 24.4284C108.276 24.5144 108.25 24.5789 108.224 24.6219L108.637 24.0283H104.378V24.9059H109.45C109.45 24.8887 109.45 24.8499 109.45 24.7897C109.459 24.7209 109.463 24.6564 109.463 24.5961C109.463 23.9681 109.351 23.4261 109.127 22.9701C108.904 22.5141 108.581 22.1656 108.16 21.9247C107.747 21.6752 107.248 21.5505 106.663 21.5505C106.078 21.5505 105.561 21.6795 105.114 21.9376C104.675 22.1957 104.331 22.5571 104.081 23.0217C103.841 23.4863 103.72 24.0283 103.72 24.6478C103.72 25.2586 103.836 25.7963 104.069 26.2609C104.309 26.7255 104.641 27.0912 105.062 27.3579C105.492 27.616 105.983 27.745 106.533 27.745ZM114.685 24.0025V27.616H115.718V23.8734C115.718 23.1593 115.533 22.5958 115.163 22.1828C114.801 21.7613 114.307 21.5505 113.678 21.5505C113.291 21.5505 112.947 21.6365 112.646 21.8086C112.354 21.9807 112.108 22.2474 111.91 22.6087V21.6795H110.878V27.616H111.91V24.0025C111.91 23.71 111.971 23.4519 112.091 23.2282C112.22 23.0045 112.397 22.8324 112.62 22.712C112.853 22.5829 113.119 22.5184 113.42 22.5184C113.833 22.5184 114.147 22.6431 114.362 22.8926C114.578 23.1421 114.685 23.5121 114.685 24.0025ZM116.755 21.6795V22.6474H119.723V21.6795H116.755ZM117.723 19.6147V27.616H118.755V19.6147H117.723ZM124.176 21.6795V22.6474H127.144V21.6795H124.176ZM127.041 18.7888L127.609 17.937C127.549 17.851 127.463 17.7692 127.351 17.6918C127.247 17.6144 127.123 17.5498 126.976 17.4982C126.83 17.4466 126.662 17.4208 126.473 17.4208C126.112 17.4208 125.802 17.4982 125.544 17.6531C125.294 17.7993 125.101 18.023 124.963 18.3242C124.826 18.6253 124.757 19.0124 124.757 19.4856V27.616H125.789V19.6147C125.789 19.3308 125.815 19.1028 125.867 18.9307C125.918 18.7586 125.987 18.6382 126.073 18.5694C126.168 18.4919 126.28 18.4532 126.409 18.4532C126.512 18.4532 126.619 18.4747 126.731 18.5177C126.852 18.5522 126.955 18.6425 127.041 18.7888ZM130.617 27.745C131.254 27.745 131.805 27.6203 132.269 27.3708C132.743 27.1127 133.134 26.7341 133.444 26.2351L132.605 25.706C132.39 26.0673 132.127 26.3383 131.818 26.519C131.508 26.6911 131.151 26.7771 130.747 26.7771C130.342 26.7771 129.998 26.6911 129.714 26.519C129.43 26.3469 129.215 26.0974 129.069 25.7705C128.923 25.4436 128.849 25.0478 128.849 24.5832C128.858 24.1272 128.935 23.7444 129.082 23.4347C129.237 23.1163 129.452 22.8754 129.727 22.712C130.011 22.5399 130.351 22.4539 130.747 22.4539C131.082 22.4539 131.375 22.527 131.624 22.6732C131.874 22.8195 132.067 23.0217 132.205 23.2798C132.351 23.5379 132.424 23.8433 132.424 24.1961C132.424 24.2563 132.411 24.3337 132.386 24.4284C132.36 24.5144 132.334 24.5789 132.308 24.6219L132.721 24.0283H128.462V24.9059H133.534C133.534 24.8887 133.534 24.8499 133.534 24.7897C133.543 24.7209 133.547 24.6564 133.547 24.5961C133.547 23.9681 133.435 23.4261 133.211 22.9701C132.988 22.5141 132.665 22.1656 132.244 21.9247C131.831 21.6752 131.332 21.5505 130.747 21.5505C130.161 21.5505 129.645 21.6795 129.198 21.9376C128.759 22.1957 128.415 22.5571 128.165 23.0217C127.925 23.4863 127.804 24.0283 127.804 24.6478C127.804 25.2586 127.92 25.7963 128.153 26.2609C128.393 26.7255 128.725 27.0912 129.146 27.3579C129.576 27.616 130.067 27.745 130.617 27.745ZM137.259 27.745C137.896 27.745 138.446 27.6203 138.911 27.3708C139.384 27.1127 139.776 26.7341 140.085 26.2351L139.247 25.706C139.031 26.0673 138.769 26.3383 138.459 26.519C138.15 26.6911 137.793 26.7771 137.388 26.7771C136.984 26.7771 136.64 26.6911 136.356 26.519C136.072 26.3469 135.857 26.0974 135.711 25.7705C135.564 25.4436 135.491 25.0478 135.491 24.5832C135.5 24.1272 135.577 23.7444 135.723 23.4347C135.878 23.1163 136.093 22.8754 136.369 22.712C136.653 22.5399 136.992 22.4539 137.388 22.4539C137.724 22.4539 138.016 22.527 138.266 22.6732C138.515 22.8195 138.709 23.0217 138.847 23.2798C138.993 23.5379 139.066 23.8433 139.066 24.1961C139.066 24.2563 139.053 24.3337 139.027 24.4284C139.001 24.5144 138.976 24.5789 138.95 24.6219L139.363 24.0283H135.104V24.9059H140.176C140.176 24.8887 140.176 24.8499 140.176 24.7897C140.184 24.7209 140.189 24.6564 140.189 24.5961C140.189 23.9681 140.077 23.4261 139.853 22.9701C139.629 22.5141 139.307 22.1656 138.885 21.9247C138.472 21.6752 137.973 21.5505 137.388 21.5505C136.803 21.5505 136.287 21.6795 135.84 21.9376C135.401 22.1957 135.057 22.5571 134.807 23.0217C134.566 23.4863 134.446 24.0283 134.446 24.6478C134.446 25.2586 134.562 25.7963 134.794 26.2609C135.035 26.7255 135.366 27.0912 135.788 27.3579C136.218 27.616 136.709 27.745 137.259 27.745ZM141.849 25.7963L141.036 26.2996C141.148 26.5319 141.311 26.7599 141.526 26.9836C141.75 27.2073 142.021 27.3923 142.339 27.5385C142.658 27.6762 143.015 27.745 143.41 27.745C144.021 27.745 144.512 27.5729 144.882 27.2288C145.26 26.8847 145.449 26.4545 145.449 25.9383C145.449 25.5855 145.363 25.2973 145.191 25.0736C145.028 24.8499 144.804 24.6607 144.52 24.5058C144.236 24.3423 143.922 24.1918 143.578 24.0541C143.372 23.9681 143.174 23.8777 142.985 23.7831C142.795 23.6885 142.64 23.5809 142.52 23.4605C142.4 23.34 142.339 23.2024 142.339 23.0475C142.339 22.8496 142.417 22.7034 142.572 22.6087C142.726 22.5141 142.911 22.4668 143.127 22.4668C143.436 22.4668 143.712 22.5399 143.952 22.6861C144.202 22.8324 144.408 23.0174 144.572 23.2411L145.398 22.712C145.277 22.4883 145.11 22.2904 144.895 22.1183C144.679 21.9462 144.43 21.8086 144.146 21.7053C143.871 21.6021 143.574 21.5505 143.256 21.5505C142.937 21.5505 142.628 21.6064 142.326 21.7183C142.034 21.8301 141.793 22.0022 141.604 22.2345C141.423 22.4668 141.333 22.7593 141.333 23.112C141.333 23.4562 141.419 23.7444 141.591 23.9767C141.771 24.2004 141.991 24.3853 142.249 24.5316C142.516 24.6693 142.778 24.7897 143.036 24.893C143.268 24.979 143.488 25.0736 143.694 25.1769C143.901 25.2715 144.069 25.392 144.198 25.5382C144.335 25.6759 144.404 25.8479 144.404 26.0544C144.404 26.2867 144.318 26.4717 144.146 26.6094C143.983 26.7384 143.755 26.8029 143.462 26.8029C143.221 26.8029 142.997 26.7599 142.791 26.6739C142.593 26.5792 142.417 26.4545 142.262 26.2996C142.107 26.1448 141.969 25.977 141.849 25.7963Z" fill="black"/>
<rect x="15.4575" y="9.08521" width="29.4978" height="29.4978" rx="14.7489" fill="#DDE5FF"/>
<g clip-path="url(#clip0_695_338)">
<path d="M27.9017 30.7754C27.1717 30.7761 26.4578 30.5602 25.8507 30.1548C25.2435 29.7495 24.7703 29.173 24.491 28.4985C24.4667 28.4373 24.4558 28.3717 24.459 28.3059C24.4623 28.2402 24.4795 28.1759 24.5096 28.1174C24.5398 28.0589 24.5821 28.0075 24.6337 27.9667C24.6854 27.9259 24.7452 27.8967 24.8091 27.8809V27.8809C24.916 27.855 25.0286 27.8681 25.1267 27.918C25.2247 27.9679 25.3017 28.0512 25.3437 28.1528C25.5542 28.6574 25.9096 29.0883 26.3649 29.391C26.8202 29.6937 27.355 29.8547 27.9017 29.8536H28.0676C28.8011 29.8572 29.5059 29.5694 30.0271 29.0534C30.5483 28.5373 30.8432 27.8354 30.8469 27.102C30.8506 26.3685 30.5627 25.6637 30.0467 25.1425C29.5307 24.6213 28.8287 24.3264 28.0953 24.3227H27.9017C27.3736 24.3223 26.8563 24.4731 26.4112 24.7574C25.9661 25.0416 25.6116 25.4474 25.3898 25.9267C25.3434 26.027 25.2625 26.1074 25.1618 26.1531C25.0612 26.1988 24.9474 26.2068 24.8413 26.1756C24.7783 26.1574 24.7199 26.126 24.67 26.0835C24.6201 26.0409 24.5798 25.9883 24.5519 25.9289C24.524 25.8696 24.5091 25.805 24.5081 25.7394C24.5071 25.6739 24.5202 25.6088 24.5463 25.5487C24.844 24.9091 25.3176 24.3674 25.9118 23.987C26.506 23.6066 27.1962 23.4034 27.9017 23.4009C27.9953 23.395 28.0892 23.395 28.1829 23.4009C29.102 23.4819 29.9574 23.9045 30.5801 24.5854C31.2028 25.2663 31.5476 26.1558 31.5465 27.0785C31.5453 28.0012 31.1983 28.89 30.5738 29.5693C29.9494 30.2485 29.093 30.669 28.1737 30.7477C28.0837 30.7631 27.9929 30.7724 27.9017 30.7754V30.7754Z" fill="#0A278D"/>
<path d="M29.1828 27.8625C29.1914 28.1763 29.0792 28.4815 28.8694 28.7151C28.7111 28.8813 28.5018 28.99 28.2748 29.0239V29.3327C28.2748 29.444 28.2306 29.5507 28.152 29.6293C28.0733 29.708 27.9667 29.7522 27.8554 29.7522V29.7522C27.7442 29.7522 27.6375 29.708 27.5588 29.6293C27.4802 29.5507 27.436 29.444 27.436 29.3327V28.9963C27.2336 28.9297 27.0537 28.8082 26.9162 28.6455C26.7787 28.4828 26.689 28.2851 26.6571 28.0745C26.6456 28.0295 26.6438 27.9826 26.6519 27.9368C26.6599 27.8911 26.6776 27.8476 26.7038 27.8092C26.7299 27.7709 26.764 27.7385 26.8036 27.7143C26.8432 27.6901 26.8875 27.6746 26.9336 27.6689C27.0075 27.6587 27.0826 27.6749 27.1458 27.7145C27.2089 27.7541 27.2562 27.8146 27.2793 27.8855C27.3111 27.992 27.3644 28.0908 27.436 28.1759C27.4935 28.2411 27.5645 28.293 27.6441 28.328C27.7237 28.3631 27.81 28.3803 27.8969 28.3787C28.0219 28.383 28.1459 28.3544 28.2564 28.2957C28.2912 28.2765 28.3237 28.2533 28.3532 28.2266C28.4002 28.1879 28.439 28.1403 28.4675 28.0865C28.496 28.0327 28.5135 27.9738 28.5191 27.9132C28.5331 27.8129 28.5136 27.7109 28.4638 27.6228C28.4205 27.557 28.3599 27.5043 28.2887 27.4707H28.2564C28.1642 27.4292 27.9799 27.3693 27.7079 27.2863L27.4406 27.1849C27.3308 27.1434 27.227 27.0876 27.1318 27.019C27.0012 26.9177 26.8969 26.7865 26.8276 26.6365C26.7553 26.4804 26.7176 26.3106 26.717 26.1387C26.713 25.9389 26.7623 25.7416 26.8599 25.5672C26.9511 25.4015 27.0911 25.268 27.2609 25.1846C27.3183 25.1544 27.3785 25.1297 27.4406 25.1109V24.862C27.4406 24.7507 27.4848 24.6441 27.5634 24.5654C27.6421 24.4867 27.7488 24.4426 27.86 24.4426V24.4426C27.9713 24.4426 28.0779 24.4867 28.1566 24.5654C28.2353 24.6441 28.2794 24.7507 28.2794 24.862V25.097C28.4608 25.1387 28.6278 25.2278 28.7634 25.3551C28.8943 25.4819 28.9897 25.6409 29.0399 25.816C29.0515 25.8624 29.0528 25.9108 29.0436 25.9577C29.0345 26.0046 29.0152 26.049 28.9871 26.0877C28.9589 26.1263 28.9227 26.1583 28.8809 26.1815C28.839 26.2046 28.7926 26.2183 28.745 26.2216V26.2216C28.6752 26.2274 28.6056 26.2096 28.5471 26.1712C28.4887 26.1328 28.4447 26.0759 28.4223 26.0096C28.3992 25.9334 28.3581 25.8639 28.3025 25.8068V25.8068C28.1888 25.7172 28.046 25.6729 27.9015 25.6824C27.7598 25.6726 27.6189 25.7099 27.5005 25.7884L27.4683 25.816C27.4329 25.846 27.4046 25.8835 27.3855 25.9258C27.3664 25.968 27.3569 26.014 27.3576 26.0603C27.358 26.1072 27.368 26.1535 27.387 26.1963C27.4061 26.2391 27.4337 26.2776 27.4683 26.3092V26.3092C27.648 26.4215 27.8462 26.501 28.0536 26.5443L28.2887 26.618C28.4521 26.6694 28.6073 26.7439 28.7496 26.8393C28.8938 26.9411 29.0083 27.0795 29.0814 27.2402C29.1619 27.4373 29.1966 27.65 29.1828 27.8625ZM31.303 23.8618C31.1903 23.8615 31.0778 23.8522 30.9665 23.8342C30.6929 23.7913 30.4437 23.6521 30.2637 23.4417C30.0836 23.2313 29.9847 22.9634 29.9848 22.6865C29.9848 22.5055 30.0274 22.3271 30.1092 22.1657C30.131 22.1262 30.1424 22.0818 30.1424 22.0366C30.1424 21.9915 30.131 21.9471 30.1092 21.9076C30.0855 21.8692 30.0522 21.8376 30.0126 21.8158C29.9731 21.794 29.9286 21.7827 29.8834 21.7831H29.8189L24.7489 23.4332C24.6304 23.4811 24.5034 23.5046 24.3756 23.5023C24.1361 23.5029 23.9024 23.428 23.708 23.2881C23.5135 23.1483 23.3681 22.9507 23.2925 22.7234C23.2036 22.5051 23.1847 22.2646 23.2384 22.0351C23.2921 21.8056 23.4156 21.5984 23.5921 21.4421L24.6752 20.5111C24.7215 20.472 24.775 20.4424 24.8327 20.424C24.8905 20.4057 24.9512 20.3989 25.0116 20.404C25.0719 20.4091 25.1307 20.4261 25.1845 20.454C25.2383 20.4818 25.286 20.52 25.3251 20.5664V20.5664C25.3641 20.6126 25.3937 20.6662 25.4121 20.7239C25.4304 20.7816 25.4373 20.8424 25.4321 20.9028C25.427 20.9631 25.41 21.0219 25.3821 21.0757C25.3543 21.1294 25.3161 21.1772 25.2697 21.2162L24.1682 22.138C24.1394 22.1748 24.1215 22.219 24.1166 22.2654C24.1117 22.3119 24.12 22.3588 24.1405 22.4008C24.1774 22.5022 24.265 22.622 24.371 22.5759L29.5147 20.9166C29.6277 20.8796 29.746 20.8609 29.865 20.8613C30.0672 20.8614 30.2661 20.9128 30.443 21.0108C30.6199 21.1087 30.7691 21.25 30.8764 21.4214C30.9837 21.5928 31.0458 21.7887 31.0567 21.9906C31.0676 22.1925 31.0271 22.3939 30.9389 22.5759C30.9234 22.6101 30.9162 22.6475 30.9179 22.685C30.9195 22.7225 30.9299 22.7591 30.9483 22.7919C30.9667 22.8246 30.9925 22.8526 31.0237 22.8735C31.0549 22.8944 31.0906 22.9077 31.1278 22.9124C31.4064 22.9554 31.6912 22.8965 31.9298 22.7464C31.9873 22.71 32.0413 22.6683 32.0911 22.622L33.3263 21.1563C33.407 21.0599 33.5078 20.9823 33.6217 20.9289C33.7355 20.8756 33.8597 20.8478 33.9854 20.8475H34.6076V18.6767H28.556C28.3871 18.6819 28.2248 18.7435 28.0951 18.8518L27.0581 19.7091C27.0118 19.7482 26.9582 19.7777 26.9005 19.7961C26.8428 19.8145 26.782 19.8213 26.7217 19.8161C26.6613 19.811 26.6025 19.794 26.5488 19.7662C26.495 19.7383 26.4472 19.7001 26.4082 19.6538C26.3691 19.6075 26.3395 19.554 26.3212 19.4962C26.3028 19.4385 26.296 19.3777 26.3011 19.3174C26.3063 19.257 26.3232 19.1983 26.3511 19.1445C26.379 19.0907 26.4172 19.0429 26.4635 19.0039L27.4821 18.142C27.7834 17.8901 28.1633 17.7515 28.556 17.7502H35.5202V21.7831H33.9808L32.7272 23.2903C32.3427 23.6555 31.8332 23.8599 31.303 23.8618V23.8618Z" fill="#0A278D"/>
<path d="M36.4971 22.4239H35.4646C35.3509 22.4239 35.2382 22.4015 35.133 22.3579C35.0279 22.3144 34.9324 22.2506 34.8519 22.1701C34.7715 22.0896 34.7076 21.9941 34.6641 21.889C34.6206 21.7839 34.5981 21.6712 34.5981 21.5574V17.755C34.5994 17.5259 34.6912 17.3067 34.8536 17.1452C35.0159 16.9837 35.2356 16.8931 35.4646 16.8931H36.4971C36.7269 16.8931 36.9473 16.9844 37.1098 17.1469C37.2723 17.3094 37.3636 17.5298 37.3636 17.7596V21.5574C37.3636 21.7872 37.2723 22.0076 37.1098 22.1701C36.9473 22.3326 36.7269 22.4239 36.4971 22.4239V22.4239ZM35.52 21.5021H36.4418V17.8149H35.52V21.5021Z" fill="#0A278D"/>
</g>
<rect x="1.16989" y="1.24972" width="159.472" height="46.0903" rx="3.22632" stroke="black" stroke-width="0.921806"/>
<defs>
<clipPath id="clip0_695_338">
<rect width="14.7489" height="14.7489" fill="white" transform="translate(22.832 16.4597)"/>
</clipPath>
</defs>
</svg>
