<svg width="42" height="12" viewBox="0 0 42 12" fill="none" xmlns="http://www.w3.org/2000/svg">
<path d="M4.66555 4.854H3.30755V11H1.31955V4.854H0.437555V3.244H1.31955V2.852C1.31955 1.9 1.59022 1.2 2.13155 0.751999C2.67289 0.303999 3.48955 0.0939997 4.58155 0.122V1.774C4.10555 1.76467 3.77422 1.844 3.58755 2.012C3.40089 2.18 3.30755 2.48333 3.30755 2.922V3.244H4.66555V4.854ZM9.37973 11.126C8.63306 11.126 7.96106 10.9627 7.36373 10.636C6.76639 10.3 6.29506 9.82867 5.94973 9.222C5.61373 8.61533 5.44573 7.91533 5.44573 7.122C5.44573 6.32867 5.61839 5.62867 5.96373 5.022C6.31839 4.41533 6.79906 3.94867 7.40573 3.622C8.01239 3.286 8.68906 3.118 9.43573 3.118C10.1824 3.118 10.8591 3.286 11.4657 3.622C12.0724 3.94867 12.5484 4.41533 12.8937 5.022C13.2484 5.62867 13.4257 6.32867 13.4257 7.122C13.4257 7.91533 13.2437 8.61533 12.8797 9.222C12.5251 9.82867 12.0397 10.3 11.4237 10.636C10.8171 10.9627 10.1357 11.126 9.37973 11.126ZM9.37973 9.418C9.73439 9.418 10.0657 9.334 10.3737 9.166C10.6911 8.98867 10.9431 8.72733 11.1297 8.382C11.3164 8.03667 11.4097 7.61667 11.4097 7.122C11.4097 6.38467 11.2137 5.82 10.8217 5.428C10.4391 5.02667 9.96773 4.826 9.40773 4.826C8.84773 4.826 8.37639 5.02667 7.99373 5.428C7.62039 5.82 7.43373 6.38467 7.43373 7.122C7.43373 7.85933 7.61573 8.42867 7.97973 8.83C8.35306 9.222 8.81973 9.418 9.37973 9.418ZM16.8235 4.448C17.0755 4.03733 17.4021 3.71533 17.8035 3.482C18.2141 3.24867 18.6808 3.132 19.2035 3.132V5.19H18.6855C18.0695 5.19 17.6028 5.33467 17.2855 5.624C16.9775 5.91333 16.8235 6.41733 16.8235 7.136V11H14.8635V3.244H16.8235V4.448ZM30.1556 3.132C31.1076 3.132 31.873 3.426 32.4516 4.014C33.0396 4.59267 33.3336 5.40467 33.3336 6.45V11H31.3736V6.716C31.3736 6.10933 31.2196 5.64733 30.9116 5.33C30.6036 5.00333 30.1836 4.84 29.6516 4.84C29.1196 4.84 28.695 5.00333 28.3776 5.33C28.0696 5.64733 27.9156 6.10933 27.9156 6.716V11H25.9556V6.716C25.9556 6.10933 25.8016 5.64733 25.4936 5.33C25.1856 5.00333 24.7656 4.84 24.2336 4.84C23.6923 4.84 23.263 5.00333 22.9456 5.33C22.6376 5.64733 22.4836 6.10933 22.4836 6.716V11H20.5236V3.244H22.4836V4.182C22.7356 3.85533 23.0576 3.59867 23.4496 3.412C23.851 3.22533 24.2896 3.132 24.7656 3.132C25.3723 3.132 25.9136 3.26267 26.3896 3.524C26.8656 3.776 27.2343 4.14 27.4956 4.616C27.7476 4.168 28.1116 3.80867 28.5876 3.538C29.073 3.26733 29.5956 3.132 30.1556 3.132ZM38.1615 11.126C37.5269 11.126 36.9575 11.014 36.4535 10.79C35.9495 10.5567 35.5482 10.244 35.2495 9.852C34.9602 9.46 34.8015 9.026 34.7735 8.55H36.7475C36.7849 8.84867 36.9295 9.096 37.1815 9.292C37.4429 9.488 37.7649 9.586 38.1475 9.586C38.5209 9.586 38.8102 9.51133 39.0155 9.362C39.2302 9.21267 39.3375 9.02133 39.3375 8.788C39.3375 8.536 39.2069 8.34933 38.9455 8.228C38.6935 8.09733 38.2875 7.95733 37.7275 7.808C37.1489 7.668 36.6729 7.52333 36.2995 7.374C35.9355 7.22467 35.6182 6.996 35.3475 6.688C35.0862 6.38 34.9555 5.96467 34.9555 5.442C34.9555 5.01267 35.0769 4.62067 35.3195 4.266C35.5715 3.91133 35.9262 3.63133 36.3835 3.426C36.8502 3.22067 37.3962 3.118 38.0215 3.118C38.9455 3.118 39.6829 3.35133 40.2335 3.818C40.7842 4.27533 41.0875 4.896 41.1435 5.68H39.2675C39.2395 5.372 39.1089 5.12933 38.8755 4.952C38.6515 4.76533 38.3482 4.672 37.9655 4.672C37.6109 4.672 37.3355 4.73733 37.1395 4.868C36.9529 4.99867 36.8595 5.18067 36.8595 5.414C36.8595 5.67533 36.9902 5.876 37.2515 6.016C37.5129 6.14667 37.9189 6.282 38.4695 6.422C39.0295 6.562 39.4915 6.70667 39.8555 6.856C40.2195 7.00533 40.5322 7.23867 40.7935 7.556C41.0642 7.864 41.2042 8.27467 41.2135 8.788C41.2135 9.236 41.0875 9.63733 40.8355 9.992C40.5929 10.3467 40.2382 10.6267 39.7715 10.832C39.3142 11.028 38.7775 11.126 38.1615 11.126Z" fill="black"/>
</svg>
