<svg width="208" height="208" viewBox="0 0 208 208" fill="none" xmlns="http://www.w3.org/2000/svg">
<path d="M120.448 81.8688C120.199 80.7391 119.679 79.687 118.933 78.8024C118.188 77.9179 117.239 77.2275 116.168 76.7905C114.954 76.323 113.634 76.2001 112.355 76.4356C111.076 76.6712 109.886 77.2557 108.918 78.1248C108.901 76.6847 108.695 75.2529 108.307 73.866C106.184 67.6 93.4957 64.688 86.2272 73.1297C84.0161 75.7014 82.3468 78.6928 81.3194 81.9249C80.184 81.0193 78.8428 80.4076 77.4146 80.1442C75.9864 79.8808 74.5152 79.9738 73.1315 80.4149C68.933 81.8844 66.9508 86.7932 69.4915 90.4581C68.2809 90.3446 67.06 90.4831 65.9056 90.8648C65.3686 91.0478 64.8729 91.335 64.447 91.7097C64.021 92.0845 63.6731 92.5395 63.4231 93.0488C62.433 95.4408 64.3414 97.787 66.7896 98.5306C72.5322 95.4598 78.4598 92.7481 84.5382 90.4113C90.9862 88.0193 97.5746 86.6611 104.229 88.4031C104.479 87.3407 104.931 86.3367 105.562 85.4464C105.759 85.1112 106.064 84.8533 106.428 84.7148C106.791 84.5764 107.19 84.566 107.561 84.6851C107.912 84.847 108.212 85.1029 108.427 85.4243C108.642 85.7459 108.765 86.1206 108.78 86.5072C109.485 85.28 110.557 84.0996 111.912 84.8047C112.268 85.0393 112.565 85.3512 112.783 85.7172C113.001 86.0832 113.134 86.4937 113.17 86.918C113.482 88.6548 113.186 89.1831 113.186 91.8933C113.186 93.6738 114.549 94.4777 116.32 94.6556C116.496 94.3561 116.671 94.0555 116.84 93.7518C116.236 93.6947 115.661 93.4694 115.179 93.1014C114.696 92.7333 114.327 92.2375 114.113 91.6701C113.898 91.1026 113.847 90.4864 113.965 89.8914C114.083 89.2965 114.366 88.7466 114.781 88.3043C115.187 87.8397 115.72 87.5045 116.315 87.3402C116.909 87.1758 117.539 87.1896 118.126 87.3797C118.591 87.5733 119.012 87.856 119.368 88.2117C119.69 87.2989 119.96 86.3688 120.179 85.4256C120.515 84.2716 120.607 83.0602 120.448 81.8688Z" fill="black"/>
<path d="M148.108 116.578C148.096 116.582 148.085 116.586 148.072 116.588C144.763 116.927 141.425 116.869 138.128 116.416C138.083 116.403 138.042 116.382 138.005 116.354C137.968 116.325 137.938 116.29 137.915 116.249C137.892 116.209 137.877 116.165 137.871 116.118C137.866 116.072 137.869 116.026 137.881 115.981C137.908 115.891 137.969 115.816 138.05 115.771C138.131 115.725 138.226 115.711 138.316 115.734C141.537 116.167 144.796 116.218 148.029 115.883C148.298 115.79 148.534 115.62 148.707 115.394C148.776 115.247 148.806 115.083 148.794 114.92C148.782 114.758 148.729 114.601 148.638 114.464C148.351 113.923 147.928 113.466 147.409 113.14C146.293 112.446 145.059 111.962 143.769 111.714C143.614 111.696 143.463 111.648 143.325 111.574C143.073 111.838 143.429 111.611 136.947 110.415C136.499 110.333 136.691 109.651 137.136 109.734C138.988 110.075 140.833 110.453 142.67 110.87C142.572 110.766 139.898 107.744 139.72 107.542C136.552 108.198 129.092 110.225 125.973 111.093C127.152 117.573 127.429 125.668 122.743 130.243C125.479 129.655 128.159 128.827 130.751 127.771C138.598 124.607 146.101 120.261 147.214 120.907C148.138 121.448 149.024 122.051 149.865 122.713C150.366 123.133 151.008 123.346 151.66 123.308C152.167 123.344 152.666 123.178 153.051 122.847C153.435 122.515 153.673 122.045 153.711 121.54C151.737 120.01 149.865 118.353 148.108 116.578Z" fill="white"/>
<path d="M158.687 118.71C158.429 117.612 157.92 116.588 157.202 115.719C154.624 111.889 151.198 108.487 146.736 107.383C146.937 107.688 153.369 117.513 153.673 117.983C154.242 117.606 154.013 116.791 153.734 116.293C152.489 114.21 150.952 112.314 149.173 110.663C148.839 110.351 149.34 109.853 149.673 110.163C151.038 111.434 152.266 112.844 153.336 114.371C153.918 115.061 154.369 115.852 154.668 116.704C154.778 117.04 154.778 117.402 154.667 117.738C154.558 118.074 154.345 118.368 154.059 118.576C154.32 118.979 155.21 120.387 155.398 120.687C155.734 120.766 156.074 120.827 156.418 120.871C156.727 120.938 157.047 120.93 157.353 120.849C157.658 120.768 157.94 120.614 158.174 120.402C158.372 120.178 158.521 119.915 158.611 119.63C158.7 119.345 158.729 119.045 158.694 118.748C158.693 118.736 158.69 118.722 158.687 118.71Z" fill="white"/>
<path d="M104.321 98.9039C104.561 101.901 105.14 104.862 106.047 107.728C106.79 109.98 108.045 112.029 109.713 113.714C110.201 109.675 109.71 105.578 108.281 101.769C107.372 99.5015 105.849 97.5318 103.885 96.0804C102.568 95.0976 101.572 95.2275 100.324 95.1027C99.1526 94.9852 97.8183 94.5827 97.5343 93.2692C97.4572 92.605 97.6084 91.9342 97.9629 91.3672C98.3175 90.8002 98.8544 90.3706 99.4854 90.1492C100.941 89.5752 102.551 90.1492 103.938 90.7618C103.933 89.9654 104.031 89.1716 104.228 88.4C97.5718 86.659 90.9938 88.0162 84.5364 90.4082C79.9875 92.1342 75.5341 94.1023 71.1953 96.3039C71.276 96.2627 71.3693 96.2534 71.4566 96.2782C71.5437 96.3028 71.6184 96.3596 71.6654 96.4371C72.535 98.1292 73.2917 99.8772 73.9305 101.669C77.1909 110.796 78.2018 123.301 77.3812 132.828C77.3786 132.917 77.3431 133.002 77.2812 133.067C77.2193 133.132 77.1357 133.172 77.0464 133.178C77.1504 133.2 76.8498 133.178 107.217 133.178C101.383 131.514 97.7704 127.891 94.3696 122.946C90.1806 116.825 87.5234 109.788 86.6216 102.425C86.5728 101.973 87.28 101.978 87.3288 102.425C87.7244 105.961 88.5782 109.43 89.8685 112.745C90.9449 112.405 103.285 108.245 105.272 107.592C104.423 104.76 103.868 101.849 103.614 98.9039C103.576 98.4463 104.283 98.4505 104.321 98.9039Z" fill="#B999BE"/>
<path d="M121.755 97.1516C121.44 96.3841 120.9 95.7295 120.207 95.2734C118.201 94.2094 115.867 95.3087 113.958 93.7841C113.709 93.5373 113.511 93.2424 113.378 92.9173C113.245 92.5922 113.178 92.2436 113.184 91.8923C113.184 89.2497 113.482 88.6382 113.168 86.917C113.132 86.4926 112.999 86.0821 112.781 85.7162C112.563 85.3502 112.265 85.0383 111.91 84.8037C110.558 84.0986 109.482 85.279 108.778 86.5062C108.763 86.1196 108.64 85.7449 108.425 85.4233C108.209 85.1018 107.91 84.846 107.558 84.6841C107.188 84.565 106.789 84.5754 106.426 84.7138C106.062 84.8522 105.757 85.1102 105.559 85.4454C104.49 87.0067 103.925 88.8574 103.937 90.7494C102.551 90.1389 100.942 89.5627 99.4848 90.1368C98.8538 90.3582 98.3168 90.7877 97.9623 91.3547C97.6078 91.9218 97.4566 92.5925 97.5337 93.2568C97.8176 94.5745 99.152 94.9728 100.323 95.0903C101.583 95.2162 102.569 95.0903 103.884 96.0679C105.849 97.5193 107.371 99.4891 108.28 101.757C109.709 105.565 110.2 109.663 109.712 113.701C108.039 112.02 106.783 109.971 106.046 107.716C106.019 107.626 105.959 107.552 105.878 107.506C105.798 107.46 105.702 107.447 105.611 107.469C105.498 107.507 89.664 112.804 89.56 112.835C89.471 112.861 89.3955 112.92 89.3493 113.001C89.3032 113.081 89.29 113.176 89.3125 113.266C91.6317 119.361 96.2805 127.109 101.757 130.685C108.972 135.397 118.937 134.978 123.571 129.325C129.737 121.813 125.535 106.108 121.755 97.1516ZM112.111 130.842H115.184C115.277 130.842 115.368 130.88 115.433 130.946C115.5 131.012 115.537 131.102 115.537 131.196C115.537 131.29 115.5 131.38 115.433 131.446C115.368 131.512 115.277 131.55 115.184 131.55H112.111C112.065 131.551 112.018 131.542 111.974 131.525C111.929 131.508 111.89 131.482 111.857 131.449C111.822 131.415 111.796 131.377 111.778 131.333C111.759 131.29 111.749 131.243 111.749 131.196C111.749 131.149 111.758 131.101 111.777 131.059C111.794 131.015 111.821 130.976 111.855 130.942C111.889 130.909 111.929 130.883 111.973 130.866C112.017 130.849 112.065 130.841 112.111 130.842ZM105.005 94.1918L106.382 95.5864C106.702 95.9109 106.202 96.4111 105.882 96.0866L104.505 94.692C104.18 94.3675 104.681 93.8673 105.001 94.1918H105.005ZM108.333 94.4206C108.095 93.5592 107.925 92.6804 107.825 91.7925C107.768 91.3422 108.476 91.3474 108.532 91.7925C108.644 92.6147 108.805 93.4294 109.015 94.2323C109.04 94.3228 109.028 94.4195 108.982 94.5011C108.935 94.5827 108.859 94.6426 108.769 94.6676C108.678 94.6925 108.582 94.6806 108.499 94.6342C108.418 94.5879 108.358 94.511 108.333 94.4206Z" fill="white"/>
<path d="M120.525 90.247C120.275 89.2192 119.652 88.3209 118.777 87.7261C118.154 87.3195 117.404 87.1539 116.669 87.2602C115.933 87.3663 115.261 87.7372 114.778 88.3033C114.407 88.6999 114.141 89.1839 114.006 89.7104C113.87 90.2369 113.87 90.7891 114.006 91.3156C114.14 91.8423 114.405 92.3264 114.777 92.7234C115.149 93.1202 115.614 93.4171 116.13 93.5865C117.035 93.8947 118.022 93.8577 118.901 93.4825C119.508 93.2195 120.003 92.7512 120.301 92.1598C120.598 91.5683 120.677 90.8912 120.525 90.247Z" fill="white"/>
<path d="M108.531 91.7925C108.475 91.3473 107.767 91.3421 107.823 91.7925C107.924 92.6804 108.094 93.5592 108.332 94.4205C108.345 94.4654 108.365 94.5073 108.394 94.5439C108.423 94.5806 108.458 94.6113 108.498 94.6342C108.539 94.6571 108.584 94.6719 108.629 94.6776C108.676 94.6833 108.723 94.6799 108.768 94.6675C108.813 94.6552 108.854 94.6342 108.891 94.6056C108.928 94.577 108.958 94.5415 108.981 94.501C109.004 94.4607 109.018 94.4162 109.025 94.37C109.03 94.3239 109.027 94.2771 109.014 94.2323C108.804 93.4295 108.643 92.6148 108.531 91.7925Z" fill="black"/>
<path d="M105.002 94.1917C104.681 93.8673 104.181 94.3675 104.501 94.692L105.878 96.0866C106.199 96.4111 106.699 95.9109 106.379 95.5864L105.002 94.1917Z" fill="black"/>
<path d="M115.179 130.842H112.111C112.018 130.842 111.927 130.88 111.862 130.946C111.795 131.012 111.758 131.102 111.758 131.196C111.758 131.29 111.795 131.38 111.862 131.446C111.927 131.512 112.018 131.55 112.111 131.55H115.184C115.277 131.55 115.368 131.512 115.433 131.446C115.5 131.38 115.537 131.29 115.537 131.196C115.537 131.102 115.5 131.012 115.433 130.946C115.368 130.88 115.277 130.842 115.184 130.842H115.179Z" fill="black"/>
<path d="M77.5441 122.022C77.0792 113.226 75.6929 104.262 71.6649 96.4319C71.6183 96.3541 71.5436 96.297 71.4562 96.2723C71.369 96.2475 71.2755 96.257 71.1949 96.2988C70.9869 96.383 56.8169 103.704 55.6625 104.313C54.3281 100.777 52.7692 97.3284 51.1301 93.9234C49.8104 91.184 48.4948 88.5154 45.1044 88.5383C41.2065 88.5685 39.3095 93.1663 38.1665 96.8947C36.1927 102.873 35.0809 109.102 34.8645 115.394C29.7186 118.145 24.6361 121.024 19.3925 123.584C18.8538 123.833 18.337 124.125 17.847 124.459C17.3342 124.837 16.9017 125.314 16.5748 125.861C16.2479 126.408 16.0331 127.015 15.9429 127.645C15.8527 128.277 15.8889 128.919 16.0494 129.536C16.2099 130.153 16.4915 130.732 16.8777 131.239C17.3297 131.84 17.9151 132.327 18.5877 132.663C19.2604 132.999 20.0018 133.175 20.7538 133.176C20.8578 133.176 76.9409 133.194 77.0459 133.176C77.1351 133.17 77.2189 133.13 77.2806 133.065C77.3425 133 77.3782 132.915 77.3808 132.826C77.6854 129.232 77.74 125.623 77.5441 122.022ZM50.3013 110.062C51.0343 108.215 52.3243 106.642 53.9922 105.561C54.376 105.312 54.7296 105.925 54.3489 106.171C52.8319 107.15 51.656 108.575 50.9835 110.25C50.8161 110.668 50.1338 110.485 50.3013 110.062ZM46.1829 133.176C41.9074 133.241 37.8909 129.885 36.3237 125.873C35.2136 122.938 34.7754 119.792 35.0413 116.666C35.0757 116.214 35.7787 116.212 35.7485 116.666C35.0757 126.991 40.4202 132.279 46.1829 132.469C46.2293 132.471 46.2751 132.481 46.3175 132.501C46.3599 132.52 46.3979 132.548 46.4297 132.581C46.4614 132.616 46.486 132.656 46.5021 132.7C46.5184 132.743 46.5257 132.789 46.524 132.836C46.5214 132.925 46.4846 133.011 46.4211 133.074C46.3577 133.138 46.2724 133.174 46.1829 133.176Z" fill="white"/>
<path d="M52.4096 86.9731C50.7258 86.1629 38.0711 80.0914 37.4617 79.7794C37.4006 79.7463 37.3313 79.7316 37.2622 79.7371C37.193 79.7425 37.1269 79.768 37.0719 79.8102C37.0168 79.8524 36.9752 79.9097 36.9522 79.9751C36.9291 80.0406 36.9253 80.1113 36.9417 80.1788C37.2175 81.1982 37.723 82.1409 38.4195 82.9348C40.998 85.9198 44.6013 87.8304 48.5189 88.2897C49.8556 88.4151 51.2011 88.1708 52.4085 87.5836C52.4596 87.5595 52.5029 87.5215 52.5331 87.4737C52.5633 87.426 52.5792 87.3707 52.5791 87.3142C52.5972 87.2465 52.5899 87.1744 52.5587 87.1116C52.5275 87.0488 52.4745 86.9996 52.4096 86.9731Z" fill="black"/>
<path d="M16.4412 119.569C16.4304 119.515 16.4055 119.466 16.3689 119.424C16.3323 119.384 16.2854 119.355 16.2332 119.338C16.1722 119.299 16.099 119.286 16.0285 119.299C15.9579 119.314 15.8953 119.355 15.8536 119.413L5.29649 132.211C5.24953 132.261 5.21807 132.324 5.20588 132.392C5.19367 132.46 5.20124 132.529 5.22766 132.594C5.25409 132.657 5.29827 132.711 5.35492 132.751C5.41157 132.79 5.47829 132.812 5.54713 132.814C7.84241 132.863 10.0191 131.371 11.7008 129.942C13.7367 128.232 15.2866 126.017 16.1947 123.518C16.6383 122.249 16.7236 120.882 16.4412 119.569Z" fill="black"/>
<path d="M155.782 121.374C155.779 121.317 155.761 121.262 155.731 121.214C155.622 121.038 154.32 118.982 154.059 118.579C154.026 118.604 153.991 118.627 153.955 118.647C153.551 118.855 153.194 118.246 153.599 118.037C153.71 117.956 155.175 120.221 134.126 88.3282C134.077 88.2491 133.999 88.1919 133.909 88.1683C133.819 88.1446 133.723 88.1565 133.642 88.2013C131.515 89.3755 129.494 90.7326 127.602 92.2573C127.537 92.3245 127.501 92.4142 127.501 92.5074C127.501 92.6007 127.537 92.6904 127.602 92.7576C133.253 100.057 139.124 106.98 142.668 110.868C142.842 110.908 143.018 110.941 143.188 110.983C143.249 110.998 143.304 111.029 143.347 111.075C143.391 111.12 143.422 111.176 143.436 111.236C143.449 111.298 143.446 111.361 143.426 111.42C143.406 111.48 143.369 111.533 143.321 111.572C143.46 111.646 143.61 111.694 143.766 111.712C145.056 111.96 146.29 112.444 147.406 113.137C147.924 113.464 148.348 113.921 148.635 114.462C148.725 114.599 148.778 114.756 148.791 114.918C148.802 115.081 148.772 115.244 148.703 115.392C148.371 115.83 147.909 115.895 148.069 115.879C148.509 115.834 148.514 116.493 148.104 116.576C150.06 118.56 152.167 120.388 154.405 122.047C154.742 122.284 155.1 122.489 155.496 122.227C155.632 122.138 155.734 122.004 155.786 121.851C155.838 121.696 155.837 121.528 155.782 121.374Z" fill="#EAEAEA"/>
<path d="M127.245 91.1716C128.926 89.5658 130.854 88.2391 132.954 87.2414C133.365 87.047 133.006 86.4365 132.598 86.631C130.444 87.6574 128.468 89.0214 126.745 90.6714C126.415 90.9865 126.916 91.4857 127.245 91.1716Z" fill="#EAEAEA"/>
<path d="M196.759 61.256C194.943 57.6898 190.343 55.7284 184.192 58.3273C178.073 60.9138 173.376 66.3624 170.558 72.1593C166.629 80.2339 165.403 88.6506 162.997 98.4224C161.608 104.067 160.844 104.558 160.117 107.39C159.918 107.915 159.829 108.475 159.856 109.036C159.884 109.596 160.029 110.145 160.28 110.648C161.216 111.962 163.504 111.55 164.882 110.56C166.215 105.923 167.984 101.423 170.167 97.1204C171.281 95.0799 172.697 92.743 175.069 92.0192C175.568 91.8418 176.097 91.7732 176.623 91.8178C177.15 91.8625 177.661 92.0195 178.122 92.2781C178.583 92.5369 178.982 92.8912 179.294 93.3175C179.607 93.7437 179.824 94.2319 179.931 94.7492C180.324 94.3332 184.908 89.4379 186.805 87.4099C191.946 81.9166 196.947 76.1633 197.792 68.3519C198.071 65.9369 197.715 63.4909 196.759 61.256ZM183.159 82.9192C182.636 84.3524 182.009 85.7449 181.281 87.0854C181.064 87.4858 180.449 87.128 180.671 86.7287C181.371 85.4427 181.975 84.1065 182.476 82.7309C182.631 82.3066 183.315 82.4907 183.159 82.9192ZM186.091 67.2079C186.686 66.1472 187.398 65.1568 188.214 64.2553C188.52 63.9163 189.018 64.4176 188.714 64.7556C187.94 65.6128 187.264 66.5549 186.702 67.5635C186.653 67.6402 186.576 67.6949 186.488 67.7162C186.398 67.7375 186.306 67.7239 186.227 67.6781C186.148 67.6321 186.089 67.5576 186.064 67.4701C186.039 67.3825 186.049 67.2886 186.091 67.2079ZM191.88 71.8639C191.628 72.3397 191.305 72.7743 190.922 73.1525C190.772 73.3281 190.579 73.4606 190.362 73.5365C190.144 73.6123 189.91 73.6287 189.684 73.5841C188.844 73.3563 188.707 72.2924 188.821 71.5686C188.937 70.804 189.257 70.085 189.749 69.4886C189.86 69.3573 189.997 69.2493 190.151 69.1707C190.303 69.0921 190.471 69.0445 190.642 69.0306C190.814 69.0166 190.988 69.0367 191.151 69.0897C191.315 69.1425 191.467 69.2272 191.598 69.3388C191.924 69.6661 192.129 70.0938 192.18 70.5523C192.23 71.0107 192.125 71.473 191.88 71.8639ZM178.794 67.3504C178.228 68.2309 177.662 69.1121 177.095 69.994C176.849 70.3757 176.237 70.0211 176.484 69.6363L178.183 66.9936C178.429 66.612 179.041 66.9666 178.794 67.3504ZM179.239 75.6506C179.888 74.6064 180.442 73.5062 180.894 72.3632C181.06 71.9472 181.743 72.1281 181.577 72.5514C181.106 73.7528 180.527 74.9095 179.849 76.0073C179.608 76.3942 178.999 76.0385 179.239 75.6506Z" fill="#EAEAEA"/>
<path d="M126.278 89.8383C127.892 88.1267 129.838 86.7631 131.998 85.8312C132.414 85.6512 132.055 85.0408 131.642 85.2207C129.427 86.1793 127.434 87.5804 125.781 89.338C125.466 89.6688 125.965 90.168 126.278 89.8383Z" fill="#EAEAEA"/>
<path d="M136.946 110.415C143.429 111.612 143.072 111.838 143.323 111.574C143.371 111.535 143.408 111.482 143.428 111.422C143.448 111.363 143.451 111.3 143.438 111.238C143.424 111.178 143.394 111.122 143.35 111.077C143.307 111.031 143.25 111 143.19 110.985C142.738 110.881 139.753 110.218 137.134 109.737C136.689 109.65 136.498 110.333 136.946 110.415Z" fill="black"/>
<path d="M179.951 94.8116C179.85 94.287 179.637 93.7903 179.327 93.3556C179.016 92.9208 178.616 92.5584 178.152 92.2928C177.689 92.0273 177.173 91.865 176.641 91.8171C176.109 91.769 175.573 91.8366 175.069 92.015C172.697 92.743 171.28 95.0757 170.167 97.1162C168.162 101.01 166.53 105.085 165.289 109.284C163.466 114.942 162.134 119.628 158.454 126.006C158.759 125.945 160.755 125.549 161.209 125.461C161.507 125.214 161.804 124.966 162.108 124.727C167.997 120.088 172.465 115.671 176.356 108.151C177.474 105.985 178.409 103.73 179.149 101.409C179.808 99.3304 180.493 97.0018 179.951 94.8116ZM173.95 98.7833C173.257 99.6876 172.653 100.656 172.147 101.677C171.939 102.084 171.333 101.725 171.535 101.32C172.043 100.3 172.647 99.3309 173.34 98.4266C173.613 98.072 174.228 98.4224 173.95 98.7833Z" fill="#B999BE"/>
<path d="M138.32 115.734C138.229 115.711 138.133 115.725 138.053 115.771C137.972 115.816 137.912 115.891 137.885 115.981C137.872 116.026 137.869 116.072 137.874 116.118C137.881 116.165 137.895 116.209 137.918 116.249C137.941 116.29 137.971 116.325 138.008 116.354C138.045 116.382 138.087 116.403 138.131 116.416C141.427 116.869 144.766 116.927 148.076 116.588C148.546 116.471 148.523 115.833 148.032 115.883C144.8 116.216 141.54 116.165 138.32 115.734Z" fill="black"/>
<path d="M154.668 116.704C154.369 115.852 153.917 115.061 153.336 114.371C152.266 112.844 151.037 111.434 149.673 110.163C149.34 109.851 148.841 110.352 149.173 110.663C150.952 112.314 152.488 114.21 153.734 116.293C154.013 116.791 154.242 117.606 153.673 117.983C153.649 118.003 153.624 118.02 153.598 118.037C153.193 118.245 153.55 118.856 153.955 118.647C153.99 118.627 154.025 118.604 154.059 118.579C154.346 118.371 154.559 118.077 154.668 117.74C154.778 117.403 154.778 117.041 154.668 116.704Z" fill="black"/>
<path d="M161.292 78.7009C160.774 78.1745 160.069 77.8739 159.33 77.8645C158.592 77.8552 157.879 78.1379 157.348 78.651C156.071 79.899 155.788 82.187 155.718 83.9633C155.676 84.9256 155.85 85.8852 156.228 86.7713C156.426 87.2458 156.746 87.6603 157.153 87.9743C157.561 88.2883 158.043 88.4908 158.552 88.5622C160.578 88.6912 161.82 85.7136 162.391 83.7616C162.704 82.9003 162.767 81.968 162.573 81.0724C162.378 80.1768 161.934 79.3547 161.292 78.7009Z" fill="#B999BE"/>
<path d="M159.607 70.8687C158.862 66.8127 154.326 63.4587 151.787 63.6875C151.223 63.7459 150.686 63.957 150.234 64.2981C149.782 64.6392 149.432 65.0972 149.221 65.6229C147.613 69.5073 148.556 76.4649 152.508 77.9885C153.56 78.3493 154.699 78.3651 155.758 78.0337C156.819 77.7022 157.747 77.0408 158.405 76.1457C158.961 75.3981 159.356 74.5426 159.563 73.634C159.77 72.7254 159.785 71.7835 159.607 70.8687Z" fill="#B999BE"/>
<path d="M174.127 60.8628C173.76 60.5712 173.3 60.4193 172.831 60.434C172.362 60.4486 171.914 60.629 171.565 60.9429C169.987 62.3147 169.79 65.3297 171.906 65.5252C173.904 65.7082 175.54 62.2544 174.127 60.8628Z" fill="#B999BE"/>
<path d="M191.601 69.3378C191.47 69.2262 191.318 69.1415 191.154 69.0886C190.991 69.0357 190.817 69.0156 190.645 69.0296C190.474 69.0435 190.306 69.0911 190.153 69.1696C190 69.2483 189.863 69.3563 189.752 69.4876C188.599 70.8656 188.373 73.2243 189.687 73.581C189.913 73.6256 190.147 73.6092 190.365 73.5334C190.582 73.4575 190.775 73.325 190.925 73.1494C191.307 72.7719 191.629 72.3384 191.88 71.864C192.125 71.4733 192.231 71.011 192.181 70.5523C192.131 70.0936 191.926 69.6655 191.601 69.3378Z" fill="#EAEAEA"/>
<path d="M182.02 125.326C181.886 124.656 181.515 124.057 180.978 123.638C180.439 123.218 179.768 123.005 179.086 123.038C166.996 123.746 156.917 126.158 145.078 129.058C143.611 129.417 140.103 130.298 139.964 130.346C139.475 130.509 139.048 130.815 138.738 131.226C138.428 131.637 138.25 132.133 138.229 132.647C138.23 132.74 138.267 132.83 138.334 132.896C138.4 132.962 138.49 132.999 138.583 133H181.779C181.872 132.999 181.962 132.962 182.028 132.896C182.094 132.83 182.131 132.74 182.132 132.647C182.13 132.537 182.104 125.954 182.02 125.326Z" fill="#EAEAEA"/>
<path d="M155.896 97.8899C155.792 97.1723 155.432 96.2083 154.554 96.28C154.144 96.3203 153.762 96.5061 153.477 96.804C153.192 97.1018 153.023 97.4919 153.001 97.9035C152.897 98.7385 153.05 99.5855 153.441 100.331C153.528 100.506 153.655 100.659 153.811 100.777C153.967 100.894 154.149 100.973 154.341 101.008C154.566 100.998 154.784 100.932 154.976 100.814C155.169 100.697 155.328 100.533 155.439 100.338C155.867 99.598 156.028 98.7342 155.896 97.8899Z" fill="#B999BE"/>
<path d="M174.344 115.799L172.287 119.529C172.068 119.929 172.678 120.286 172.898 119.887L174.955 116.157C175.174 115.757 174.564 115.399 174.344 115.799Z" fill="black"/>
<path d="M172.147 101.677C172.653 100.656 173.258 99.6876 173.95 98.7833C174.228 98.4224 173.613 98.0699 173.34 98.4266C172.647 99.3309 172.043 100.3 171.535 101.32C171.334 101.725 171.944 102.084 172.147 101.677Z" fill="black"/>
<path d="M182.476 82.731C181.974 84.1066 181.37 85.4429 180.67 86.7287C180.453 87.1281 181.063 87.4858 181.281 87.0854C182.009 85.745 182.636 84.3524 183.158 82.9192C183.314 82.4907 182.63 82.3066 182.476 82.731Z" fill="black"/>
<path d="M180.894 72.3632C180.442 73.5062 179.887 74.6064 179.239 75.6506C178.998 76.0385 179.61 76.3942 179.849 76.0073C180.527 74.9095 181.105 73.7528 181.576 72.5514C181.743 72.1281 181.064 71.944 180.894 72.3632Z" fill="black"/>
<path d="M186.702 67.5646C187.265 66.5559 187.941 65.6139 188.714 64.7566C189.018 64.4186 188.52 63.9173 188.214 64.2564C187.398 65.1579 186.686 66.1483 186.091 67.2089C186.049 67.2895 186.039 67.3836 186.064 67.4711C186.089 67.5587 186.148 67.6332 186.227 67.6791C186.306 67.725 186.398 67.7386 186.488 67.7173C186.576 67.696 186.653 67.6413 186.702 67.5646Z" fill="black"/>
<path d="M178.183 66.9937C177.617 67.8742 177.05 68.7551 176.483 69.6363C176.237 70.0211 176.848 70.3757 177.095 69.994C177.661 69.1121 178.226 68.2309 178.793 67.3504C179.041 66.9666 178.428 66.612 178.183 66.9937Z" fill="black"/>
<path d="M181.57 103.625C181.078 104.624 180.585 105.623 180.093 106.622C179.892 107.029 180.502 107.388 180.703 106.98C181.196 105.98 181.688 104.981 182.18 103.982C182.381 103.575 181.771 103.216 181.57 103.625Z" fill="black"/>
<path d="M140.161 145.322C138.418 144.611 125.345 139.272 124.712 139.017C122.431 138.096 120.704 138.751 118.888 139.863C118.285 140.232 117.671 140.582 117.071 140.954C113.372 143.567 109.396 145.764 105.215 147.506C104.958 147.61 104.833 148 105.131 148.153C105.131 148.153 117.751 154.705 119.067 155.329C119.311 155.446 119.526 155.312 119.759 155.216C130.495 150.8 132.239 145.921 137.744 145.941C138.477 145.941 139.319 145.955 140.069 146.023C140.503 146.058 140.497 145.46 140.161 145.322Z" fill="white"/>
<path d="M159.454 140.27C145.111 135.565 145.772 135.756 145.622 135.749C139.07 135.963 140.132 135.24 134.806 135.104C131.983 135.033 127.201 135.842 126.051 138.402C126.028 138.493 126.041 138.588 126.088 138.669C126.133 138.751 126.209 138.811 126.299 138.838L141.336 144.766C141.396 144.784 141.46 144.785 141.521 144.768C141.582 144.752 141.637 144.719 141.68 144.674C143.062 143.275 144.719 142.176 146.547 141.45C147.791 141.101 149.075 140.904 150.366 140.867C153.366 140.74 156.369 140.771 159.365 140.961C159.773 140.99 159.819 140.39 159.454 140.27Z" fill="white"/>
<path d="M159.274 142.505C158.039 142.719 156.781 142.778 155.53 142.684C154.329 142.622 153.138 142.706 151.939 142.759C149.566 142.863 147.013 142.967 144.957 144.294C143.856 145.009 142.926 145.957 142.231 147.07C140.539 147.14 138.854 147.341 137.192 147.67C135.61 148.009 134.091 148.589 132.686 149.391C128.142 151.936 127.345 153.794 119.188 156.69L105.231 149.053C104.831 148.833 104.475 149.444 104.874 149.663C119.986 157.933 119.067 157.492 119.254 157.419C122.464 156.361 125.524 154.892 128.357 153.051C133.22 149.777 135.051 148.047 142.424 147.764C142.484 147.759 142.544 147.74 142.597 147.71C142.65 147.68 142.695 147.638 142.73 147.588C144.875 144.101 147.826 143.603 151.89 143.47C153.074 143.431 154.246 143.331 155.426 143.39C156.773 143.489 158.126 143.421 159.456 143.188C159.909 143.104 159.72 142.417 159.274 142.505Z" fill="#B999BE"/>
<path d="M159.266 144.787C156.864 145.394 154.384 145.026 151.944 145.152C149.744 145.266 147.376 145.338 145.475 146.569C144.417 147.272 143.477 148.139 142.692 149.138C140.912 149.371 139.104 149.531 137.345 149.889C130.793 151.223 128.15 156.468 119.412 158.504L105.151 150.872C104.75 150.656 104.392 151.267 104.795 151.482C120.164 159.709 119.214 159.258 119.459 159.223C128.292 157.101 131.054 152.156 136.723 150.754C139.115 150.161 142.918 149.974 143.155 149.68C143.862 148.804 144.676 148.019 145.576 147.345C146.49 146.747 147.521 146.35 148.599 146.177C153.934 145.345 155.709 146.371 159.454 145.469C159.544 145.444 159.621 145.384 159.668 145.303C159.714 145.22 159.726 145.125 159.701 145.034C159.676 144.944 159.616 144.867 159.535 144.82C159.453 144.774 159.356 144.762 159.266 144.787Z" fill="#B999BE"/>
<path d="M49.2811 79.6858C49.3505 78.4211 49.4197 77.1565 49.4891 75.8919C49.5141 75.4374 48.8069 75.4384 48.7819 75.8919C48.7125 77.1565 48.6433 78.4211 48.5739 79.6858C48.5489 80.1413 49.2561 80.1392 49.2811 79.6858Z" fill="black"/>
<path d="M51.1232 79.872L55.8281 76.0822C56.1817 75.7962 55.6794 75.2991 55.3279 75.582L50.624 79.3718C50.2693 79.664 50.7727 80.158 51.1232 79.872Z" fill="black"/>
<path d="M55.7094 80.0706C54.3179 80.4086 52.9295 80.757 51.539 81.1002C51.4943 81.1126 51.4523 81.1336 51.4156 81.1622C51.379 81.1908 51.3484 81.2263 51.3254 81.2667C51.3025 81.3071 51.2877 81.3516 51.282 81.3978C51.2763 81.4438 51.2796 81.4906 51.292 81.5355C51.3044 81.5803 51.3255 81.6222 51.354 81.6588C51.3826 81.6955 51.418 81.7262 51.4585 81.7491C51.499 81.7721 51.5435 81.7868 51.5895 81.7925C51.6357 81.7983 51.6825 81.7948 51.7272 81.7825C53.1188 81.4455 54.5082 81.0961 55.8976 80.7529C55.9881 80.7279 56.065 80.668 56.1114 80.5864C56.1576 80.5048 56.1696 80.4081 56.1446 80.3176C56.1197 80.2271 56.0599 80.1503 55.9782 80.104C55.8966 80.0576 55.7999 80.0457 55.7094 80.0706Z" fill="black"/>
<path d="M146.868 103.021C147.208 103.323 147.709 102.826 147.369 102.521C144.298 99.7692 141.956 96.3009 140.548 92.4247C140.396 91.9994 139.716 92.1824 139.866 92.613C141.296 96.6121 143.703 100.19 146.868 103.021Z" fill="black"/>
<path d="M148.779 101.111C149.118 101.413 149.619 100.915 149.279 100.612C146.204 97.864 143.859 94.3943 142.458 90.5153C142.305 90.09 141.626 90.273 141.775 90.7025C143.205 94.7018 145.613 98.28 148.779 101.111Z" fill="black"/>
<path d="M122.751 149.272C124.706 147.988 126.703 146.776 128.702 145.551C128.783 145.503 128.841 145.426 128.865 145.335C128.889 145.244 128.876 145.148 128.829 145.068C128.781 144.986 128.703 144.927 128.613 144.903C128.522 144.88 128.425 144.893 128.344 144.941C126.309 146.094 124.35 147.376 122.393 148.661C122.015 148.91 122.368 149.523 122.751 149.272Z" fill="black"/>
<path d="M99.1185 143.663C96.9534 144.604 94.6789 145.267 92.3481 145.639C89.6152 146.102 86.8247 146.113 84.0884 145.67L84.0697 145.662C81.682 145.29 79.3504 144.62 77.1298 143.667C77.0715 143.634 77.0241 143.587 76.9941 143.527C76.964 143.468 76.9526 143.4 76.9613 143.335C76.958 143.343 76.9559 143.351 76.9551 143.361C76.9774 145.767 77.6789 148.119 78.9788 150.145C80.2787 152.171 82.1241 153.788 84.3027 154.811C91.72 158.012 99.2641 151.111 99.2932 143.412C99.2841 143.464 99.2637 143.514 99.2335 143.556C99.2034 143.6 99.1642 143.636 99.1185 143.663ZM81.0163 149.427C80.4885 148.707 80.0354 147.936 79.6643 147.124C79.4771 146.708 80.0865 146.353 80.2758 146.767C80.6473 147.578 81.1002 148.35 81.6278 149.069C81.892 149.438 81.2773 149.79 81.0163 149.427Z" fill="#B999BE"/>
<path d="M120.968 148.315C123.055 147.151 125.128 145.966 127.176 144.731C127.255 144.683 127.312 144.605 127.334 144.515C127.357 144.426 127.344 144.33 127.297 144.25C127.25 144.171 127.174 144.112 127.085 144.088C126.995 144.063 126.901 144.075 126.819 144.12C124.733 145.285 122.659 146.468 120.612 147.704C120.537 147.754 120.484 147.831 120.463 147.919C120.443 148.007 120.457 148.099 120.502 148.177C120.548 148.255 120.621 148.313 120.708 148.338C120.795 148.364 120.888 148.356 120.968 148.315Z" fill="black"/>
<path d="M99.1489 143.083C98.4679 142.759 97.7657 142.481 97.047 142.251C90.5598 140.007 83.4657 140.288 77.1757 143.036C77.1152 143.061 77.0627 143.103 77.0242 143.156C76.9858 143.209 76.9629 143.271 76.958 143.337C76.9532 143.402 76.9666 143.468 76.9968 143.526C77.0269 143.584 77.0727 143.633 77.129 143.667C79.3499 144.619 81.6813 145.29 84.0689 145.662C83.9937 145.634 83.93 145.582 83.8882 145.514C83.8463 145.445 83.8286 145.365 83.838 145.285C83.8473 145.206 83.8832 145.131 83.9398 145.075C83.9964 145.018 84.0704 144.981 84.15 144.972C85.2209 144.763 86.2558 144.399 87.2222 143.892C88.6438 143.127 90.1342 141.69 91.873 141.875C92.2716 141.913 92.6563 142.041 92.9984 142.249C93.3406 142.457 93.6314 142.74 93.849 143.076C94.0279 143.459 94.077 143.889 93.9887 144.302C93.9005 144.715 93.6798 145.088 93.3602 145.364C93.3204 145.414 93.2663 145.45 93.2053 145.468C95.2443 145.128 97.2303 144.524 99.1135 143.671C99.165 143.643 99.2084 143.601 99.2398 143.552C99.2711 143.502 99.2894 143.445 99.2929 143.387C99.2964 143.328 99.2851 143.269 99.2599 143.216C99.2348 143.163 99.1965 143.117 99.1489 143.083Z" fill="#EAEAEA"/>
<path d="M92.9324 137.085C92.5756 135.698 91.2684 134.157 89.6647 134.574C89.3139 134.66 89.0049 134.868 88.7924 135.159C88.5801 135.452 88.4778 135.81 88.504 136.17C88.6028 137.256 89.8914 137.579 91.312 138.666C91.6762 138.993 92.0184 139.343 92.3364 139.715C92.403 139.78 92.4928 139.818 92.5866 139.818C92.6802 139.818 92.77 139.78 92.8367 139.715C93.392 139.024 93.1341 137.87 92.9324 137.085Z" fill="black"/>
<path d="M81.6209 149.069C81.0933 148.35 80.6403 147.578 80.2689 146.767C80.0796 146.351 79.4702 146.713 79.6574 147.124C80.0281 147.936 80.4811 148.708 81.0094 149.427C81.2766 149.79 81.8913 149.438 81.6209 149.069Z" fill="white"/>
<path d="M129.749 156.511C129.793 157.889 129.837 159.266 129.879 160.643C129.894 161.096 130.601 161.098 130.586 160.643L130.456 156.511C130.443 156.057 129.735 156.055 129.749 156.511Z" fill="black"/>
<path d="M131.703 155.307C131.663 155.33 131.628 155.361 131.6 155.399C131.571 155.435 131.551 155.478 131.539 155.523C131.527 155.567 131.524 155.614 131.531 155.661C131.538 155.707 131.552 155.75 131.576 155.791C132.364 156.813 133.15 157.836 133.937 158.857C133.986 158.936 134.064 158.993 134.154 159.017C134.244 159.041 134.34 159.028 134.422 158.984C134.503 158.936 134.562 158.859 134.585 158.767C134.609 158.677 134.596 158.58 134.549 158.499L132.187 155.434C132.138 155.355 132.061 155.298 131.97 155.274C131.88 155.25 131.784 155.263 131.703 155.307Z" fill="black"/>
<path d="M137.05 155.688C137.141 155.713 137.237 155.7 137.319 155.655C137.401 155.608 137.461 155.531 137.486 155.44C137.511 155.35 137.498 155.254 137.453 155.172C137.406 155.091 137.329 155.031 137.238 155.006C135.886 154.601 134.525 154.201 133.156 153.842C133.066 153.817 132.969 153.83 132.888 153.875C132.806 153.922 132.747 153.999 132.722 154.089C132.697 154.18 132.709 154.277 132.756 154.358C132.802 154.44 132.879 154.499 132.969 154.524C134.324 154.931 135.681 155.33 137.05 155.688Z" fill="black"/>
<path d="M93.8538 143.073C93.636 142.737 93.3452 142.454 93.0031 142.246C92.661 142.038 92.2763 141.91 91.8778 141.872C90.141 141.686 88.6486 143.12 87.2269 143.889C86.2408 144.404 85.1854 144.772 84.0934 144.983C83.7814 145.06 83.745 145.585 84.0736 145.659L84.0923 145.667C86.8286 146.11 89.6191 146.099 92.352 145.636C92.709 145.632 93.0591 145.538 93.3691 145.361C93.688 145.084 93.9078 144.711 93.9953 144.298C94.0829 143.885 94.0332 143.454 93.8538 143.073Z" fill="black"/>
<path d="M108.531 91.7925C108.475 91.3473 107.766 91.3421 107.824 91.7925C107.923 92.6802 108.093 93.5587 108.332 94.4195C108.357 94.51 108.416 94.5868 108.499 94.6333C108.58 94.6797 108.676 94.6919 108.767 94.667C108.857 94.6422 108.934 94.5825 108.981 94.5009C109.027 94.4194 109.039 94.3228 109.014 94.2323C108.798 93.431 108.636 92.6158 108.531 91.7925Z" fill="black"/>
<path d="M105.002 94.1917C104.681 93.8673 104.181 94.3675 104.501 94.692L105.878 96.0866C106.199 96.4111 106.699 95.9109 106.38 95.5864L105.002 94.1917Z" fill="black"/>
<path d="M115.179 130.842H112.111C112.021 130.848 111.935 130.887 111.873 130.953C111.811 131.018 111.776 131.106 111.776 131.196C111.776 131.288 111.811 131.375 111.873 131.44C111.935 131.506 112.021 131.545 112.111 131.551H115.183C115.274 131.545 115.359 131.506 115.422 131.44C115.484 131.375 115.519 131.288 115.519 131.196C115.519 131.106 115.484 131.018 115.422 130.953C115.359 130.887 115.274 130.848 115.183 130.842H115.179Z" fill="black"/>
<path d="M36.9424 80.184C37.2202 81.2026 37.7255 82.145 38.4202 82.94C41.0001 85.9232 44.6028 87.8334 48.5197 88.2949C49.8567 88.4249 51.2034 88.1804 52.4093 87.5888C52.4643 87.5589 52.5101 87.5148 52.5421 87.4611C52.574 87.4074 52.5908 87.346 52.5908 87.2835C52.5908 87.221 52.574 87.1597 52.5421 87.106C52.5101 87.0522 52.4643 87.0081 52.4093 86.9783C50.7255 86.1681 38.0708 80.0966 37.4613 79.7846C37.4004 79.7518 37.3313 79.7374 37.2623 79.743C37.1933 79.7486 37.1274 79.774 37.0726 79.8162C37.0178 79.8584 36.9763 79.9156 36.9532 79.9809C36.9301 80.0461 36.9264 80.1167 36.9424 80.184ZM51.3807 87.2664C47.0283 88.816 39.7483 84.8962 37.8794 80.7632L51.3807 87.2664Z" fill="black"/>
<path d="M16.4412 119.569C16.4267 119.507 16.3959 119.451 16.3521 119.407C16.3083 119.362 16.2532 119.33 16.1925 119.314C16.1319 119.297 16.068 119.298 16.0078 119.316C15.9475 119.334 15.8931 119.367 15.8504 119.413L5.29649 132.211C5.24953 132.261 5.21807 132.324 5.20588 132.392C5.19367 132.46 5.20124 132.529 5.22766 132.594C5.25409 132.657 5.29827 132.711 5.35492 132.751C5.41157 132.79 5.47829 132.812 5.54713 132.814C7.84241 132.838 10.0358 131.388 11.7008 129.942C13.7433 128.238 15.2946 126.021 16.1947 123.518C16.6408 122.25 16.7261 120.882 16.4412 119.569ZM6.34689 132.049L15.8796 120.488C16.3434 125.06 10.8356 131.21 6.34377 132.045L6.34689 132.049Z" fill="black"/>
<path d="M53.9917 105.56C52.3236 106.641 51.0338 108.213 50.3017 110.061C50.1333 110.484 50.8217 110.667 50.984 110.249C51.6652 108.579 52.8391 107.156 54.3494 106.17C54.7301 105.925 54.3765 105.312 53.9917 105.56Z" fill="black"/>
<path d="M127.245 91.1716C128.926 89.5656 130.854 88.2391 132.954 87.2425C133.365 87.047 133.007 86.4365 132.598 86.631C130.444 87.6572 128.468 89.0212 126.745 90.6713C126.415 90.9865 126.916 91.4857 127.245 91.1716Z" fill="black"/>
<path d="M131.639 85.2207C129.426 86.1803 127.432 87.5814 125.778 89.338C125.466 89.6698 125.966 90.17 126.278 89.8383C127.895 88.131 129.841 86.768 131.998 85.8312C132.413 85.6512 132.053 85.0418 131.639 85.2207Z" fill="black"/>
<path d="M201.656 67.9713C202.293 70.0329 202.234 72.2472 201.486 74.2716C200.575 76.332 199.195 78.1513 197.457 79.5849C192.569 84.2171 188.297 89.4993 189.286 96.1886C189.92 100.538 192.493 105.007 190.888 109.324C189.334 113.504 184.145 114.121 180.947 116.977C178.79 118.904 178.341 121.388 179.036 123.038C173.051 123.49 167.098 124.3 161.21 125.467C163.527 123.675 165.751 121.766 167.873 119.747C173.03 114.616 176.894 108.334 179.144 101.416C179.812 99.3231 180.515 96.903 179.932 94.745C187.817 86.3366 189.702 84.3898 191.788 81.7378C194.844 77.844 197.327 73.3564 197.8 68.3488C198.093 65.9327 197.734 63.4821 196.76 61.2518C194.975 57.7481 190.49 55.6805 184.193 58.3232C178.152 60.892 173.32 66.3728 170.56 72.1552C165.331 82.7112 164.43 96.2052 161.348 103.862C160.869 105.011 160.459 106.188 160.119 107.386C159.923 107.911 159.835 108.472 159.864 109.032C159.892 109.592 160.034 110.14 160.282 110.644C161.223 111.961 163.52 111.538 164.884 110.556C163.366 115.95 161.206 121.141 158.449 126.019C152.514 127.232 147.103 128.536 140.677 130.142C140.228 129.516 139.952 128.783 139.874 128.018C139.797 127.251 139.92 126.478 140.235 125.774C141.171 123.813 142.882 123.605 143.251 122.114C144.384 121.555 145.578 121.129 146.808 120.843C146.947 120.811 147.092 120.832 147.215 120.904C147.499 121.042 147.77 121.206 148.026 121.391C149.924 122.68 150.418 123.386 151.666 123.304C152.173 123.34 152.672 123.174 153.056 122.844C153.441 122.512 153.678 122.042 153.717 121.536C153.949 121.71 154.179 121.886 154.416 122.056C154.752 122.294 155.11 122.495 155.507 122.236C156.171 121.79 155.673 121.118 155.403 120.697C155.739 120.776 156.079 120.838 156.422 120.881C156.731 120.949 157.051 120.941 157.357 120.859C157.663 120.778 157.945 120.624 158.179 120.412C158.453 120.089 158.632 119.697 158.698 119.278C158.762 118.858 158.71 118.43 158.546 118.039C158.196 117.216 157.746 116.439 157.207 115.726C154.616 111.878 151.209 108.495 146.741 107.39L145.14 104.963C145.154 104.859 145.14 104.908 144.864 101.024C145.496 101.729 146.167 102.398 146.873 103.029C147.212 103.33 147.714 102.832 147.373 102.528C146.444 101.693 145.58 100.789 144.788 99.8244C144.734 99.0496 144.565 96.6378 144.535 96.2073C145.733 98.0203 147.161 99.67 148.783 101.115C149.121 101.418 149.624 100.918 149.284 100.615C147.372 98.9078 145.735 96.916 144.431 94.7097C144.112 90.1274 143.694 88.4697 147.18 85.1978C149.967 82.5853 151.719 80.8173 153.212 78.1934C154.183 78.3696 155.184 78.2717 156.102 77.9108C157.021 77.5498 157.82 76.94 158.412 76.1498C160.778 72.983 160.141 67.9286 155.05 64.7098C154.629 64.4393 154.183 64.2101 153.718 64.0255C152.618 58.9992 152.96 56.0466 156.74 52.5075C158.791 50.6113 161.077 48.9866 163.543 47.6736C163.943 47.4573 163.587 46.8416 163.186 47.0631C161.17 48.15 159.267 49.4349 157.504 50.8986C152.81 54.7976 151.697 57.7928 152.943 63.7821C152.206 63.576 151.418 63.6502 150.732 63.9902C150.046 64.3303 149.51 64.9123 149.227 65.624C147.599 69.4824 148.583 76.4909 152.515 77.9896C149.615 83.0398 145.12 84.9981 143.906 88.5497C143.48 90.0623 143.383 91.6481 143.618 93.2017C143.18 92.33 142.795 91.433 142.464 90.5153C142.311 90.091 141.632 90.2741 141.782 90.7036C142.305 92.1596 142.96 93.5652 143.737 94.9031L144.014 98.8395C142.549 96.885 141.384 94.7235 140.555 92.4258C140.402 92.0005 139.723 92.1835 139.873 92.6141C140.847 95.3338 142.275 97.8688 144.096 100.111C144.146 100.803 144.343 103.56 144.357 103.767C143.85 103 134.132 88.3282 134.132 88.3282C134.083 88.2489 134.005 88.1915 133.914 88.168C133.824 88.1446 133.728 88.1568 133.647 88.2024C131.52 89.3762 129.5 90.7333 127.608 92.2584C127.543 92.3256 127.507 92.4152 127.507 92.5085C127.507 92.6018 127.543 92.6915 127.608 92.7586C131.313 97.5426 135.558 102.758 139.725 107.538C136.557 108.194 129.087 110.224 125.978 111.089C125.085 106.304 123.672 101.63 121.762 97.1526C121.446 96.3853 120.906 95.7309 120.214 95.2744C118.954 94.6057 118.008 94.8324 116.325 94.6556C116.501 94.3561 116.675 94.0555 116.845 93.7518C117.337 93.8722 117.852 93.8669 118.34 93.7366C118.83 93.6064 119.279 93.3554 119.647 93.0066C120.014 92.6576 120.287 92.2222 120.442 91.7401C120.597 91.2579 120.628 90.7446 120.534 90.247C120.34 89.4734 119.939 88.7675 119.372 88.2066C119.695 87.2936 119.965 86.3635 120.183 85.4204C120.519 84.2686 120.613 83.0594 120.456 81.8698C120.217 80.7115 119.679 79.6358 118.896 78.7498C118.287 78.0454 117.546 77.4696 116.712 77.056C115.879 76.6424 114.971 76.3994 114.042 76.3413C113.113 76.2832 112.183 76.4111 111.304 76.7176C110.426 77.0239 109.617 77.5028 108.926 78.1258C108.909 76.6857 108.704 75.2541 108.316 73.867C106.175 67.5667 93.4907 64.7379 86.2367 73.1307C84.0279 75.7037 82.3586 78.6943 81.3279 81.9249C75.7338 77.6537 68.6316 80.8444 68.3747 86.7433C68.35 88.0691 68.7429 89.3691 69.4979 90.4592C68.2878 90.351 67.0682 90.4894 65.9131 90.8658C64.8303 91.2392 63.9382 92.0238 63.4295 93.0498C62.4395 95.4418 64.3437 97.786 66.796 98.5327C64.2272 99.8431 56.812 103.711 55.668 104.315C54.3337 100.779 52.7747 97.3305 51.1357 93.9255C50.5311 92.3129 49.5735 90.8559 48.3329 89.6615C47.4206 88.926 46.2807 88.531 45.1089 88.5446C42.4215 88.557 40.6931 90.8253 39.6343 93.0384C36.7589 100.158 35.1464 107.725 34.8691 115.398C29.7231 118.149 24.6407 121.029 19.397 123.588C18.8583 123.836 18.3413 124.129 17.8515 124.463C17.0385 125.074 16.438 125.923 16.1351 126.894C15.8322 127.864 15.8423 128.905 16.1637 129.869C16.4853 130.833 17.102 131.672 17.9266 132.266C18.7512 132.861 19.7418 133.18 20.7583 133.18C22.3911 133.194 105.233 133.18 107.182 133.18C113.802 135.001 119.631 133.284 122.741 130.244C129.772 128.753 135.741 125.588 142.229 122.57C141.821 122.992 141.375 123.378 140.898 123.723C139.971 124.53 139.367 125.643 139.196 126.86C139.024 128.076 139.295 129.314 139.962 130.346C139.474 130.51 139.047 130.816 138.737 131.227C138.428 131.638 138.25 132.133 138.227 132.647C138.228 132.74 138.266 132.83 138.331 132.895C138.397 132.962 138.486 132.999 138.58 133H181.776C181.87 132.999 181.958 132.961 182.025 132.895C182.09 132.83 182.129 132.74 182.13 132.647C182.065 125.456 182.084 125.842 182.02 125.33C181.91 124.792 181.649 124.297 181.267 123.902C180.884 123.508 180.396 123.232 179.862 123.107C178.91 121.384 179.709 119.251 180.991 117.92C184.898 113.864 193.316 114.22 191.949 104.348C191.013 97.6394 185.525 91.9724 197.349 80.6666C199.095 79.2228 200.573 77.4835 201.717 75.5279C202.904 73.1219 203.128 70.3534 202.341 67.7882C202.202 67.3504 201.52 67.5355 201.656 67.9713ZM149.76 73.5977C149.067 71.4537 148.977 69.1604 149.5 66.9687C149.574 66.4635 149.763 65.9821 150.053 65.5617C150.342 65.1413 150.725 64.7932 151.171 64.5445C153.875 63.7353 157.356 67.0841 158.475 69.4813C158.82 70.2722 159.007 71.1234 159.022 71.9862C159.039 72.8491 158.885 73.7066 158.569 74.5097C158.196 75.4207 157.561 76.1997 156.743 76.747C155.925 77.2941 154.962 77.5845 153.978 77.5809C151.736 77.4665 150.384 75.5643 149.76 73.5977ZM156.846 116.455C157.386 117.144 157.775 117.936 157.99 118.784C158.129 119.7 157.659 120.408 156.001 120.097C155.606 120.02 155.215 119.918 154.831 119.794C154.573 119.389 154.318 118.982 154.057 118.579C154.343 118.371 154.556 118.077 154.666 117.742C154.776 117.406 154.776 117.043 154.667 116.707C154.367 115.855 153.916 115.065 153.334 114.374C152.264 112.847 151.036 111.437 149.672 110.166C149.34 109.854 148.84 110.355 149.171 110.666C150.955 112.314 152.491 114.21 153.733 116.296C154.01 116.802 154.195 117.655 153.591 118.022C153.591 118.022 147.601 108.699 147.337 108.3C151.424 109.632 154.468 112.824 156.843 116.455H156.846ZM128.35 92.5735C130.036 91.23 131.829 90.0279 133.713 88.9793C134.657 90.3999 152.027 116.666 154.831 120.943C155.344 121.724 155.161 121.866 154.432 121.331C153.35 120.534 150.064 117.502 148.803 116.261C149.137 116.06 149.379 115.737 149.478 115.361C149.518 115.068 149.496 114.77 149.416 114.485C149.335 114.2 149.197 113.935 149.01 113.706C148.333 112.844 147.429 112.188 146.399 111.814C145.532 111.454 144.636 111.172 143.719 110.973C142.943 110.32 134.987 101.135 128.348 92.5735H128.35ZM119.015 92.5953C118.431 92.9895 117.726 93.1618 117.025 93.0815C116.325 93.001 115.677 92.6729 115.198 92.1565C114.873 91.7499 114.678 91.2552 114.637 90.7365C114.596 90.2177 114.713 89.6987 114.97 89.2467C115.228 88.7946 115.616 88.4301 116.083 88.2006C116.55 87.9711 117.074 87.8869 117.59 87.959C119.721 88.6173 120.744 91.4004 119.013 92.5953H119.015ZM63.9433 95.0269C63.4108 93.0582 65.2329 91.6115 66.9593 91.2974C68.0454 91.1135 69.1517 91.0809 70.2467 91.2007C70.316 91.199 70.3833 91.1773 70.4404 91.1382C70.4975 91.099 70.5421 91.0441 70.5686 90.9801C70.5951 90.9162 70.6025 90.8459 70.5899 90.7777C70.5772 90.7096 70.5451 90.6467 70.4974 90.5965C69.6478 89.6441 69.1439 88.4334 69.067 87.1596C68.9899 85.8858 69.3443 84.6231 70.0731 83.5754C70.8383 82.5147 71.8842 81.6885 73.0933 81.1897C74.3024 80.6909 75.6268 80.5393 76.9173 80.7518C78.5196 80.9925 80.0185 81.6901 81.2343 82.7611C81.3035 82.8262 81.3954 82.8615 81.4904 82.8593C81.5853 82.8572 81.6756 82.8178 81.7419 82.7497C82.0091 82.471 84.502 72.4433 92.6265 69.4761C97.1765 67.8589 102.707 68.4434 106.153 71.7756C108.129 73.6829 108.103 76.0864 108.246 78.9391C108.248 79.0082 108.27 79.0751 108.31 79.1319C108.349 79.1888 108.403 79.2331 108.468 79.2596C108.531 79.286 108.601 79.2935 108.67 79.2812C108.737 79.2688 108.801 79.2371 108.85 79.1897C112.942 74.4421 121.018 78.0343 119.666 84.3897C119.445 85.518 119.148 86.6299 118.775 87.7178C118.571 87.5775 118.352 87.461 118.122 87.3704C117.298 87.1056 116.404 87.1786 115.634 87.5735C114.866 87.9684 114.284 88.6527 114.019 89.4759C113.755 90.299 113.828 91.1937 114.223 91.963C114.617 92.7324 115.302 93.3134 116.125 93.5781C115.945 93.8971 115.761 94.2136 115.573 94.5277C114.982 94.4092 114.428 94.1515 113.957 93.7758C113.707 93.529 113.51 93.2341 113.377 92.909C113.243 92.5839 113.177 92.2353 113.182 91.884C113.182 89.2154 113.478 88.6985 113.166 86.9086C113.128 86.4848 112.995 86.0751 112.778 85.7095C112.559 85.344 112.263 85.032 111.908 84.7964C110.556 84.0902 109.48 85.2706 108.777 86.4978C108.761 86.1114 108.638 85.7368 108.423 85.4154C108.208 85.094 107.908 84.8384 107.557 84.6768C107.186 84.5573 106.787 84.5675 106.423 84.7057C106.06 84.8439 105.754 85.1018 105.557 85.437C104.922 86.3273 104.471 87.3343 104.228 88.4C97.5478 86.6517 91.028 88.0266 84.5363 90.4082C78.7717 92.6077 73.15 95.1649 67.7039 98.0647C66.0691 97.6165 64.4165 96.7772 63.9433 95.0269ZM76.6989 132.467C55.0295 132.467 46.6907 132.475 45.9367 132.452C43.4163 132.308 41.0531 131.18 39.3546 129.313C36.9127 126.577 35.3703 122.865 35.7489 116.664C35.777 116.21 35.0698 116.212 35.0417 116.664C34.7657 119.79 35.2041 122.939 36.324 125.871C37.491 128.822 39.7759 131.192 42.6815 132.467H21.0495C20.2893 132.519 19.5294 132.361 18.8532 132.009C18.177 131.659 17.6105 131.127 17.216 130.476C16.8214 129.824 16.6141 129.076 16.6166 128.314C16.6192 127.552 16.8317 126.805 17.2307 126.156C17.9093 125.198 18.8665 124.471 19.9721 124.076C21.1047 123.49 34.0121 116.685 35.388 115.913C35.4419 115.882 35.4865 115.838 35.5174 115.784C35.5483 115.73 35.5643 115.67 35.5638 115.607C35.7317 109.763 36.7028 103.968 38.4498 98.3871C39.4596 94.979 40.9312 90.1056 44.228 89.3391C45.2518 89.1108 46.3236 89.2624 47.244 89.7655C48.5064 90.6162 49.4768 91.8343 50.0239 93.2547C55.6306 104.782 54.8683 105.359 55.5869 105.145C55.6909 105.113 67.3243 99.0153 71.2015 97.085C75.0235 104.643 76.4129 113.531 76.8383 122.022C77.0285 125.504 76.9819 128.994 76.6989 132.469V132.467ZM78.6167 132.467C78.236 132.467 77.8346 132.436 77.4467 132.447C78.314 121.389 77.0171 106.934 71.8504 96.7606C79.1304 93.1601 88.3354 88.9689 96.0554 88.3917C98.7502 88.1767 101.462 88.4111 104.08 89.0853C103.983 89.6347 103.936 90.1916 103.938 90.7494C102.551 90.1389 100.942 89.5627 99.4853 90.1368C98.8542 90.3582 98.3174 90.7877 97.9627 91.3547C97.6082 91.9217 97.4571 92.5925 97.5342 93.2568C97.9877 95.3586 100.903 95.0248 102.214 95.2827C102.822 95.4208 103.393 95.6891 103.888 96.069C105.865 97.5075 107.39 99.4808 108.284 101.757C109.719 105.564 110.211 109.663 109.716 113.701C108.048 112.016 106.792 109.968 106.05 107.716C105.148 104.848 104.57 101.888 104.324 98.8915C104.288 98.4412 103.581 98.437 103.617 98.8915C103.875 101.836 104.43 104.748 105.275 107.581C103.294 108.238 90.949 112.396 89.8715 112.734C88.5953 109.414 87.742 105.947 87.3318 102.414C87.285 101.966 86.5779 101.962 86.6246 102.414C88.0557 115.086 95.5239 126.604 101.761 130.685C102.836 131.386 103.978 131.98 105.169 132.46L78.6167 132.467ZM104.192 131.265C101.173 129.741 98.5667 127.51 96.5951 124.763C93.8809 121.321 91.7 117.491 90.1253 113.401C92.9905 112.493 89.5845 113.566 105.503 108.258C106.346 110.723 107.801 112.934 109.73 114.684C109.909 114.832 110.28 114.817 110.322 114.528C110.898 110.671 110.61 106.732 109.48 103C108.184 98.6534 105.091 95.5698 102.996 94.7679C101.295 94.1158 98.6502 94.9322 98.2123 93.0405C98.185 92.7138 98.2369 92.3853 98.3635 92.0829C98.4903 91.7805 98.6881 91.5132 98.9403 91.3037C100.396 89.9423 102.593 90.9095 104.125 91.6063C104.179 91.6363 104.239 91.6518 104.302 91.6513C104.363 91.6508 104.423 91.6345 104.477 91.6037C104.53 91.5729 104.575 91.5288 104.606 91.4757C104.637 91.4225 104.655 91.3622 104.656 91.3006C104.487 89.217 105.123 87.1478 106.435 85.5202C106.553 85.4214 106.695 85.354 106.846 85.3242C106.998 85.2943 107.154 85.3031 107.302 85.3494C107.449 85.3957 107.582 85.4783 107.689 85.5896C107.796 85.7009 107.874 85.8372 107.914 85.9862C108.131 86.6209 108.198 87.2971 108.112 87.9622C108.079 88.3938 108.668 88.3948 108.807 88.0557C109.175 87.1499 110.367 84.5333 111.719 85.514C112.759 86.268 112.65 88.634 112.532 89.9142C112.405 91.2933 112.233 93.1091 113.334 94.1782C114.495 95.1059 115.963 95.5596 117.445 95.4481C118.147 95.4179 118.849 95.5115 119.519 95.7247C120.274 96.085 120.858 96.7273 121.145 97.5135C123.864 103.638 126.27 112.768 125.963 119.923C125.893 122.035 125.462 124.118 124.689 126.082C121.605 133.736 111.482 134.862 104.192 131.267V131.265ZM123.568 129.333C127.268 124.802 127.074 117.622 126.096 111.778C127.656 111.336 137.656 108.658 140.253 108.151C140.536 108.472 142.569 110.761 142.668 110.868C140.83 110.452 138.986 110.073 137.134 109.73C136.689 109.649 136.498 110.33 136.946 110.413C143.76 111.67 145.272 111.817 147.41 113.137C149.074 114.192 149.954 115.804 146.25 116.026C143.603 116.185 140.946 116.086 138.318 115.732C138.227 115.709 138.132 115.723 138.051 115.769C137.969 115.814 137.909 115.889 137.882 115.979C137.857 116.069 137.87 116.166 137.915 116.247C137.961 116.328 138.038 116.388 138.129 116.413C141.424 116.867 144.763 116.925 148.073 116.587L148.108 116.576C149.648 118.122 151.27 119.583 152.967 120.955C153.07 121.224 153.071 121.521 152.971 121.791C152.871 122.061 152.675 122.284 152.421 122.42C151.946 122.638 151.406 122.67 150.908 122.509C149.874 122.002 148.074 120.261 147.008 120.117C144.033 120.143 133.388 127.03 123.568 129.335V129.333ZM161.759 110.726C161.565 110.713 161.377 110.654 161.21 110.553C161.044 110.452 160.904 110.314 160.802 110.147C160.613 109.749 160.542 109.306 160.594 108.869C160.864 106.288 161.842 104.983 162.734 102.017C165.297 93.5199 166.327 84.5198 169.558 76.1873C172.546 68.0867 179.178 59.5899 187.572 58.0164C188.687 57.7604 189.843 57.7329 190.969 57.9354C192.095 58.1379 193.169 58.5662 194.124 59.1947C196.087 60.5124 196.828 62.8721 197.073 65.131C197.593 69.9577 195.76 74.699 193.138 78.6666C190.33 82.9181 187.159 85.9934 179.665 93.9931C179.292 93.1428 178.61 92.4659 177.757 92.0991C176.904 91.7323 175.943 91.703 175.069 92.0171C172.688 92.7118 171.281 95.0778 170.167 97.1183C168.163 101.012 166.53 105.086 165.29 109.286C164.852 109.782 164.305 110.17 163.694 110.42C163.081 110.671 162.419 110.776 161.759 110.728V110.726ZM171.568 96.0991C172.148 95.0711 172.919 94.1621 173.837 93.4201C175.582 92.0379 178.205 92.2157 179.063 94.3561C179.413 95.3164 179.521 96.3487 179.375 97.3606C179.243 98.4361 179.008 99.4963 178.672 100.526C176.601 107.281 172.967 113.453 168.064 118.54C164.408 122.311 162.76 123.143 159.848 125.736L159.377 125.831C165.618 114.825 166.022 105.226 171.568 96.1012V96.0991ZM181.355 125.66C181.366 125.788 181.419 132.182 181.42 132.286C181.42 132.286 139.442 132.258 138.997 132.27C139.084 131.949 139.256 131.658 139.493 131.424C139.933 131.074 140.46 130.853 141.018 130.783C153.648 127.639 166.186 124.647 179.082 123.739C179.636 123.701 180.184 123.881 180.608 124.239C181.033 124.598 181.301 125.109 181.355 125.662V125.66Z" fill="black"/>
<path d="M158.552 88.5612C160.57 88.6891 161.822 85.7064 162.391 83.7605C162.7 82.8989 162.76 81.9678 162.566 81.0733C162.372 80.1787 161.93 79.3568 161.291 78.7009C161.014 78.4159 160.678 78.1936 160.306 78.0492C159.935 77.9047 159.537 77.8415 159.14 77.8636C158.741 77.8858 158.353 77.9929 158.001 78.1777C157.648 78.3625 157.338 78.6207 157.094 78.9349C156.12 80.4259 155.639 82.1844 155.717 83.9633C155.665 84.9265 155.84 85.8884 156.228 86.7713C156.424 87.2469 156.742 87.6625 157.151 87.9766C157.559 88.2907 158.041 88.4922 158.552 88.5612ZM156.425 83.9633C156.411 82.642 156.669 81.3319 157.184 80.1153C157.413 79.5427 157.836 79.0687 158.379 78.7758C160.188 77.8305 162.251 79.9926 161.922 82.5198C161.78 83.5266 161.475 84.5038 161.021 85.4131C160.717 86.2812 160.164 87.0406 159.432 87.5971C157.939 88.5331 156.233 86.6185 156.425 83.9633Z" fill="black"/>
<path d="M171.565 60.944C169.986 62.3168 169.791 65.3307 171.906 65.5262C173.899 65.7093 175.546 62.2575 174.127 60.8639C173.76 60.5723 173.3 60.4203 172.831 60.435C172.363 60.4497 171.914 60.63 171.565 60.944ZM171.906 64.819C170.39 64.6225 171.212 62.3334 171.844 61.6533C172.046 61.4122 172.322 61.2456 172.63 61.18C172.938 61.1144 173.258 61.1536 173.541 61.2913C174.482 61.9652 173.709 64.7535 171.912 64.818L171.906 64.819Z" fill="black"/>
<path d="M189.686 73.581C189.913 73.6255 190.147 73.6091 190.364 73.5332C190.582 73.4573 190.775 73.3248 190.925 73.1494C191.307 72.7714 191.628 72.338 191.88 71.864C192.124 71.4731 192.229 71.0113 192.178 70.5531C192.127 70.0951 191.922 69.6679 191.597 69.3409C191.333 69.1159 190.988 69.0052 190.642 69.0333C190.296 69.0614 189.975 69.2259 189.75 69.4907C188.587 70.8999 188.377 73.2243 189.686 73.581ZM189.506 71.7537C189.605 71.1637 189.828 70.601 190.157 70.1022C190.218 70.0056 190.297 69.9221 190.39 69.8563C190.483 69.7906 190.588 69.7441 190.699 69.7195C190.849 69.7213 190.994 69.7682 191.115 69.8539C191.237 69.9397 191.33 70.0603 191.382 70.2C191.765 71.0548 191.044 71.996 190.486 72.5857C190.278 72.8083 189.924 73.0776 189.679 72.7573C189.495 72.4572 189.434 72.0981 189.506 71.7537Z" fill="black"/>
<path d="M154.554 96.28C154.143 96.3199 153.761 96.5056 153.476 96.8036C153.191 97.1015 153.023 97.4918 153.002 97.9035C152.897 98.7384 153.05 99.5856 153.441 100.331C153.527 100.506 153.654 100.659 153.81 100.777C153.966 100.894 154.148 100.973 154.34 101.008C154.565 100.999 154.785 100.933 154.977 100.816C155.169 100.699 155.328 100.534 155.439 100.338C155.869 99.5996 156.031 98.7342 155.895 97.8899C155.791 97.1723 155.431 96.2083 154.554 96.28ZM154.439 100.303C154.294 100.335 154.11 100.095 154.041 99.9543C153.755 99.3995 153.63 98.7752 153.683 98.1531C153.66 97.8916 153.732 97.6307 153.886 97.418C154.04 97.2052 154.265 97.0549 154.52 96.9945C154.598 96.9769 154.679 96.9845 154.752 97.0161C154.826 97.0476 154.887 97.1016 154.928 97.1703C155.659 98.3652 154.969 100.246 154.439 100.303Z" fill="black"/>
<path d="M174.344 115.799L172.287 119.529C172.068 119.929 172.678 120.285 172.898 119.887L174.955 116.157C175.174 115.757 174.564 115.399 174.344 115.799Z" fill="black"/>
<path d="M172.147 101.677C172.653 100.656 173.258 99.6876 173.95 98.7833C174.227 98.4224 173.613 98.0699 173.34 98.4266C172.647 99.3311 172.043 100.3 171.535 101.32C171.334 101.727 171.944 102.084 172.147 101.677Z" fill="black"/>
<path d="M181.281 87.0854C182.009 85.745 182.636 84.3524 183.158 82.9192C183.314 82.4907 182.629 82.3066 182.474 82.731C181.973 84.1065 181.37 85.4427 180.67 86.7287C180.453 87.1281 181.063 87.4858 181.281 87.0854Z" fill="black"/>
<path d="M179.849 76.0073C180.527 74.9093 181.105 73.7527 181.577 72.5514C181.743 72.1281 181.057 71.944 180.894 72.3632C180.442 73.5062 179.888 74.6064 179.239 75.6506C178.998 76.0385 179.608 76.3942 179.849 76.0073Z" fill="black"/>
<path d="M186.701 67.5646C187.265 66.556 187.94 65.6141 188.714 64.7566C189.017 64.4197 188.519 63.9184 188.213 64.2564C187.397 65.1582 186.686 66.1489 186.091 67.21C186.05 67.2905 186.042 67.3836 186.067 67.4701C186.093 67.5566 186.151 67.63 186.229 67.6754C186.307 67.7207 186.4 67.7344 186.487 67.7139C186.575 67.6933 186.651 67.6399 186.701 67.5646Z" fill="black"/>
<path d="M177.095 69.992C177.661 69.1101 178.226 68.2289 178.793 67.3483C179.041 66.9645 178.428 66.6099 178.183 66.9916C177.617 67.8721 177.05 68.753 176.483 69.6342C176.237 70.0201 176.848 70.3757 177.095 69.992Z" fill="black"/>
<path d="M181.57 103.625L180.093 106.622C179.892 107.029 180.502 107.388 180.703 106.98C181.196 105.98 181.688 104.981 182.18 103.982C182.381 103.575 181.771 103.216 181.57 103.625Z" fill="black"/>
<path d="M120.685 138.935C120.058 139.187 119.456 139.498 118.886 139.863C118.284 140.231 117.67 140.582 117.069 140.954C113.37 143.568 109.394 145.764 105.213 147.506C104.956 147.61 104.832 148 105.129 148.153C105.129 148.153 117.75 154.705 119.065 155.329C119.309 155.446 119.524 155.312 119.757 155.216C130.408 150.837 132.251 145.921 137.742 145.941C138.47 145.941 139.328 145.955 140.067 146.023C140.498 146.063 140.497 145.466 140.16 145.329L124.711 139.023C123.428 138.493 121.992 138.461 120.685 138.935ZM137.479 145.234C132.162 145.292 129.462 150.538 119.285 154.641L106.139 147.873C113.059 144.986 114.599 143.089 120.09 139.982C120.76 139.603 121.507 139.382 122.275 139.333C123.043 139.284 123.812 139.409 124.524 139.699L138.083 145.233C137.882 145.234 137.68 145.228 137.479 145.234Z" fill="black"/>
<path d="M129.513 135.851C128.074 136.228 126.833 137.141 126.046 138.402C126.023 138.493 126.037 138.588 126.082 138.669C126.128 138.751 126.204 138.811 126.294 138.838L141.331 144.766C141.391 144.784 141.456 144.785 141.516 144.768C141.576 144.752 141.632 144.719 141.675 144.674C143.056 143.274 144.714 142.176 146.542 141.45C147.787 141.1 149.07 140.904 150.362 140.867C153.362 140.74 156.365 140.771 159.36 140.961C159.776 140.986 159.819 140.385 159.454 140.266C144.971 135.515 145.719 135.724 145.542 135.748C138.932 136.09 135.278 134.056 129.513 135.851ZM139.256 136.194C141.348 136.472 143.46 136.56 145.567 136.458L156.774 140.134C154.712 140.061 152.645 140.053 150.587 140.152C149.225 140.182 147.869 140.369 146.55 140.711C144.598 141.429 142.821 142.554 141.338 144.013L126.902 138.32C127.579 137.523 128.466 136.933 129.462 136.615C132.611 135.467 136.005 135.792 139.256 136.194Z" fill="black"/>
<path d="M104.877 149.663C119.987 157.929 119.07 157.492 119.257 157.419C122.125 156.461 124.879 155.189 127.468 153.626C130.351 151.816 133.123 149.447 136.636 148.53C138.59 148.123 140.569 147.856 142.559 147.728C142.975 147.553 144.139 144.458 148.359 143.787C149.529 143.601 150.711 143.495 151.895 143.469C156.899 143.249 157.362 143.626 159.464 143.188C159.908 143.084 159.722 142.418 159.276 142.506C158.041 142.72 156.783 142.781 155.532 142.685C154.331 142.624 153.14 142.707 151.941 142.76C149.568 142.864 147.024 142.979 144.959 144.295C143.861 145.013 142.932 145.961 142.233 147.071C140.542 147.152 138.857 147.352 137.194 147.671C135.614 148.017 134.096 148.597 132.688 149.392C128.103 151.94 127.296 153.814 119.19 156.691L105.233 149.054C104.831 148.833 104.477 149.448 104.877 149.663Z" fill="black"/>
<path d="M104.795 151.482C119.667 159.439 119.211 159.258 119.459 159.222C128.253 157.11 131.026 152.225 136.723 150.754C139.843 150.017 142.878 150.007 143.155 149.68C144.737 147.808 146.177 146.574 148.599 146.177C153.729 145.424 156.078 146.325 159.454 145.469C159.544 145.444 159.621 145.384 159.668 145.303C159.714 145.22 159.726 145.124 159.701 145.034C159.676 144.944 159.616 144.867 159.535 144.82C159.453 144.774 159.356 144.762 159.266 144.787C156.684 145.481 154.628 144.931 150.479 145.241C148.71 145.272 146.976 145.739 145.431 146.6C144.401 147.311 143.478 148.166 142.692 149.138C140.912 149.372 139.106 149.542 137.345 149.889C130.468 151.335 128.272 156.441 119.412 158.504C118.044 157.776 106.561 151.626 105.151 150.872C104.75 150.656 104.392 151.268 104.795 151.482Z" fill="black"/>
<path d="M48.7838 75.8919C48.7146 77.1565 48.6452 78.4211 48.5758 79.6858C48.5509 80.1413 49.2581 80.1392 49.283 79.6858C49.3524 78.4211 49.4218 77.1565 49.491 75.8919C49.516 75.4374 48.8088 75.4384 48.7838 75.8919Z" fill="black"/>
<path d="M51.1237 79.872L55.8276 76.0822C56.1812 75.7962 55.6789 75.2991 55.3273 75.582L50.6234 79.3718C50.2677 79.664 50.7721 80.158 51.1237 79.872Z" fill="black"/>
<path d="M56.1296 80.3098C56.1029 80.2251 56.0453 80.1535 55.9682 80.1092C55.8913 80.0649 55.8004 80.0511 55.7136 80.0706L51.5443 81.1002C51.4538 81.1251 51.3769 81.1848 51.3306 81.2663C51.2841 81.3478 51.272 81.4445 51.2968 81.5349C51.3216 81.6254 51.3814 81.7023 51.4628 81.7488C51.5444 81.7951 51.641 81.8073 51.7315 81.7825L55.9019 80.7529C55.9908 80.7243 56.0647 80.6615 56.1075 80.5784C56.1501 80.4954 56.1581 80.3987 56.1296 80.3098Z" fill="black"/>
<path d="M122.751 149.272C124.707 147.988 126.692 146.747 128.702 145.551C128.781 145.501 128.837 145.421 128.858 145.33C128.879 145.238 128.862 145.141 128.812 145.062C128.765 144.986 128.689 144.931 128.603 144.908C128.516 144.885 128.424 144.897 128.345 144.941C126.31 146.095 124.349 147.376 122.393 148.661C122.015 148.91 122.369 149.523 122.751 149.272Z" fill="black"/>
<path d="M120.502 148.193C120.55 148.269 120.624 148.324 120.711 148.347C120.798 148.368 120.89 148.358 120.969 148.315C123.038 147.12 125.129 145.965 127.176 144.731C127.216 144.706 127.25 144.674 127.277 144.636C127.304 144.598 127.324 144.555 127.335 144.51C127.345 144.464 127.346 144.417 127.338 144.372C127.33 144.326 127.313 144.282 127.288 144.243C127.24 144.167 127.165 144.112 127.078 144.089C126.991 144.066 126.899 144.077 126.82 144.12C124.75 145.315 122.66 146.467 120.612 147.704C120.572 147.729 120.538 147.761 120.511 147.799C120.484 147.837 120.465 147.88 120.455 147.925C120.445 147.971 120.444 148.018 120.452 148.064C120.459 148.109 120.477 148.153 120.502 148.193Z" fill="black"/>
<path d="M77.187 143.029C77.1202 143.055 77.0626 143.1 77.0213 143.158C76.9801 143.217 76.9571 143.286 76.9551 143.358C76.9832 150.887 83.9813 157.519 91.1823 155.104C93.5597 154.189 95.6059 152.579 97.0533 150.484C98.5005 148.388 99.2817 145.905 99.2943 143.358C99.2927 143.304 99.2789 143.252 99.2538 143.204C99.2288 143.156 99.1932 143.114 99.1497 143.083C98.4696 142.758 97.7677 142.48 97.0489 142.251C90.5658 140.006 83.4747 140.284 77.187 143.029ZM91.7356 154.128C85.1836 157.04 78.1251 151.298 77.6872 143.892C80.9964 145.263 84.5432 145.969 88.1252 145.969C91.7072 145.969 95.254 145.263 98.5632 143.892C98.4481 146.054 97.7536 148.145 96.5523 149.946C95.351 151.746 93.6873 153.191 91.7356 154.128ZM85.9979 145.184C87.3503 144.647 88.6359 143.956 89.8292 143.123C90.2022 142.858 90.6335 142.685 91.0869 142.62C91.5402 142.556 92.0024 142.602 92.4344 142.754C92.6488 142.808 92.8438 142.921 92.9976 143.079C93.1513 143.238 93.2578 143.437 93.3049 143.653C93.3521 143.869 93.3382 144.094 93.2648 144.302C93.1912 144.511 93.0611 144.695 92.8889 144.834C90.6164 145.245 88.3004 145.363 85.9979 145.184ZM98.0348 143.359C96.69 143.876 95.309 144.293 93.9029 144.607C94.5384 143.419 93.4755 142.215 92.2951 141.93C90.578 141.467 88.9026 142.839 87.5392 143.677C86.4858 144.276 85.3465 144.709 84.1612 144.96C82.1325 144.633 80.1434 144.095 78.226 143.356C84.5834 140.808 91.6785 140.809 98.0348 143.36V143.359Z" fill="black"/>
<path d="M72.9536 144.56C73.6771 144.083 74.5286 143.835 75.3955 143.853C75.4771 143.832 75.5485 143.782 75.5965 143.712C75.6446 143.644 75.6662 143.56 75.6574 143.475C75.6485 143.392 75.6099 143.314 75.5485 143.256C75.487 143.199 75.4069 143.164 75.3227 143.161C71.8709 143.138 70.6167 145.98 71.8012 147.566C72.3641 148.228 73.1364 148.677 73.99 148.84C74.8436 149.002 75.727 148.868 76.4937 148.459C76.864 148.273 76.5977 147.757 76.2431 147.819C75.4707 148.192 74.5912 148.276 73.7616 148.06C73.3682 147.976 73.0049 147.787 72.7116 147.513C72.4182 147.237 72.2058 146.886 72.0977 146.5C72.0575 146.129 72.1154 145.756 72.2657 145.415C72.416 145.075 72.6532 144.779 72.9536 144.56Z" fill="black"/>
<path d="M90.0987 137.854C90.9585 138.323 91.7184 138.956 92.3358 139.717C92.4023 139.782 92.4922 139.82 92.5858 139.82C92.6795 139.82 92.7694 139.782 92.8359 139.717C93.3923 139.024 93.1272 137.872 92.9317 137.086C92.5646 135.701 91.2677 134.149 89.664 134.574C89.3127 134.659 89.0033 134.867 88.7907 135.159C88.5782 135.452 88.4763 135.809 88.5033 136.17C88.5782 136.997 89.4623 137.466 90.0987 137.854ZM89.2033 135.95C89.3707 134.708 91.7097 135.014 92.2505 137.274C92.3774 137.771 92.4448 138.281 92.4512 138.794C91.0628 137.249 89.0858 136.821 89.2033 135.95Z" fill="black"/>
<path d="M80.2718 146.767C80.0825 146.351 79.4731 146.713 79.6603 147.124C80.0315 147.936 80.4845 148.708 81.0123 149.427C81.2785 149.79 81.8932 149.438 81.6228 149.069C81.0952 148.35 80.6425 147.578 80.2718 146.767Z" fill="black"/>
<path d="M129.749 156.511C129.793 157.888 129.837 159.265 129.879 160.643C129.894 161.096 130.601 161.098 130.586 160.643L130.456 156.511C130.443 156.057 129.735 156.055 129.749 156.511Z" fill="black"/>
<path d="M131.703 155.307C131.663 155.33 131.628 155.361 131.6 155.399C131.571 155.435 131.551 155.478 131.539 155.523C131.527 155.567 131.524 155.614 131.531 155.661C131.538 155.707 131.552 155.75 131.576 155.791L133.938 158.857C133.987 158.936 134.064 158.993 134.154 159.017C134.244 159.04 134.34 159.028 134.421 158.984C134.461 158.961 134.496 158.93 134.525 158.892C134.553 158.856 134.573 158.813 134.585 158.768C134.596 158.724 134.6 158.677 134.593 158.63C134.586 158.584 134.571 158.541 134.548 158.5C133.761 157.478 132.974 156.455 132.187 155.434C132.138 155.355 132.061 155.298 131.97 155.274C131.88 155.25 131.784 155.263 131.703 155.307Z" fill="black"/>
<path d="M181.596 133.963H138.58C138.487 133.963 138.396 134.001 138.331 134.067C138.264 134.133 138.227 134.223 138.227 134.317C138.227 134.411 138.264 134.501 138.331 134.567C138.396 134.633 138.487 134.671 138.58 134.671H181.596C181.689 134.671 181.78 134.633 181.846 134.567C181.912 134.501 181.949 134.411 181.949 134.317C181.949 134.223 181.912 134.133 181.846 134.067C181.78 134.001 181.689 133.963 181.596 133.963Z" fill="black"/>
<path d="M137.476 155.428C137.497 155.341 137.484 155.249 137.439 155.17C137.396 155.092 137.323 155.034 137.238 155.007C135.877 154.619 134.525 154.202 133.156 153.843C133.065 153.818 132.968 153.831 132.887 153.876C132.805 153.923 132.746 154 132.721 154.091C132.696 154.18 132.707 154.277 132.754 154.359C132.8 154.44 132.877 154.5 132.967 154.525L137.049 155.689C137.141 155.711 137.237 155.695 137.317 155.646C137.397 155.598 137.454 155.52 137.476 155.428Z" fill="black"/>
</svg>
