<svg width="261" height="52" viewBox="0 0 261 52" fill="none" xmlns="http://www.w3.org/2000/svg">
<rect x="3.7627" y="4.62988" width="256.425" height="46.5397" rx="3.65017" fill="#1B1B22"/>
<rect x="0.569064" y="1.43601" width="255.512" height="45.6271" rx="3.1939" fill="white"/>
<path d="M52.382 19.3638C52.382 19.5512 52.4501 19.7173 52.5864 19.8621C52.7312 19.9984 52.8973 20.0665 53.0846 20.0665C53.2805 20.0665 53.4466 19.9984 53.5829 19.8621C53.7192 19.7173 53.7873 19.5512 53.7873 19.3638C53.7873 19.1679 53.7192 19.0019 53.5829 18.8656C53.4466 18.7293 53.2805 18.6612 53.0846 18.6612C52.8973 18.6612 52.7312 18.7293 52.5864 18.8656C52.4501 19.0019 52.382 19.1679 52.382 19.3638ZM52.5736 21.7912V27.668H53.5957V21.7912H52.5736ZM63.7493 23.963C63.7493 23.4776 63.6726 23.0645 63.5193 22.7238C63.3745 22.3746 63.1616 22.1106 62.8805 21.9317C62.5995 21.7529 62.2588 21.6634 61.8585 21.6634C61.4667 21.6634 61.1175 21.7571 60.8109 21.9445C60.5043 22.1234 60.2488 22.3959 60.0443 22.7621C59.9081 22.4129 59.6909 22.1447 59.3928 21.9573C59.1032 21.7614 58.754 21.6634 58.3452 21.6634C57.979 21.6634 57.6596 21.7443 57.387 21.9062C57.123 22.068 56.9015 22.315 56.7227 22.6472V21.7912H55.7006V27.668H56.7227V24.0908C56.7227 23.7842 56.778 23.5202 56.8888 23.2987C56.9995 23.0773 57.1571 22.9112 57.3615 22.8005C57.5659 22.6812 57.8086 22.6216 58.0897 22.6216C58.4729 22.6216 58.754 22.7408 58.9329 22.9793C59.1202 23.2178 59.2139 23.5883 59.2139 24.0908V27.668H60.236V24.0908C60.236 23.7842 60.2913 23.5202 60.4021 23.2987C60.5128 23.0773 60.6703 22.9112 60.8748 22.8005C61.0792 22.6812 61.3219 22.6216 61.603 22.6216C61.9862 22.6216 62.2673 22.7408 62.4462 22.9793C62.6335 23.2178 62.7272 23.5883 62.7272 24.0908V27.668H63.7493V23.963ZM66.6273 30.4786V21.7912H65.6052V30.4786H66.6273ZM71.5459 24.7296C71.5459 24.0908 71.4139 23.5457 71.1498 23.0943C70.8858 22.6344 70.5323 22.2809 70.0895 22.0339C69.6551 21.7869 69.1696 21.6634 68.633 21.6634C68.1476 21.6634 67.7175 21.7869 67.3427 22.0339C66.9765 22.2809 66.6869 22.6344 66.474 23.0943C66.2696 23.5457 66.1673 24.0908 66.1673 24.7296C66.1673 25.3598 66.2696 25.9049 66.474 26.3649C66.6869 26.8248 66.9765 27.1782 67.3427 27.4252C67.7175 27.6722 68.1476 27.7957 68.633 27.7957C69.1696 27.7957 69.6551 27.6722 70.0895 27.4252C70.5323 27.1782 70.8858 26.8248 71.1498 26.3649C71.4139 25.9049 71.5459 25.3598 71.5459 24.7296ZM70.5111 24.7296C70.5111 25.181 70.4174 25.5643 70.23 25.8794C70.0511 26.1945 69.8084 26.433 69.5018 26.5948C69.2037 26.7566 68.8715 26.8376 68.5053 26.8376C68.2072 26.8376 67.9133 26.7566 67.6238 26.5948C67.3342 26.433 67.0957 26.1945 66.9083 25.8794C66.721 25.5643 66.6273 25.181 66.6273 24.7296C66.6273 24.2782 66.721 23.8949 66.9083 23.5798C67.0957 23.2646 67.3342 23.0262 67.6238 22.8643C67.9133 22.7025 68.2072 22.6216 68.5053 22.6216C68.8715 22.6216 69.2037 22.7025 69.5018 22.8643C69.8084 23.0262 70.0511 23.2646 70.23 23.5798C70.4174 23.8949 70.5111 24.2782 70.5111 24.7296ZM73.9772 21.7912H72.9552V27.668H73.9772V21.7912ZM75.753 22.9154L76.3152 22.0723C76.1619 21.9104 75.9915 21.804 75.8041 21.7529C75.6253 21.6932 75.4294 21.6634 75.2165 21.6634C74.9439 21.6634 74.6756 21.7699 74.4116 21.9828C74.1476 22.1958 73.9304 22.4853 73.76 22.8516C73.5982 23.2093 73.5173 23.6224 73.5173 24.0908H73.9772C73.9772 23.8097 74.0028 23.5585 74.0539 23.337C74.1135 23.1156 74.2157 22.941 74.3605 22.8132C74.5053 22.6855 74.7054 22.6216 74.961 22.6216C75.1313 22.6216 75.2718 22.6472 75.3825 22.6983C75.4933 22.7408 75.6168 22.8132 75.753 22.9154ZM76.6362 24.7296C76.6362 25.3173 76.7682 25.8453 77.0322 26.3138C77.3047 26.7737 77.671 27.1357 78.1309 27.3997C78.5908 27.6637 79.1061 27.7957 79.6767 27.7957C80.2559 27.7957 80.7712 27.6637 81.2226 27.3997C81.6825 27.1357 82.0445 26.7737 82.3085 26.3138C82.5811 25.8453 82.7173 25.3173 82.7173 24.7296C82.7173 24.1334 82.5811 23.6053 82.3085 23.1454C82.0445 22.6855 81.6825 22.3235 81.2226 22.0595C80.7712 21.7955 80.2559 21.6634 79.6767 21.6634C79.1061 21.6634 78.5908 21.7955 78.1309 22.0595C77.671 22.3235 77.3047 22.6855 77.0322 23.1454C76.7682 23.6053 76.6362 24.1334 76.6362 24.7296ZM77.671 24.7296C77.671 24.3208 77.7561 23.9588 77.9265 23.6437C78.1053 23.32 78.3438 23.0688 78.6419 22.8899C78.9485 22.711 79.2935 22.6216 79.6767 22.6216C80.06 22.6216 80.4007 22.711 80.6988 22.8899C81.0054 23.0688 81.2439 23.32 81.4142 23.6437C81.5931 23.9588 81.6825 24.3208 81.6825 24.7296C81.6825 25.1384 81.5931 25.5004 81.4142 25.8155C81.2439 26.1306 81.0054 26.3819 80.6988 26.5693C80.4007 26.7481 80.06 26.8376 79.6767 26.8376C79.2935 26.8376 78.9485 26.7481 78.6419 26.5693C78.3438 26.3819 78.1053 26.1306 77.9265 25.8155C77.7561 25.5004 77.671 25.1384 77.671 24.7296ZM82.976 21.7912L85.7867 28.1151L88.5973 21.7912H87.4475L85.7867 25.9433L84.1258 21.7912H82.976ZM91.6479 27.7957C92.2781 27.7957 92.8232 27.6722 93.2832 27.4252C93.7516 27.1697 94.1391 26.795 94.4457 26.301L93.6153 25.7772C93.4024 26.1349 93.1426 26.4032 92.836 26.582C92.5294 26.7524 92.1759 26.8376 91.7756 26.8376C91.3753 26.8376 91.0347 26.7524 90.7536 26.582C90.4725 26.4117 90.2596 26.1647 90.1148 25.8411C89.97 25.5174 89.8976 25.1256 89.8976 24.6657C89.9061 24.2143 89.9828 23.8353 90.1276 23.5287C90.2809 23.2135 90.4938 22.9751 90.7664 22.8132C91.0474 22.6429 91.3839 22.5577 91.7756 22.5577C92.1078 22.5577 92.3974 22.6301 92.6444 22.7749C92.8914 22.9197 93.083 23.1199 93.2193 23.3754C93.3641 23.6309 93.4365 23.9332 93.4365 24.2824C93.4365 24.3421 93.4237 24.4187 93.3981 24.5124C93.3726 24.5976 93.347 24.6614 93.3215 24.704L93.7303 24.1164H89.5144V24.9851H94.5352C94.5352 24.9681 94.5352 24.9297 94.5352 24.8701C94.5437 24.802 94.5479 24.7381 94.5479 24.6785C94.5479 24.0567 94.4372 23.5202 94.2158 23.0688C93.9943 22.6173 93.6749 22.2724 93.2576 22.0339C92.8488 21.7869 92.3548 21.6634 91.7756 21.6634C91.1965 21.6634 90.6855 21.7912 90.2426 22.0467C89.8082 22.3022 89.4675 22.6599 89.2205 23.1199C88.982 23.5798 88.8628 24.1164 88.8628 24.7296C88.8628 25.3343 88.9778 25.8666 89.2077 26.3265C89.4462 26.7865 89.7741 27.1484 90.1915 27.4125C90.6173 27.668 91.1028 27.7957 91.6479 27.7957ZM100.356 17.703V27.668H101.378V17.703H100.356ZM95.4377 24.7296C95.4377 25.3598 95.5698 25.9049 95.8338 26.3649C96.0978 26.8248 96.4513 27.1782 96.8942 27.4252C97.337 27.6722 97.8225 27.7957 98.3506 27.7957C98.8446 27.7957 99.2747 27.6722 99.6409 27.4252C100.007 27.1782 100.292 26.8248 100.497 26.3649C100.71 25.9049 100.816 25.3598 100.816 24.7296C100.816 24.0908 100.71 23.5457 100.497 23.0943C100.292 22.6344 100.007 22.2809 99.6409 22.0339C99.2747 21.7869 98.8446 21.6634 98.3506 21.6634C97.8225 21.6634 97.337 21.7869 96.8942 22.0339C96.4513 22.2809 96.0978 22.6344 95.8338 23.0943C95.5698 23.5457 95.4377 24.0908 95.4377 24.7296ZM96.4726 24.7296C96.4726 24.2782 96.562 23.8949 96.7409 23.5798C96.9282 23.2646 97.1752 23.0262 97.4818 22.8643C97.7885 22.7025 98.1206 22.6216 98.4783 22.6216C98.7764 22.6216 99.0703 22.7025 99.3599 22.8643C99.6494 23.0262 99.8879 23.2646 100.075 23.5798C100.263 23.8949 100.356 24.2782 100.356 24.7296C100.356 25.181 100.263 25.5643 100.075 25.8794C99.8879 26.1945 99.6494 26.433 99.3599 26.5948C99.0703 26.7566 98.7764 26.8376 98.4783 26.8376C98.1206 26.8376 97.7885 26.7566 97.4818 26.5948C97.1752 26.433 96.9282 26.1945 96.7409 25.8794C96.562 25.5643 96.4726 25.181 96.4726 24.7296ZM107.525 25.8538C107.525 25.6409 107.576 25.4578 107.678 25.3045C107.78 25.1512 107.934 25.0319 108.138 24.9468C108.351 24.8616 108.624 24.819 108.956 24.819C109.314 24.819 109.65 24.8659 109.965 24.9595C110.28 25.0447 110.587 25.1895 110.885 25.3939V24.7935C110.825 24.7168 110.71 24.6189 110.54 24.4996C110.37 24.3719 110.14 24.2611 109.85 24.1675C109.569 24.0652 109.216 24.0141 108.79 24.0141C108.066 24.0141 107.499 24.1887 107.091 24.5379C106.69 24.8786 106.49 25.3343 106.49 25.9049C106.49 26.3052 106.584 26.6459 106.771 26.927C106.959 27.208 107.206 27.4252 107.512 27.5785C107.827 27.7233 108.164 27.7957 108.521 27.7957C108.845 27.7957 109.169 27.7361 109.492 27.6169C109.825 27.4976 110.101 27.3145 110.323 27.0675C110.553 26.8205 110.668 26.5096 110.668 26.1349L110.463 25.3684C110.463 25.675 110.387 25.9475 110.233 26.186C110.089 26.416 109.888 26.5948 109.633 26.7226C109.386 26.8503 109.105 26.9142 108.79 26.9142C108.543 26.9142 108.321 26.8759 108.125 26.7992C107.938 26.7141 107.789 26.5906 107.678 26.4287C107.576 26.2669 107.525 26.0753 107.525 25.8538ZM107.372 23.1454C107.465 23.0773 107.593 22.9964 107.755 22.9027C107.917 22.809 108.113 22.7281 108.343 22.6599C108.581 22.5918 108.845 22.5577 109.135 22.5577C109.314 22.5577 109.484 22.5748 109.646 22.6088C109.808 22.6429 109.948 22.6983 110.067 22.7749C110.195 22.8516 110.293 22.958 110.361 23.0943C110.429 23.2221 110.463 23.3881 110.463 23.5926V27.668H111.485V23.452C111.485 23.0688 111.387 22.7451 111.192 22.4811C111.004 22.217 110.736 22.0169 110.387 21.8806C110.046 21.7358 109.646 21.6634 109.186 21.6634C108.641 21.6634 108.172 21.7443 107.78 21.9062C107.397 22.068 107.095 22.2298 106.873 22.3916L107.372 23.1454ZM117.623 17.703V27.668H118.645V17.703H117.623ZM112.705 24.7296C112.705 25.3598 112.837 25.9049 113.101 26.3649C113.365 26.8248 113.718 27.1782 114.161 27.4252C114.604 27.6722 115.09 27.7957 115.618 27.7957C116.112 27.7957 116.542 27.6722 116.908 27.4252C117.274 27.1782 117.559 26.8248 117.764 26.3649C117.977 25.9049 118.083 25.3598 118.083 24.7296C118.083 24.0908 117.977 23.5457 117.764 23.0943C117.559 22.6344 117.274 22.2809 116.908 22.0339C116.542 21.7869 116.112 21.6634 115.618 21.6634C115.09 21.6634 114.604 21.7869 114.161 22.0339C113.718 22.2809 113.365 22.6344 113.101 23.0943C112.837 23.5457 112.705 24.0908 112.705 24.7296ZM113.74 24.7296C113.74 24.2782 113.829 23.8949 114.008 23.5798C114.195 23.2646 114.442 23.0262 114.749 22.8643C115.055 22.7025 115.388 22.6216 115.745 22.6216C116.043 22.6216 116.337 22.7025 116.627 22.8643C116.916 23.0262 117.155 23.2646 117.342 23.5798C117.53 23.8949 117.623 24.2782 117.623 24.7296C117.623 25.181 117.53 25.5643 117.342 25.8794C117.155 26.1945 116.916 26.433 116.627 26.5948C116.337 26.7566 116.043 26.8376 115.745 26.8376C115.388 26.8376 115.055 26.7566 114.749 26.5948C114.442 26.433 114.195 26.1945 114.008 25.8794C113.829 25.5643 113.74 25.181 113.74 24.7296ZM128.55 23.963C128.55 23.4776 128.474 23.0645 128.321 22.7238C128.176 22.3746 127.963 22.1106 127.682 21.9317C127.401 21.7529 127.06 21.6634 126.66 21.6634C126.268 21.6634 125.919 21.7571 125.612 21.9445C125.305 22.1234 125.05 22.3959 124.846 22.7621C124.709 22.4129 124.492 22.1447 124.194 21.9573C123.904 21.7614 123.555 21.6634 123.146 21.6634C122.78 21.6634 122.461 21.7443 122.188 21.9062C121.924 22.068 121.703 22.315 121.524 22.6472V21.7912H120.502V27.668H121.524V24.0908C121.524 23.7842 121.579 23.5202 121.69 23.2987C121.801 23.0773 121.958 22.9112 122.163 22.8005C122.367 22.6812 122.61 22.6216 122.891 22.6216C123.274 22.6216 123.555 22.7408 123.734 22.9793C123.921 23.2178 124.015 23.5883 124.015 24.0908V27.668H125.037V24.0908C125.037 23.7842 125.093 23.5202 125.203 23.2987C125.314 23.0773 125.472 22.9112 125.676 22.8005C125.88 22.6812 126.123 22.6216 126.404 22.6216C126.787 22.6216 127.069 22.7408 127.247 22.9793C127.435 23.2178 127.528 23.5883 127.528 24.0908V27.668H128.55V23.963ZM130.47 19.3638C130.47 19.5512 130.538 19.7173 130.675 19.8621C130.82 19.9984 130.986 20.0665 131.173 20.0665C131.369 20.0665 131.535 19.9984 131.671 19.8621C131.808 19.7173 131.876 19.5512 131.876 19.3638C131.876 19.1679 131.808 19.0019 131.671 18.8656C131.535 18.7293 131.369 18.6612 131.173 18.6612C130.986 18.6612 130.82 18.7293 130.675 18.8656C130.538 19.0019 130.47 19.1679 130.47 19.3638ZM130.662 21.7912V27.668H131.684V21.7912H130.662ZM137.558 24.0908V27.668H138.58V23.963C138.58 23.2561 138.397 22.6983 138.03 22.2894C137.673 21.8721 137.183 21.6634 136.561 21.6634C136.178 21.6634 135.837 21.7486 135.539 21.9189C135.25 22.0893 135.007 22.3533 134.811 22.711V21.7912H133.789V27.668H134.811V24.0908C134.811 23.8012 134.871 23.5457 134.99 23.3243C135.118 23.1028 135.292 22.9325 135.514 22.8132C135.744 22.6855 136.008 22.6216 136.306 22.6216C136.715 22.6216 137.025 22.7451 137.238 22.9921C137.451 23.2391 137.558 23.6053 137.558 24.0908ZM140.501 19.3638C140.501 19.5512 140.569 19.7173 140.706 19.8621C140.85 19.9984 141.016 20.0665 141.204 20.0665C141.4 20.0665 141.566 19.9984 141.702 19.8621C141.838 19.7173 141.906 19.5512 141.906 19.3638C141.906 19.1679 141.838 19.0019 141.702 18.8656C141.566 18.7293 141.4 18.6612 141.204 18.6612C141.016 18.6612 140.85 18.7293 140.706 18.8656C140.569 19.0019 140.501 19.1679 140.501 19.3638ZM140.693 21.7912V27.668H141.715V21.7912H140.693ZM144.063 25.8666L143.258 26.3649C143.368 26.5948 143.53 26.8205 143.743 27.042C143.965 27.2634 144.233 27.4465 144.548 27.5913C144.863 27.7276 145.217 27.7957 145.608 27.7957C146.213 27.7957 146.699 27.6254 147.065 27.2847C147.44 26.944 147.627 26.5182 147.627 26.0071C147.627 25.6579 147.542 25.3726 147.371 25.1512C147.21 24.9297 146.988 24.7424 146.707 24.589C146.426 24.4272 146.115 24.2782 145.775 24.1419C145.57 24.0567 145.374 23.9673 145.187 23.8736C144.999 23.7799 144.846 23.6735 144.727 23.5542C144.608 23.435 144.548 23.2987 144.548 23.1454C144.548 22.9495 144.625 22.8047 144.778 22.711C144.931 22.6173 145.114 22.5705 145.327 22.5705C145.634 22.5705 145.907 22.6429 146.145 22.7877C146.392 22.9325 146.596 23.1156 146.758 23.337L147.576 22.8132C147.457 22.5918 147.291 22.3959 147.078 22.2256C146.865 22.0552 146.618 21.9189 146.337 21.8167C146.064 21.7145 145.77 21.6634 145.455 21.6634C145.14 21.6634 144.833 21.7188 144.535 21.8295C144.246 21.9402 144.007 22.1106 143.82 22.3405C143.641 22.5705 143.552 22.8601 143.552 23.2093C143.552 23.55 143.637 23.8353 143.807 24.0652C143.986 24.2867 144.203 24.4698 144.459 24.6146C144.723 24.7509 144.982 24.8701 145.238 24.9723C145.468 25.0575 145.685 25.1512 145.889 25.2534C146.094 25.3471 146.26 25.4663 146.388 25.6111C146.524 25.7474 146.592 25.9177 146.592 26.1221C146.592 26.3521 146.507 26.5352 146.337 26.6715C146.175 26.7992 145.949 26.8631 145.66 26.8631C145.421 26.8631 145.2 26.8205 144.995 26.7353C144.799 26.6417 144.625 26.5182 144.471 26.3649C144.318 26.2116 144.182 26.0455 144.063 25.8666ZM148.078 21.7912V22.7494H151.017V21.7912H148.078ZM149.036 19.7471V27.668H150.058V19.7471H149.036ZM153.064 21.7912H152.042V27.668H153.064V21.7912ZM154.839 22.9154L155.402 22.0723C155.248 21.9104 155.078 21.804 154.891 21.7529C154.712 21.6932 154.516 21.6634 154.303 21.6634C154.03 21.6634 153.762 21.7699 153.498 21.9828C153.234 22.1958 153.017 22.4853 152.846 22.8516C152.685 23.2093 152.604 23.6224 152.604 24.0908H153.064C153.064 23.8097 153.089 23.5585 153.14 23.337C153.2 23.1156 153.302 22.941 153.447 22.8132C153.592 22.6855 153.792 22.6216 154.047 22.6216C154.218 22.6216 154.358 22.6472 154.469 22.6983C154.58 22.7408 154.703 22.8132 154.839 22.9154ZM156.881 25.8538C156.881 25.6409 156.932 25.4578 157.034 25.3045C157.136 25.1512 157.29 25.0319 157.494 24.9468C157.707 24.8616 157.979 24.819 158.312 24.819C158.669 24.819 159.006 24.8659 159.321 24.9595C159.636 25.0447 159.943 25.1895 160.241 25.3939V24.7935C160.181 24.7168 160.066 24.6189 159.896 24.4996C159.725 24.3719 159.495 24.2611 159.206 24.1675C158.925 24.0652 158.571 24.0141 158.145 24.0141C157.422 24.0141 156.855 24.1887 156.446 24.5379C156.046 24.8786 155.846 25.3343 155.846 25.9049C155.846 26.3052 155.94 26.6459 156.127 26.927C156.314 27.208 156.561 27.4252 156.868 27.5785C157.183 27.7233 157.519 27.7957 157.877 27.7957C158.201 27.7957 158.524 27.7361 158.848 27.6169C159.18 27.4976 159.457 27.3145 159.679 27.0675C159.909 26.8205 160.023 26.5096 160.023 26.1349L159.819 25.3684C159.819 25.675 159.742 25.9475 159.589 26.186C159.444 26.416 159.244 26.5948 158.989 26.7226C158.742 26.8503 158.461 26.9142 158.145 26.9142C157.898 26.9142 157.677 26.8759 157.481 26.7992C157.294 26.7141 157.145 26.5906 157.034 26.4287C156.932 26.2669 156.881 26.0753 156.881 25.8538ZM156.727 23.1454C156.821 23.0773 156.949 22.9964 157.111 22.9027C157.272 22.809 157.468 22.7281 157.698 22.6599C157.937 22.5918 158.201 22.5577 158.49 22.5577C158.669 22.5577 158.84 22.5748 159.001 22.6088C159.163 22.6429 159.304 22.6983 159.423 22.7749C159.551 22.8516 159.649 22.958 159.717 23.0943C159.785 23.2221 159.819 23.3881 159.819 23.5926V27.668H160.841V23.452C160.841 23.0688 160.743 22.7451 160.547 22.4811C160.36 22.217 160.092 22.0169 159.742 21.8806C159.402 21.7358 159.001 21.6634 158.542 21.6634C157.996 21.6634 157.528 21.7443 157.136 21.9062C156.753 22.068 156.451 22.2298 156.229 22.3916L156.727 23.1454ZM161.677 21.7912V22.7494H164.616V21.7912H161.677ZM162.635 19.7471V27.668H163.657V19.7471H162.635ZM165.641 19.3638C165.641 19.5512 165.709 19.7173 165.845 19.8621C165.99 19.9984 166.156 20.0665 166.343 20.0665C166.539 20.0665 166.705 19.9984 166.842 19.8621C166.978 19.7173 167.046 19.5512 167.046 19.3638C167.046 19.1679 166.978 19.0019 166.842 18.8656C166.705 18.7293 166.539 18.6612 166.343 18.6612C166.156 18.6612 165.99 18.7293 165.845 18.8656C165.709 19.0019 165.641 19.1679 165.641 19.3638ZM165.832 21.7912V27.668H166.854V21.7912H165.832ZM168.001 21.7912L170.812 28.1151L173.622 21.7912H172.473L170.812 25.9433L169.151 21.7912H168.001ZM176.673 27.7957C177.303 27.7957 177.848 27.6722 178.308 27.4252C178.777 27.1697 179.164 26.795 179.471 26.301L178.64 25.7772C178.428 26.1349 178.168 26.4032 177.861 26.582C177.555 26.7524 177.201 26.8376 176.801 26.8376C176.4 26.8376 176.06 26.7524 175.779 26.582C175.498 26.4117 175.285 26.1647 175.14 25.8411C174.995 25.5174 174.923 25.1256 174.923 24.6657C174.931 24.2143 175.008 23.8353 175.153 23.5287C175.306 23.2135 175.519 22.9751 175.791 22.8132C176.073 22.6429 176.409 22.5577 176.801 22.5577C177.133 22.5577 177.422 22.6301 177.669 22.7749C177.916 22.9197 178.108 23.1199 178.244 23.3754C178.389 23.6309 178.462 23.9332 178.462 24.2824C178.462 24.3421 178.449 24.4187 178.423 24.5124C178.398 24.5976 178.372 24.6614 178.347 24.704L178.755 24.1164H174.539V24.9851H179.56C179.56 24.9681 179.56 24.9297 179.56 24.8701C179.569 24.802 179.573 24.7381 179.573 24.6785C179.573 24.0567 179.462 23.5202 179.241 23.0688C179.019 22.6173 178.7 22.2724 178.283 22.0339C177.874 21.7869 177.38 21.6634 176.801 21.6634C176.222 21.6634 175.711 21.7912 175.268 22.0467C174.833 22.3022 174.493 22.6599 174.246 23.1199C174.007 23.5798 173.888 24.1164 173.888 24.7296C173.888 25.3343 174.003 25.8666 174.233 26.3265C174.471 26.7865 174.799 27.1484 175.217 27.4125C175.642 27.668 176.128 27.7957 176.673 27.7957ZM185.762 30.4786V21.7912H184.74V30.4786H185.762ZM190.681 24.7296C190.681 24.0908 190.549 23.5457 190.285 23.0943C190.021 22.6344 189.667 22.2809 189.224 22.0339C188.79 21.7869 188.305 21.6634 187.768 21.6634C187.283 21.6634 186.852 21.7869 186.478 22.0339C186.111 22.2809 185.822 22.6344 185.609 23.0943C185.405 23.5457 185.302 24.0908 185.302 24.7296C185.302 25.3598 185.405 25.9049 185.609 26.3649C185.822 26.8248 186.111 27.1782 186.478 27.4252C186.852 27.6722 187.283 27.7957 187.768 27.7957C188.305 27.7957 188.79 27.6722 189.224 27.4252C189.667 27.1782 190.021 26.8248 190.285 26.3649C190.549 25.9049 190.681 25.3598 190.681 24.7296ZM189.646 24.7296C189.646 25.181 189.552 25.5643 189.365 25.8794C189.186 26.1945 188.943 26.433 188.637 26.5948C188.339 26.7566 188.006 26.8376 187.64 26.8376C187.342 26.8376 187.048 26.7566 186.759 26.5948C186.469 26.433 186.231 26.1945 186.043 25.8794C185.856 25.5643 185.762 25.181 185.762 24.7296C185.762 24.2782 185.856 23.8949 186.043 23.5798C186.231 23.2646 186.469 23.0262 186.759 22.8643C187.048 22.7025 187.342 22.6216 187.64 22.6216C188.006 22.6216 188.339 22.7025 188.637 22.8643C188.943 23.0262 189.186 23.2646 189.365 23.5798C189.552 23.8949 189.646 24.2782 189.646 24.7296ZM193.112 21.7912H192.09V27.668H193.112V21.7912ZM194.888 22.9154L195.45 22.0723C195.297 21.9104 195.126 21.804 194.939 21.7529C194.76 21.6932 194.564 21.6634 194.351 21.6634C194.079 21.6634 193.811 21.7699 193.547 21.9828C193.283 22.1958 193.065 22.4853 192.895 22.8516C192.733 23.2093 192.652 23.6224 192.652 24.0908H193.112C193.112 23.8097 193.138 23.5585 193.189 23.337C193.248 23.1156 193.351 22.941 193.495 22.8132C193.64 22.6855 193.84 22.6216 194.096 22.6216C194.266 22.6216 194.407 22.6472 194.517 22.6983C194.628 22.7408 194.752 22.8132 194.888 22.9154ZM195.771 24.7296C195.771 25.3173 195.903 25.8453 196.167 26.3138C196.44 26.7737 196.806 27.1357 197.266 27.3997C197.726 27.6637 198.241 27.7957 198.812 27.7957C199.391 27.7957 199.906 27.6637 200.358 27.3997C200.817 27.1357 201.179 26.7737 201.443 26.3138C201.716 25.8453 201.852 25.3173 201.852 24.7296C201.852 24.1334 201.716 23.6053 201.443 23.1454C201.179 22.6855 200.817 22.3235 200.358 22.0595C199.906 21.7955 199.391 21.6634 198.812 21.6634C198.241 21.6634 197.726 21.7955 197.266 22.0595C196.806 22.3235 196.44 22.6855 196.167 23.1454C195.903 23.6053 195.771 24.1334 195.771 24.7296ZM196.806 24.7296C196.806 24.3208 196.891 23.9588 197.061 23.6437C197.24 23.32 197.479 23.0688 197.777 22.8899C198.084 22.711 198.428 22.6216 198.812 22.6216C199.195 22.6216 199.536 22.711 199.834 22.8899C200.14 23.0688 200.379 23.32 200.549 23.6437C200.728 23.9588 200.817 24.3208 200.817 24.7296C200.817 25.1384 200.728 25.5004 200.549 25.8155C200.379 26.1306 200.14 26.3819 199.834 26.5693C199.536 26.7481 199.195 26.8376 198.812 26.8376C198.428 26.8376 198.084 26.7481 197.777 26.5693C197.479 26.3819 197.24 26.1306 197.061 25.8155C196.891 25.5004 196.806 25.1384 196.806 24.7296ZM203.716 24.7296C203.716 24.3208 203.801 23.9588 203.972 23.6437C204.151 23.32 204.389 23.0688 204.687 22.8899C204.994 22.711 205.339 22.6216 205.722 22.6216C206.037 22.6216 206.331 22.6727 206.604 22.7749C206.885 22.8686 207.127 22.9964 207.332 23.1582C207.536 23.32 207.681 23.4989 207.766 23.6948V22.4172C207.562 22.1787 207.268 21.9956 206.885 21.8678C206.51 21.7316 206.122 21.6634 205.722 21.6634C205.151 21.6634 204.636 21.7955 204.176 22.0595C203.716 22.3235 203.35 22.6855 203.077 23.1454C202.813 23.6053 202.681 24.1334 202.681 24.7296C202.681 25.3173 202.813 25.8453 203.077 26.3138C203.35 26.7737 203.716 27.1357 204.176 27.3997C204.636 27.6637 205.151 27.7957 205.722 27.7957C206.122 27.7957 206.51 27.7318 206.885 27.6041C207.268 27.4678 207.562 27.2804 207.766 27.042V25.7644C207.681 25.9518 207.536 26.1306 207.332 26.301C207.127 26.4628 206.885 26.5948 206.604 26.697C206.331 26.7907 206.037 26.8376 205.722 26.8376C205.339 26.8376 204.994 26.7481 204.687 26.5693C204.389 26.3819 204.151 26.1306 203.972 25.8155C203.801 25.5004 203.716 25.1384 203.716 24.7296ZM211.631 27.7957C212.261 27.7957 212.807 27.6722 213.266 27.4252C213.735 27.1697 214.122 26.795 214.429 26.301L213.599 25.7772C213.386 26.1349 213.126 26.4032 212.819 26.582C212.513 26.7524 212.159 26.8376 211.759 26.8376C211.359 26.8376 211.018 26.7524 210.737 26.582C210.456 26.4117 210.243 26.1647 210.098 25.8411C209.953 25.5174 209.881 25.1256 209.881 24.6657C209.889 24.2143 209.966 23.8353 210.111 23.5287C210.264 23.2135 210.477 22.9751 210.75 22.8132C211.031 22.6429 211.367 22.5577 211.759 22.5577C212.091 22.5577 212.381 22.6301 212.628 22.7749C212.875 22.9197 213.066 23.1199 213.203 23.3754C213.347 23.6309 213.42 23.9332 213.42 24.2824C213.42 24.3421 213.407 24.4187 213.381 24.5124C213.356 24.5976 213.33 24.6614 213.305 24.704L213.714 24.1164H209.498V24.9851H214.518C214.518 24.9681 214.518 24.9297 214.518 24.8701C214.527 24.802 214.531 24.7381 214.531 24.6785C214.531 24.0567 214.421 23.5202 214.199 23.0688C213.978 22.6173 213.658 22.2724 213.241 22.0339C212.832 21.7869 212.338 21.6634 211.759 21.6634C211.18 21.6634 210.669 21.7912 210.226 22.0467C209.792 22.3022 209.451 22.6599 209.204 23.1199C208.965 23.5798 208.846 24.1164 208.846 24.7296C208.846 25.3343 208.961 25.8666 209.191 26.3265C209.43 26.7865 209.757 27.1484 210.175 27.4125C210.601 27.668 211.086 27.7957 211.631 27.7957ZM216.175 25.8666L215.37 26.3649C215.481 26.5948 215.643 26.8205 215.855 27.042C216.077 27.2634 216.345 27.4465 216.66 27.5913C216.975 27.7276 217.329 27.7957 217.721 27.7957C218.325 27.7957 218.811 27.6254 219.177 27.2847C219.552 26.944 219.739 26.5182 219.739 26.0071C219.739 25.6579 219.654 25.3726 219.484 25.1512C219.322 24.9297 219.1 24.7424 218.819 24.589C218.538 24.4272 218.227 24.2782 217.887 24.1419C217.682 24.0567 217.486 23.9673 217.299 23.8736C217.112 23.7799 216.958 23.6735 216.839 23.5542C216.72 23.435 216.66 23.2987 216.66 23.1454C216.66 22.9495 216.737 22.8047 216.89 22.711C217.044 22.6173 217.227 22.5705 217.44 22.5705C217.746 22.5705 218.019 22.6429 218.257 22.7877C218.504 22.9325 218.709 23.1156 218.87 23.337L219.688 22.8132C219.569 22.5918 219.403 22.3959 219.19 22.2256C218.977 22.0552 218.73 21.9189 218.449 21.8167C218.176 21.7145 217.883 21.6634 217.567 21.6634C217.252 21.6634 216.946 21.7188 216.648 21.8295C216.358 21.9402 216.119 22.1106 215.932 22.3405C215.753 22.5705 215.664 22.8601 215.664 23.2093C215.664 23.55 215.749 23.8353 215.919 24.0652C216.098 24.2867 216.315 24.4698 216.571 24.6146C216.835 24.7509 217.095 24.8701 217.35 24.9723C217.58 25.0575 217.797 25.1512 218.002 25.2534C218.206 25.3471 218.372 25.4663 218.5 25.6111C218.636 25.7474 218.704 25.9177 218.704 26.1221C218.704 26.3521 218.619 26.5352 218.449 26.6715C218.287 26.7992 218.061 26.8631 217.772 26.8631C217.533 26.8631 217.312 26.8205 217.107 26.7353C216.912 26.6417 216.737 26.5182 216.584 26.3649C216.43 26.2116 216.294 26.0455 216.175 25.8666ZM221.327 25.8666L220.523 26.3649C220.633 26.5948 220.795 26.8205 221.008 27.042C221.23 27.2634 221.498 27.4465 221.813 27.5913C222.128 27.7276 222.482 27.7957 222.873 27.7957C223.478 27.7957 223.964 27.6254 224.33 27.2847C224.705 26.944 224.892 26.5182 224.892 26.0071C224.892 25.6579 224.807 25.3726 224.636 25.1512C224.475 24.9297 224.253 24.7424 223.972 24.589C223.691 24.4272 223.38 24.2782 223.039 24.1419C222.835 24.0567 222.639 23.9673 222.452 23.8736C222.264 23.7799 222.111 23.6735 221.992 23.5542C221.873 23.435 221.813 23.2987 221.813 23.1454C221.813 22.9495 221.89 22.8047 222.043 22.711C222.196 22.6173 222.379 22.5705 222.592 22.5705C222.899 22.5705 223.171 22.6429 223.41 22.7877C223.657 22.9325 223.861 23.1156 224.023 23.337L224.841 22.8132C224.722 22.5918 224.555 22.3959 224.343 22.2256C224.13 22.0552 223.883 21.9189 223.602 21.8167C223.329 21.7145 223.035 21.6634 222.72 21.6634C222.405 21.6634 222.098 21.7188 221.8 21.8295C221.511 21.9402 221.272 22.1106 221.085 22.3405C220.906 22.5705 220.816 22.8601 220.816 23.2093C220.816 23.55 220.902 23.8353 221.072 24.0652C221.251 24.2867 221.468 24.4698 221.724 24.6146C221.988 24.7509 222.247 24.8701 222.503 24.9723C222.733 25.0575 222.95 25.1512 223.154 25.2534C223.359 25.3471 223.525 25.4663 223.653 25.6111C223.789 25.7474 223.857 25.9177 223.857 26.1221C223.857 26.3521 223.772 26.5352 223.602 26.6715C223.44 26.7992 223.214 26.8631 222.924 26.8631C222.686 26.8631 222.465 26.8205 222.26 26.7353C222.064 26.6417 221.89 26.5182 221.736 26.3649C221.583 26.2116 221.447 26.0455 221.327 25.8666ZM228.511 27.7957C229.142 27.7957 229.687 27.6722 230.147 27.4252C230.615 27.1697 231.003 26.795 231.309 26.301L230.479 25.7772C230.266 26.1349 230.006 26.4032 229.7 26.582C229.393 26.7524 229.04 26.8376 228.639 26.8376C228.239 26.8376 227.898 26.7524 227.617 26.582C227.336 26.4117 227.123 26.1647 226.978 25.8411C226.834 25.5174 226.761 25.1256 226.761 24.6657C226.77 24.2143 226.846 23.8353 226.991 23.5287C227.145 23.2135 227.357 22.9751 227.63 22.8132C227.911 22.6429 228.247 22.5577 228.639 22.5577C228.971 22.5577 229.261 22.6301 229.508 22.7749C229.755 22.9197 229.947 23.1199 230.083 23.3754C230.228 23.6309 230.3 23.9332 230.3 24.2824C230.3 24.3421 230.287 24.4187 230.262 24.5124C230.236 24.5976 230.211 24.6614 230.185 24.704L230.594 24.1164H226.378V24.9851H231.399C231.399 24.9681 231.399 24.9297 231.399 24.8701C231.407 24.802 231.412 24.7381 231.412 24.6785C231.412 24.0567 231.301 23.5202 231.079 23.0688C230.858 22.6173 230.539 22.2724 230.121 22.0339C229.712 21.7869 229.218 21.6634 228.639 21.6634C228.06 21.6634 227.549 21.7912 227.106 22.0467C226.672 22.3022 226.331 22.6599 226.084 23.1199C225.846 23.5798 225.726 24.1164 225.726 24.7296C225.726 25.3343 225.841 25.8666 226.071 26.3265C226.31 26.7865 226.638 27.1484 227.055 27.4125C227.481 27.668 227.966 27.7957 228.511 27.7957ZM233.055 25.8666L232.25 26.3649C232.361 26.5948 232.523 26.8205 232.736 27.042C232.957 27.2634 233.225 27.4465 233.541 27.5913C233.856 27.7276 234.209 27.7957 234.601 27.7957C235.206 27.7957 235.691 27.6254 236.057 27.2847C236.432 26.944 236.619 26.5182 236.619 26.0071C236.619 25.6579 236.534 25.3726 236.364 25.1512C236.202 24.9297 235.981 24.7424 235.7 24.589C235.419 24.4272 235.108 24.2782 234.767 24.1419C234.563 24.0567 234.367 23.9673 234.179 23.8736C233.992 23.7799 233.839 23.6735 233.719 23.5542C233.6 23.435 233.541 23.2987 233.541 23.1454C233.541 22.9495 233.617 22.8047 233.771 22.711C233.924 22.6173 234.107 22.5705 234.32 22.5705C234.626 22.5705 234.899 22.6429 235.138 22.7877C235.385 22.9325 235.589 23.1156 235.751 23.337L236.568 22.8132C236.449 22.5918 236.283 22.3959 236.07 22.2256C235.857 22.0552 235.61 21.9189 235.329 21.8167C235.057 21.7145 234.763 21.6634 234.448 21.6634C234.133 21.6634 233.826 21.7188 233.528 21.8295C233.238 21.9402 233 22.1106 232.812 22.3405C232.633 22.5705 232.544 22.8601 232.544 23.2093C232.544 23.55 232.629 23.8353 232.8 24.0652C232.978 24.2867 233.196 24.4698 233.451 24.6146C233.715 24.7509 233.975 24.8701 234.23 24.9723C234.46 25.0575 234.678 25.1512 234.882 25.2534C235.086 25.3471 235.252 25.4663 235.38 25.6111C235.517 25.7474 235.585 25.9177 235.585 26.1221C235.585 26.3521 235.499 26.5352 235.329 26.6715C235.167 26.7992 234.942 26.8631 234.652 26.8631C234.414 26.8631 234.192 26.8205 233.988 26.7353C233.792 26.6417 233.617 26.5182 233.464 26.3649C233.311 26.2116 233.174 26.0455 233.055 25.8666Z" fill="black"/>
<rect x="14.7134" y="9.19263" width="29.2014" height="29.2014" rx="14.6007" fill="#F4DCF2"/>
<g clip-path="url(#clip0_695_348)">
<path d="M29.3141 21.3447C30.0412 21.3447 30.7276 21.6306 31.2467 22.1497C31.7658 22.6688 32.0517 23.3552 32.0517 24.0824C32.0517 24.5849 31.9256 25.0528 31.6769 25.4732C31.4391 25.8753 31.0941 26.2157 30.6792 26.4578L30.2266 26.7219V29.2686C29.5133 29.8668 29.1157 29.8949 28.4015 29.2686V26.7219L27.9489 26.4578C27.1024 25.9638 26.5764 25.0535 26.5764 24.0824C26.5764 23.3552 26.8623 22.6689 27.3814 22.1497C27.9006 21.6306 28.5869 21.3447 29.3141 21.3447ZM29.9224 17.4055H28.7057V19.2306H29.9224V17.4055ZM33.6029 18.9416L32.508 20.0368L33.3596 20.8885L34.4548 19.7935L33.6029 18.9416ZM25.0252 18.9416L24.1733 19.7935L25.2685 20.8884L26.1202 20.0368L25.0252 18.9416ZM29.3141 20.4322C27.3066 20.4322 25.6639 22.0749 25.6639 24.0824C25.6639 25.4209 26.394 26.607 27.489 27.246V30.1811C28.975 30.9725 29.772 30.9114 31.1392 30.1811V27.246C32.2341 26.607 32.9642 25.4512 32.9642 24.0823C32.9642 22.0749 31.3215 20.4322 29.3141 20.4322ZM35.7019 23.474H33.8768V24.6907H35.7019V23.474ZM24.7514 23.474H22.9263V24.6907H24.7514V23.474Z" fill="#9B098F"/>
</g>
<rect x="0.569064" y="1.43601" width="255.512" height="45.6271" rx="3.1939" stroke="black" stroke-width="0.912543"/>
<defs>
<clipPath id="clip0_695_348">
<rect width="14.6007" height="14.6007" fill="white" transform="translate(22.0137 16.4929)"/>
</clipPath>
</defs>
</svg>
