<svg width="184" height="55" viewBox="0 0 184 55" fill="none" xmlns="http://www.w3.org/2000/svg">
<rect x="4" y="4" width="180" height="51" rx="4" fill="#DBCA74"/>
<rect x="0.5" y="0.5" width="179" height="50" rx="3.5" fill="white"/>
<path d="M18.6573 22V31.4C18.6573 32.1733 18.7773 32.8667 19.0173 33.48C19.2706 34.08 19.6239 34.5933 20.0773 35.02C20.5306 35.4467 21.0706 35.7733 21.6973 36C22.3239 36.2267 23.0106 36.34 23.7573 36.34C24.5039 36.34 25.1906 36.2267 25.8173 36C26.4439 35.7733 26.9839 35.4467 27.4373 35.02C27.9039 34.5933 28.2573 34.08 28.4973 33.48C28.7506 32.8667 28.8773 32.1733 28.8773 31.4V22H26.4973V31.3C26.4973 32.1533 26.2639 32.8467 25.7973 33.38C25.3439 33.9133 24.6639 34.18 23.7573 34.18C22.8639 34.18 22.1839 33.9133 21.7173 33.38C21.2506 32.8467 21.0173 32.1533 21.0173 31.3V22H18.6573ZM37.6223 30.4V36H39.8423V30.14C39.8423 29.0467 39.5689 28.1867 39.0223 27.56C38.4756 26.92 37.6823 26.6 36.6423 26.6C36.0156 26.6 35.4689 26.7333 35.0023 27C34.5489 27.2667 34.1756 27.6733 33.8823 28.22V26.8H31.7023V36H33.8823V30.4C33.8823 29.9867 33.9623 29.6267 34.1223 29.32C34.2956 29 34.5356 28.76 34.8423 28.6C35.1489 28.4267 35.5089 28.34 35.9223 28.34C36.4956 28.34 36.9223 28.5133 37.2023 28.86C37.4823 29.2067 37.6223 29.72 37.6223 30.4ZM42.5207 23.14C42.5207 23.5 42.654 23.8133 42.9207 24.08C43.2007 24.3333 43.5207 24.46 43.8807 24.46C44.2674 24.46 44.594 24.3333 44.8607 24.08C45.1274 23.8133 45.2607 23.5 45.2607 23.14C45.2607 22.7667 45.1274 22.4533 44.8607 22.2C44.594 21.9467 44.2674 21.82 43.8807 21.82C43.5207 21.82 43.2007 21.9467 42.9207 22.2C42.654 22.4533 42.5207 22.7667 42.5207 23.14ZM42.8207 26.8V36H44.9607V26.8H42.8207ZM47.1727 26.8V28.7H52.4527V26.8H47.1727ZM52.2327 22.72L53.2327 21.04C53.1261 20.9067 52.9794 20.7733 52.7927 20.64C52.6061 20.4933 52.3794 20.3733 52.1127 20.28C51.8461 20.1867 51.5327 20.14 51.1727 20.14C50.5194 20.14 49.9727 20.2667 49.5327 20.52C49.0927 20.7733 48.7527 21.14 48.5127 21.62C48.2861 22.0867 48.1727 22.68 48.1727 23.4V36H50.3127V23.82C50.3127 23.4333 50.3527 23.12 50.4327 22.88C50.5127 22.64 50.6194 22.4667 50.7527 22.36C50.8994 22.2533 51.0727 22.2 51.2727 22.2C51.4327 22.2 51.5994 22.2333 51.7727 22.3C51.9461 22.3667 52.0994 22.5067 52.2327 22.72ZM62.2446 26.8H59.9246L57.0446 34.02L58.0646 34.08L55.1246 26.8H52.6446L56.3646 34.92L53.9446 40.4H56.2446L62.2446 26.8ZM68.7938 26.8V28.7H74.0738V26.8H68.7938ZM73.8538 22.72L74.8538 21.04C74.7472 20.9067 74.6005 20.7733 74.4138 20.64C74.2272 20.4933 74.0005 20.3733 73.7338 20.28C73.4672 20.1867 73.1538 20.14 72.7938 20.14C72.1405 20.14 71.5938 20.2667 71.1538 20.52C70.7138 20.7733 70.3738 21.14 70.1338 21.62C69.9072 22.0867 69.7938 22.68 69.7938 23.4V36H71.9338V23.82C71.9338 23.4333 71.9738 23.12 72.0538 22.88C72.1338 22.64 72.2405 22.4667 72.3738 22.36C72.5205 22.2533 72.6938 22.2 72.8938 22.2C73.0538 22.2 73.2205 22.2333 73.3938 22.3C73.5672 22.3667 73.7205 22.5067 73.8538 22.72ZM75.0257 31.4C75.0257 32.3333 75.239 33.1667 75.6657 33.9C76.1057 34.62 76.699 35.1867 77.4457 35.6C78.2057 36 79.0524 36.2 79.9857 36.2C80.9324 36.2 81.779 36 82.5257 35.6C83.2724 35.1867 83.859 34.62 84.2857 33.9C84.7257 33.1667 84.9457 32.3333 84.9457 31.4C84.9457 30.4533 84.7257 29.62 84.2857 28.9C83.859 28.18 83.2724 27.62 82.5257 27.22C81.779 26.8067 80.9324 26.6 79.9857 26.6C79.0524 26.6 78.2057 26.8067 77.4457 27.22C76.699 27.62 76.1057 28.18 75.6657 28.9C75.239 29.62 75.0257 30.4533 75.0257 31.4ZM77.2457 31.4C77.2457 30.8267 77.3657 30.32 77.6057 29.88C77.8457 29.44 78.1724 29.1 78.5857 28.86C78.999 28.62 79.4657 28.5 79.9857 28.5C80.5057 28.5 80.9724 28.62 81.3857 28.86C81.799 29.1 82.1257 29.44 82.3657 29.88C82.6057 30.32 82.7257 30.8267 82.7257 31.4C82.7257 31.9733 82.6057 32.48 82.3657 32.92C82.1257 33.3467 81.799 33.6867 81.3857 33.94C80.9724 34.18 80.5057 34.3 79.9857 34.3C79.4657 34.3 78.999 34.18 78.5857 33.94C78.1724 33.6867 77.8457 33.3467 77.6057 32.92C77.3657 32.48 77.2457 31.9733 77.2457 31.4ZM89.1548 26.8H87.0148V36H89.1548V26.8ZM91.8948 29.1L92.9548 27.28C92.7414 27.0267 92.4881 26.8467 92.1948 26.74C91.9014 26.6333 91.5881 26.58 91.2548 26.58C90.7881 26.58 90.3348 26.7533 89.8948 27.1C89.4681 27.4333 89.1148 27.8867 88.8348 28.46C88.5681 29.02 88.4348 29.6667 88.4348 30.4L89.1548 30.82C89.1548 30.38 89.2014 30 89.2948 29.68C89.4014 29.3467 89.5681 29.0867 89.7948 28.9C90.0214 28.7133 90.3148 28.62 90.6748 28.62C90.9414 28.62 91.1614 28.66 91.3348 28.74C91.5214 28.82 91.7081 28.94 91.8948 29.1ZM100.613 22V36H102.973V22H100.613ZM102.013 24.08H104.833C105.646 24.08 106.299 24.2733 106.793 24.66C107.286 25.0333 107.533 25.5933 107.533 26.34C107.533 27.0867 107.286 27.6533 106.793 28.04C106.299 28.4267 105.646 28.62 104.833 28.62H102.013V30.7H104.833C105.859 30.7 106.746 30.5267 107.493 30.18C108.239 29.82 108.819 29.3133 109.233 28.66C109.659 28.0067 109.873 27.2333 109.873 26.34C109.873 25.4467 109.659 24.68 109.233 24.04C108.819 23.3867 108.239 22.8867 107.493 22.54C106.746 22.18 105.859 22 104.833 22H102.013V24.08ZM112.75 33.14C112.75 32.8467 112.816 32.6 112.95 32.4C113.096 32.2 113.31 32.0467 113.59 31.94C113.87 31.82 114.236 31.76 114.69 31.76C115.21 31.76 115.703 31.8267 116.17 31.96C116.636 32.0933 117.076 32.3067 117.49 32.6V31.5C117.37 31.3533 117.163 31.1933 116.87 31.02C116.576 30.8333 116.203 30.6733 115.75 30.54C115.31 30.4067 114.783 30.34 114.17 30.34C113.023 30.34 112.136 30.6067 111.51 31.14C110.883 31.66 110.57 32.3667 110.57 33.26C110.57 33.8867 110.716 34.42 111.01 34.86C111.303 35.3 111.696 35.6333 112.19 35.86C112.683 36.0867 113.216 36.2 113.79 36.2C114.323 36.2 114.843 36.1067 115.35 35.92C115.87 35.72 116.296 35.42 116.63 35.02C116.976 34.62 117.15 34.1267 117.15 33.54L116.83 32.34C116.83 32.8067 116.723 33.2067 116.51 33.54C116.296 33.8733 116.01 34.1333 115.65 34.32C115.303 34.4933 114.91 34.58 114.47 34.58C114.136 34.58 113.836 34.5267 113.57 34.42C113.316 34.3133 113.116 34.1533 112.97 33.94C112.823 33.7133 112.75 33.4467 112.75 33.14ZM112.07 29.2C112.216 29.1067 112.423 28.9933 112.69 28.86C112.956 28.7133 113.276 28.5933 113.65 28.5C114.036 28.3933 114.443 28.34 114.87 28.34C115.15 28.34 115.41 28.3667 115.65 28.42C115.89 28.4733 116.096 28.56 116.27 28.68C116.456 28.8 116.596 28.9533 116.69 29.14C116.783 29.3267 116.83 29.5667 116.83 29.86V36H118.95V29.44C118.95 28.8267 118.783 28.3067 118.45 27.88C118.13 27.4533 117.676 27.1333 117.09 26.92C116.503 26.6933 115.836 26.58 115.09 26.58C114.223 26.58 113.463 26.7 112.81 26.94C112.156 27.18 111.616 27.4267 111.19 27.68L112.07 29.2ZM123.608 26.8H121.468V36H123.608V26.8ZM126.348 29.1L127.408 27.28C127.195 27.0267 126.941 26.8467 126.648 26.74C126.355 26.6333 126.041 26.58 125.708 26.58C125.241 26.58 124.788 26.7533 124.348 27.1C123.921 27.4333 123.568 27.8867 123.288 28.46C123.021 29.02 122.888 29.6667 122.888 30.4L123.608 30.82C123.608 30.38 123.655 30 123.748 29.68C123.855 29.3467 124.021 29.0867 124.248 28.9C124.475 28.7133 124.768 28.62 125.128 28.62C125.395 28.62 125.615 28.66 125.788 28.74C125.975 28.82 126.161 28.94 126.348 29.1ZM132.597 36.2C133.663 36.2 134.577 35.9933 135.337 35.58C136.097 35.1533 136.723 34.5267 137.217 33.7L135.337 32.96C135.057 33.4533 134.697 33.82 134.257 34.06C133.817 34.3 133.297 34.42 132.697 34.42C132.137 34.42 131.663 34.3 131.277 34.06C130.89 33.82 130.59 33.4667 130.377 33C130.177 32.5333 130.083 31.9733 130.097 31.32C130.097 30.6533 130.197 30.0933 130.397 29.64C130.61 29.1867 130.903 28.84 131.277 28.6C131.663 28.36 132.13 28.24 132.677 28.24C133.13 28.24 133.523 28.34 133.857 28.54C134.203 28.74 134.47 29.02 134.657 29.38C134.857 29.74 134.957 30.1667 134.957 30.66C134.957 30.7533 134.93 30.8667 134.877 31C134.837 31.1333 134.797 31.24 134.757 31.32L135.417 30.4H129.197V31.9H137.277C137.277 31.8467 137.277 31.76 137.277 31.64C137.29 31.52 137.297 31.4067 137.297 31.3C137.297 30.3133 137.117 29.4733 136.757 28.78C136.397 28.0733 135.87 27.5333 135.177 27.16C134.497 26.7867 133.67 26.6 132.697 26.6C131.723 26.6 130.877 26.8 130.157 27.2C129.437 27.5867 128.877 28.14 128.477 28.86C128.09 29.58 127.897 30.4267 127.897 31.4C127.897 32.36 128.09 33.2 128.477 33.92C128.863 34.64 129.41 35.2 130.117 35.6C130.837 36 131.663 36.2 132.597 36.2ZM145.298 30.4V36H147.518V30.14C147.518 29.0467 147.245 28.1867 146.698 27.56C146.151 26.92 145.358 26.6 144.318 26.6C143.691 26.6 143.145 26.7333 142.678 27C142.225 27.2667 141.851 27.6733 141.558 28.22V26.8H139.378V36H141.558V30.4C141.558 29.9867 141.638 29.6267 141.798 29.32C141.971 29 142.211 28.76 142.518 28.6C142.825 28.4267 143.185 28.34 143.598 28.34C144.171 28.34 144.598 28.5133 144.878 28.86C145.158 29.2067 145.298 29.72 145.298 30.4ZM148.996 26.8V28.7H154.216V26.8H148.996ZM150.556 23.6V36H152.676V23.6H150.556ZM156.126 32.96L154.866 34.24C155.133 34.5867 155.466 34.92 155.866 35.24C156.266 35.5467 156.726 35.8 157.246 36C157.766 36.1867 158.346 36.28 158.986 36.28C159.986 36.28 160.78 36.02 161.366 35.5C161.966 34.9667 162.266 34.2667 162.266 33.4C162.266 32.84 162.14 32.3867 161.886 32.04C161.633 31.6933 161.293 31.4 160.866 31.16C160.44 30.92 159.966 30.7 159.446 30.5C159.073 30.3533 158.733 30.2133 158.426 30.08C158.133 29.9467 157.893 29.8 157.706 29.64C157.533 29.4667 157.446 29.2733 157.446 29.06C157.446 28.8067 157.546 28.6133 157.746 28.48C157.946 28.3467 158.206 28.28 158.526 28.28C158.98 28.28 159.42 28.3933 159.846 28.62C160.273 28.8467 160.633 29.14 160.926 29.5L162.126 28.22C161.873 27.9133 161.566 27.64 161.206 27.4C160.846 27.16 160.44 26.9667 159.986 26.82C159.546 26.6733 159.073 26.6 158.566 26.6C158.006 26.6 157.48 26.6933 156.986 26.88C156.506 27.0533 156.12 27.3267 155.826 27.7C155.546 28.0733 155.406 28.54 155.406 29.1C155.406 29.6467 155.533 30.1 155.786 30.46C156.053 30.82 156.386 31.1133 156.786 31.34C157.2 31.5533 157.613 31.74 158.026 31.9C158.44 32.0467 158.8 32.1933 159.106 32.34C159.413 32.4733 159.653 32.64 159.826 32.84C160 33.0267 160.086 33.2533 160.086 33.52C160.086 33.8267 159.973 34.0667 159.746 34.24C159.533 34.4133 159.233 34.5 158.846 34.5C158.54 34.5 158.233 34.44 157.926 34.32C157.62 34.2 157.32 34.0267 157.026 33.8C156.733 33.5733 156.433 33.2933 156.126 32.96Z" fill="black"/>
<rect x="0.5" y="0.5" width="179" height="50" rx="3.5" stroke="black"/>
</svg>
