<svg width="209" height="209" viewBox="0 0 209 209" fill="none" xmlns="http://www.w3.org/2000/svg">
<path d="M171.269 165.379H152.302C152.17 165.896 151.916 166.372 151.562 166.77C151.207 167.168 150.763 167.476 150.266 167.667C150.344 167.78 152.857 171.409 154.028 173.114C154.297 173.409 154.474 173.778 154.533 174.173C154.533 174.412 154.46 174.646 154.324 174.845C154.19 175.043 153.997 175.195 153.774 175.282C153.55 175.369 153.306 175.386 153.073 175.332C152.839 175.279 152.627 175.155 152.464 174.979C151.953 174.431 149.741 172.165 149.342 171.756C149.09 172.069 148.789 172.34 148.451 172.558C147.286 173.215 145.963 173.535 144.628 173.482C144.906 173.837 145.11 174.244 145.227 174.679C145.343 175.115 145.371 175.569 145.307 176.015C145.244 176.462 145.091 176.89 144.858 177.276C144.625 177.661 144.317 177.996 143.951 178.259C143.026 178.956 142.005 179.516 140.92 179.921C139.562 180.443 138.219 181.008 136.861 181.538C125.053 186.136 113.08 189.973 100.624 191.62C100.624 192.044 100.644 192.497 100.644 192.497C100.645 192.599 100.686 192.696 100.758 192.767C100.829 192.839 100.926 192.88 101.027 192.881H171.266C171.367 192.88 171.465 192.839 171.536 192.767C171.608 192.696 171.648 192.599 171.65 192.497V165.763C171.648 165.663 171.608 165.565 171.537 165.494C171.466 165.422 171.369 165.381 171.269 165.379Z" fill="#EAEAEA"/>
<path d="M154.032 173.114C152.86 171.409 150.347 167.785 150.27 167.667C150.129 167.715 149.985 167.749 149.838 167.771C150.154 168.41 150.277 169.128 150.19 169.835C150.103 170.543 149.811 171.209 149.349 171.753C150.365 172.798 151.382 173.843 152.4 174.888C152.552 175.085 152.762 175.231 152.999 175.303C153.237 175.376 153.492 175.372 153.728 175.292C153.964 175.213 154.169 175.061 154.314 174.86C154.461 174.657 154.539 174.414 154.54 174.166C154.479 173.773 154.302 173.407 154.032 173.114Z" fill="#B999BE"/>
<path d="M119.542 125.449C119.497 125.383 119.427 125.339 119.349 125.324C119.271 125.309 119.19 125.326 119.124 125.37C118.893 125.527 117.014 127.091 111.661 131.509C111.591 131.582 111.553 131.678 111.553 131.78C111.553 131.88 111.591 131.977 111.661 132.05C116.111 136.857 116.537 137.716 127.859 149.575C131.709 149.307 135.562 150.051 139.034 151.734C132.166 142.141 119.63 125.563 119.542 125.449Z" fill="#B999BE"/>
<path d="M123.009 16.5642C122.413 14.7458 121.365 13.1085 119.964 11.8059C118.563 10.5032 116.853 9.57783 114.996 9.1165C112.859 8.5846 117.869 8.74553 46.0448 8.74553C45.3028 8.74553 44.5556 8.72672 43.8158 8.79569C40.9524 9.06038 38.2912 10.385 36.3537 12.5099C34.4164 14.6348 33.3426 17.4068 33.3428 20.2823V42.9808C40.6431 39.6096 47.9195 43.5911 49.1651 49.5643C55.3901 44.898 61.9746 40.7318 68.8571 37.1047C70.6733 36.2061 72.8615 35.601 74.5921 36.9804C75.2674 37.5319 75.7959 38.2421 76.1303 39.0474C76.4647 39.8528 76.5947 40.7284 76.5086 41.5962C76.0822 46.4136 70.8405 50.4358 67.0691 53.4256H123.239C123.34 53.4239 123.436 53.3829 123.507 53.3113C123.58 53.2398 123.62 53.1432 123.621 53.042V39.688H120.371C120.305 39.6867 120.239 39.6682 120.181 39.6342C120.124 39.6002 120.077 39.5517 120.043 39.4937C120.01 39.4357 119.992 39.3701 119.992 39.3032C119.991 39.2363 120.009 39.1705 120.041 39.1122C120.283 38.6942 121.7 36.2667 123.621 32.9666V24.6201C121.983 25.1531 120.361 24.0778 120.186 21.8467C120.073 20.39 120.678 17.9624 118.975 17.1745C118.621 17.0515 118.232 17.0721 117.893 17.2318C117.553 17.3916 117.29 17.6778 117.159 18.0293C116.847 18.7654 116.719 19.5671 116.789 20.3638C116.811 21.7537 116.988 23.9534 115.212 24.3463C114.514 24.5042 113.784 24.4083 113.15 24.0757C112.502 23.6656 112.026 23.0315 111.815 22.294C111.495 20.5925 111.5 18.8457 111.832 17.1463C111.891 16.6635 112.668 16.6593 112.597 17.1463C112.457 18.1641 112.371 19.1885 112.34 20.2155C112.27 21.0805 112.446 21.9478 112.847 22.7172C112.985 22.9573 113.175 23.1639 113.402 23.3218C113.63 23.4797 113.889 23.5852 114.163 23.6304C114.436 23.6756 114.716 23.6595 114.982 23.5832C115.249 23.507 115.494 23.3725 115.702 23.1895C116.576 21.574 115.351 18.9353 116.877 17.092C117.12 16.7917 117.441 16.564 117.806 16.4336C118.17 16.3031 118.563 16.275 118.941 16.3521C119.297 16.4615 119.627 16.6455 119.907 16.892C120.188 17.1385 120.412 17.4417 120.567 17.7817C121.315 19.4004 120.542 21.2302 121.202 22.8593C121.29 23.0882 121.424 23.2962 121.596 23.47C121.77 23.6437 121.977 23.7792 122.205 23.8679C122.433 23.9566 122.678 23.9963 122.922 23.9846C123.167 23.9728 123.407 23.9098 123.626 23.7998V21.551C123.719 19.8653 123.51 18.1766 123.009 16.5642ZM69.6618 20.7954L64.2142 27.3789C64.3636 27.5399 67.8717 31.3573 69.4768 33.1045C69.8101 33.4671 69.2678 34.0105 68.9355 33.6458C68.7087 33.3992 65.0554 29.3989 63.4367 27.6632C63.368 27.5898 63.3298 27.493 63.3298 27.3925C63.3298 27.292 63.368 27.1952 63.4367 27.1219C63.6708 26.8408 67.4589 22.2647 69.1204 20.2583C69.435 19.8717 69.9742 20.4161 69.6618 20.7954ZM85.8154 21.2573C85.8154 21.2573 76.6706 30.5139 73.3903 33.6803C73.3174 33.7469 73.2215 33.7827 73.1228 33.7804C73.0241 33.7781 72.9301 33.7379 72.8603 33.668C72.7906 33.598 72.7505 33.5039 72.7483 33.4052C72.7462 33.3065 72.7822 33.2108 72.849 33.1379C73.7487 32.2079 81.9938 23.8855 85.273 20.7139C85.3458 20.6471 85.4416 20.6111 85.5403 20.6133C85.639 20.6154 85.7331 20.6555 85.803 20.7252C85.8729 20.795 85.9132 20.8891 85.9155 20.9877C85.9178 21.0865 85.8819 21.1823 85.8154 21.2552V21.2573ZM94.8191 27.659C94.5913 27.9046 90.9275 31.8944 89.3213 33.6416C88.9869 34.0063 88.4467 33.4629 88.78 33.1003L94.0416 27.3748C93.888 27.1877 90.2566 22.8018 88.5951 20.7913C88.2816 20.414 88.8218 19.8696 89.1364 20.2499L94.8191 27.1135C94.8888 27.1868 94.9278 27.284 94.9278 27.3852C94.9278 27.4864 94.8888 27.5837 94.8191 27.6569V27.659Z" fill="white"/>
<path d="M69.1207 20.252L63.437 27.1155C63.3683 27.1889 63.3301 27.2856 63.3301 27.3862C63.3301 27.4867 63.3683 27.5835 63.437 27.6568C65.0557 29.3926 68.709 33.3928 68.9358 33.6395C69.2702 34.0031 69.8104 33.4608 69.4771 33.0981L64.2145 27.3726L69.6621 20.7891C69.9745 20.416 69.4353 19.8716 69.1207 20.252Z" fill="#B999BE"/>
<path d="M94.0414 27.3725L88.7798 33.0981C88.4465 33.4607 88.9888 34.0041 89.3211 33.6394C90.9273 31.8922 94.5911 27.9023 94.8189 27.6568C94.8881 27.5836 94.9265 27.4868 94.9265 27.3861C94.9265 27.2855 94.8881 27.1886 94.8189 27.1155L89.1383 20.2519C88.8248 19.8715 88.2845 20.416 88.597 20.7932C94.9527 28.4719 93.2347 26.3975 94.0414 27.3725Z" fill="#B999BE"/>
<path d="M123.339 60.2055C123.339 55.8364 123.367 56.0861 123.276 55.9492C123.315 56.0228 123.332 56.1065 123.323 56.1896C123.314 56.2726 123.281 56.3512 123.227 56.4153C123.227 56.4153 98.2509 85.2124 97.0095 86.6304C95.3371 88.5607 93.255 90.0932 90.9148 91.116C88.5745 92.1387 86.0355 92.6259 83.483 92.542H53.6618C53.435 93.029 53.2104 93.517 52.9805 94.005C57.5482 93.0718 59.9381 94.5985 62.4806 93.1157C62.5251 93.0906 62.5741 93.0746 62.6249 93.0687C62.6756 93.0628 62.727 93.067 62.7761 93.0811C62.8252 93.0952 62.871 93.1189 62.9109 93.1508C62.9507 93.1828 62.9838 93.2224 63.0083 93.2672C63.2108 94.4651 63.1007 95.6951 62.6885 96.838C62.5997 97.0971 62.5004 97.3521 62.3876 97.6029C62.3876 97.6029 82.1569 97.6029 84.0191 97.6029C86.6017 97.6105 89.1526 97.0354 91.482 95.92C93.8114 94.8048 95.859 93.1782 97.4724 91.1615C99.4924 88.7925 122.372 62.4627 123.025 61.7103C123.185 61.5721 123.294 61.3852 123.338 61.1784C123.356 60.8543 123.357 60.5296 123.339 60.2055Z" fill="#EAEAEA"/>
<path d="M122.957 55.7609H64.2386C61.5665 58.1017 59.1933 60.7821 58.6603 64.3111H75.1149C75.213 64.3162 75.3054 64.3587 75.373 64.43C75.4406 64.5012 75.4784 64.5958 75.4784 64.694C75.4784 64.7923 75.4406 64.8867 75.373 64.958C75.3054 65.0293 75.213 65.0719 75.1149 65.077H58.582C58.4103 66.2919 58.6928 67.5273 59.3757 68.5466C60.0586 69.5659 61.0935 70.2974 62.2823 70.6009C64.4676 71.082 66.6761 71.451 68.8993 71.7065C74.4524 72.5425 76.1568 72.6606 78.0775 73.4057H87.0572C87.1553 73.4108 87.2477 73.4533 87.3153 73.5246C87.3829 73.5959 87.4206 73.6905 87.4206 73.7887C87.4206 73.8869 87.3829 73.9814 87.3153 74.0526C87.2477 74.1239 87.1553 74.1666 87.0572 74.1717H79.4517C82.5553 76.3996 81.4058 80.9464 78.1151 82.819H97.6921C97.7903 82.8242 97.8826 82.8667 97.9503 82.938C98.0179 83.0092 98.0556 83.1038 98.0556 83.202C98.0556 83.3003 98.0179 83.3947 97.9503 83.466C97.8826 83.5373 97.7903 83.5799 97.6921 83.585H76.4682C74.7485 84.1344 72.9728 84.4898 71.1742 84.6447C66.4593 85.1163 61.7155 85.2326 56.9831 84.9927C55.9569 87.5142 54.8064 90.0985 53.6621 92.5459H83.4833C86.0361 92.6292 88.5753 92.1413 90.9155 91.1178C93.2557 90.0943 95.3378 88.5611 97.0098 86.6302C98.2512 85.21 123.228 56.4129 123.228 56.4129C123.277 56.3581 123.31 56.2903 123.323 56.2174C123.335 56.1445 123.327 56.0697 123.299 56.0013C123.27 55.9331 123.223 55.8742 123.163 55.8317C123.102 55.7891 123.031 55.7645 122.957 55.7609ZM114.283 65.077H99.3944C99.2963 65.0719 99.2039 65.0293 99.1362 64.958C99.0686 64.8867 99.0309 64.7923 99.0309 64.694C99.0309 64.5958 99.0686 64.5012 99.1362 64.43C99.2039 64.3587 99.2963 64.3162 99.3944 64.3111H114.286C114.365 64.3392 114.433 64.3911 114.482 64.4597C114.53 64.5282 114.556 64.6101 114.556 64.694C114.556 64.778 114.53 64.8598 114.482 64.9284C114.433 64.997 114.365 65.0489 114.286 65.077H114.283ZM79.9794 65.077C79.8813 65.0719 79.7889 65.0293 79.7212 64.958C79.6536 64.8867 79.6158 64.7923 79.6158 64.694C79.6158 64.5958 79.6536 64.5012 79.7212 64.43C79.7889 64.3587 79.8813 64.3162 79.9794 64.3111H94.5467C94.6448 64.3162 94.7372 64.3587 94.8048 64.43C94.8724 64.5012 94.9101 64.5958 94.9101 64.694C94.9101 64.7923 94.8724 64.8867 94.8048 64.958C94.7372 65.0293 94.6448 65.0719 94.5467 65.077H79.9794ZM91.7053 74.1685C91.6072 74.1634 91.5148 74.1208 91.4471 74.0495C91.3795 73.9782 91.3418 73.8838 91.3418 73.7855C91.3418 73.6873 91.3795 73.5927 91.4471 73.5215C91.5148 73.4502 91.6072 73.4077 91.7053 73.4026H106.146C106.244 73.4077 106.336 73.4502 106.404 73.5215C106.472 73.5927 106.51 73.6873 106.51 73.7855C106.51 73.8838 106.472 73.9782 106.404 74.0495C106.336 74.1208 106.244 74.1634 106.146 74.1685H91.7053Z" fill="#B999BE"/>
<path d="M78.0749 73.4058C76.1824 72.6566 74.1792 72.4977 68.8967 71.7067C64.5495 71.0556 63.7657 70.9752 62.2798 70.601C59.9808 70.0252 58.4028 68.0398 58.5815 65.0772C58.8124 61.2535 61.3581 58.2784 64.2381 55.761C68.6459 51.9091 75.9943 47.4083 76.5085 41.596C76.5946 40.7283 76.4647 39.8527 76.1303 39.0473C75.7959 38.2419 75.2674 37.5318 74.5919 36.9803C72.8614 35.6009 70.6732 36.2059 68.857 37.1046C61.9717 40.7271 55.3867 44.8939 49.165 49.5652C48.8018 48.0467 48.0882 46.6344 47.0816 45.4409C46.0748 44.2475 44.8029 43.3062 43.3673 42.6922C38.1225 40.3713 32.1723 42.4832 28.358 46.6392C26.6338 43.5345 22.7558 42.3892 19.3773 42.8636C15.0583 43.4708 11.8669 46.8482 9.96291 50.5674C7.76502 55.2568 6.40346 60.2942 5.93966 65.4523C5.56242 69.4568 5.71812 69.9019 5.6084 96.6174C5.60976 96.5163 5.65048 96.4199 5.72192 96.3484C5.79335 96.277 5.88986 96.2363 5.99087 96.2349C9.89812 96.2067 -6.45717 96.2349 47.5212 96.2349C49.1798 95.1488 51.0318 94.3917 52.9761 94.0049C54.7714 90.2167 56.0651 87.2343 56.9785 84.9907C61.7122 85.2316 66.4575 85.1159 71.1738 84.6448C72.9739 84.5015 74.7508 84.1465 76.4677 83.5873C81.9425 81.7188 83.0899 75.3892 78.0749 73.4058ZM40.9847 60.7519C40.8008 61.2034 40.061 61.0059 40.2459 60.5492C41.6429 57.0895 43.8519 54.0167 46.6863 51.5904C47.0593 51.2769 47.6038 51.8119 47.2276 52.1317C44.4855 54.4629 42.3443 57.4194 40.9847 60.7519ZM21.0503 56.6304C22.2953 53.8079 24.0208 51.2228 26.1499 48.9904C26.4906 48.632 27.0309 49.1744 26.6912 49.5318C24.611 51.7197 22.9261 54.252 21.7118 57.016C21.5143 57.4675 20.8539 57.0767 21.0503 56.6304Z" fill="white"/>
<path d="M150.769 161.109C147.906 157.866 144.594 155.051 140.931 152.749C134.962 149.181 129.612 149.137 122.825 150.05C118.526 150.628 111.712 151.907 111.419 152.036C111.474 152.025 111.531 152.026 111.585 152.04C111.638 152.054 111.69 152.079 111.732 152.114C111.776 152.149 111.812 152.194 111.836 152.244C111.861 152.294 111.874 152.349 111.875 152.405C111.875 152.972 112.034 172.898 111.875 189.247C111.874 189.326 111.848 189.402 111.804 189.466C111.759 189.529 111.695 189.577 111.621 189.605C117.373 188.25 123.047 186.58 128.615 184.602C135.94 182.02 138.424 180.875 140.923 179.921C142.009 179.516 143.029 178.956 143.954 178.259C144.32 177.996 144.628 177.661 144.861 177.276C145.094 176.89 145.248 176.462 145.31 176.015C145.374 175.569 145.346 175.115 145.23 174.679C145.113 174.244 144.909 173.837 144.631 173.482C145.967 173.535 147.291 173.215 148.454 172.558C149.231 172.068 149.801 171.311 150.056 170.429C150.31 169.547 150.231 168.602 149.834 167.775C150.519 167.627 151.137 167.261 151.598 166.734C152.058 166.205 152.334 165.542 152.386 164.843C152.331 163.441 151.755 162.109 150.769 161.109ZM130.157 171.531C133.78 171.784 137.39 172.168 140.988 172.681C141.087 172.708 141.169 172.773 141.219 172.862C141.269 172.949 141.283 173.054 141.256 173.152C141.227 173.248 141.161 173.33 141.074 173.38C140.986 173.429 140.883 173.444 140.784 173.42C137.257 172.915 133.714 172.54 130.157 172.293C129.668 172.263 129.666 171.497 130.157 171.531ZM133.76 160.136C133.32 159.912 133.709 159.252 134.147 159.474L146.912 165.946C147.352 166.168 146.965 166.829 146.526 166.606L133.76 160.136Z" fill="white"/>
<path d="M111.874 152.405C111.873 152.355 111.863 152.304 111.843 152.258C111.823 152.212 111.794 152.171 111.758 152.136C111.722 152.101 111.679 152.074 111.633 152.055C111.586 152.037 111.536 152.028 111.485 152.029C110.174 152.051 90.7526 156.984 81.1104 158.972C80.22 154.975 78.9487 151.074 77.3139 147.322C75.7467 143.62 73.6073 140.19 70.9739 137.153C62.1959 127.174 47.6338 125.143 34.5484 129.354C36.8132 125.253 39.0533 121.136 41.2687 117.006C40.6755 115.541 40.3856 113.971 40.4168 112.39C40.4478 110.81 40.7991 109.251 41.4495 107.81C41.8899 106.88 42.5766 106.089 43.435 105.522C43.5344 105.218 43.6589 104.922 43.8071 104.638C42.7234 103.441 43.2741 101.36 44.0422 99.9123C44.88 98.4154 46.0792 97.1519 47.5304 96.2371H5.99477C5.89367 96.2382 5.79702 96.2788 5.72553 96.3503C5.65404 96.4218 5.61339 96.5185 5.6123 96.6195C5.54856 103.3 5.22461 192.347 5.22461 192.814C5.2257 192.915 5.26635 193.011 5.33783 193.083C5.40932 193.155 5.50598 193.195 5.60708 193.196H82.2411C82.3423 193.195 82.439 193.155 82.5107 193.083C82.5824 193.011 82.6233 192.915 82.6246 192.814C82.6246 192.648 82.6246 192.483 82.6246 192.316C92.3594 192.82 102.116 191.911 111.59 189.616L111.617 189.605C111.69 189.578 111.754 189.529 111.8 189.466C111.845 189.402 111.87 189.326 111.871 189.247C111.875 189.145 111.878 152.904 111.874 152.405ZM86.859 188.1H92.1299C92.2281 188.105 92.3204 188.148 92.3881 188.219C92.4558 188.29 92.4934 188.384 92.4934 188.483C92.4934 188.582 92.4558 188.676 92.3881 188.747C92.3204 188.818 92.2281 188.861 92.1299 188.866H86.859C86.7608 188.861 86.6685 188.818 86.6008 188.747C86.5331 188.676 86.4954 188.582 86.4954 188.483C86.4954 188.384 86.5331 188.29 86.6008 188.219C86.6685 188.148 86.7608 188.105 86.859 188.1ZM80.7164 159.049C81.1982 158.952 81.403 159.691 80.9255 159.788C70.5225 161.878 65.8545 162.4 55.9082 158.811C44.8552 154.822 36.1681 150.293 25.9898 146.48C25.5321 146.307 25.7317 145.567 26.1988 145.741C37.211 149.87 53.6719 158.109 62.7738 160.064C68.7909 161.348 74.6669 160.27 80.7164 159.049ZM24.2791 107.275C24.3836 107.756 23.6521 107.959 23.5403 107.479C23.279 106.35 23.379 105.166 23.8263 104.095C24.2737 103.025 25.0459 102.122 26.0337 101.514C26.8537 101.125 27.7539 100.933 28.6616 100.955C29.5691 100.978 30.4589 101.213 31.2587 101.643C32.4225 102.386 33.3865 103.403 34.0666 104.604C35.352 106.499 38.2602 111.71 39.3689 113.718C39.4202 113.806 39.4346 113.91 39.409 114.008C39.3833 114.107 39.3196 114.19 39.232 114.241C39.1887 114.266 39.1407 114.283 39.091 114.29C39.0412 114.297 38.9905 114.294 38.942 114.281C38.8437 114.256 38.7598 114.192 38.7085 114.104C36.0343 109.634 33.2379 103.594 30.9389 102.347C30.2314 101.939 29.4317 101.718 28.6151 101.703C27.7984 101.689 26.9914 101.882 26.2699 102.265C25.4662 102.797 24.8446 103.562 24.4887 104.458C24.1328 105.354 24.0597 106.337 24.2791 107.275ZM8.72849 101.136C8.73362 101.038 8.77621 100.946 8.84747 100.878C8.91874 100.81 9.01324 100.773 9.11149 100.773C9.20974 100.773 9.30424 100.81 9.37551 100.878C9.44676 100.946 9.48935 101.038 9.49448 101.136V107.349C9.48935 107.447 9.44676 107.539 9.37551 107.607C9.30424 107.675 9.20974 107.712 9.11149 107.712C9.01324 107.712 8.91874 107.675 8.84747 107.607C8.77621 107.539 8.73362 107.447 8.72849 107.349V101.136ZM82.2495 192.291C64.6726 191.101 53.6604 185.214 39.4734 175.609C28.7037 168.318 25.1016 165.191 17.7061 160.118C17.3027 159.841 17.6862 159.177 18.0927 159.457C26.3994 165.156 28.1038 167.002 41.2228 175.864C54.5089 184.841 65.8106 190.482 82.2495 191.523C82.726 191.556 82.7479 192.325 82.2495 192.291Z" fill="white"/>
<path d="M43.2013 106.667C41.0141 108.884 40.7915 113.209 41.7477 116.101C42.7851 114.158 43.8144 112.21 44.8357 110.258C44.2872 109.842 43.8508 109.295 43.5656 108.668C43.2803 108.042 43.1551 107.354 43.2013 106.667Z" fill="white"/>
<path d="M63.0562 93.4458C63.0547 93.379 63.0359 93.3138 63.0018 93.2564C62.9678 93.199 62.9194 93.1514 62.8615 93.1182C62.8035 93.085 62.738 93.0673 62.6713 93.0668C62.6045 93.0664 62.5388 93.0832 62.4804 93.1156C60.3151 94.379 58.1248 93.4468 54.6157 93.7426C50.6447 94.0801 45.9422 96.3175 44.0372 99.9081C43.2722 101.348 42.7205 103.438 43.802 104.634C45.8105 100.78 50.8746 100.43 54.0974 102.833C54.3504 103.002 54.5808 103.203 54.7829 103.431C56.9594 102.896 58.9588 101.802 60.5837 100.258C61.4734 99.3758 62.1566 98.3072 62.5841 97.1293C63.0117 95.9514 63.1728 94.6934 63.0562 93.4458Z" fill="black"/>
<path d="M47.6882 105.55C46.9054 105.362 46.089 105.365 45.308 105.559C44.5268 105.755 43.8041 106.134 43.2009 106.667C42.8801 110.512 48.3737 113.225 52.8463 111.085C52.1221 108.477 50.3153 106.109 47.6882 105.55Z" fill="white"/>
<path d="M55.9457 105.603C54.9372 100.7 45.504 99.1984 43.4297 105.52C43.7469 105.309 44.0901 105.139 44.4507 105.015C47.9483 103.779 52.0562 105.746 53.5275 110.679C54.3666 110.145 55.0383 109.386 55.466 108.488C55.8936 107.591 56.0599 106.591 55.9457 105.603Z" fill="white"/>
<path d="M34.0666 104.604C33.3842 103.403 32.4179 102.388 31.2524 101.647C30.4526 101.217 29.5629 100.982 28.6552 100.959C27.7476 100.937 26.8473 101.129 26.0274 101.518C25.0395 102.126 24.2674 103.029 23.8201 104.099C23.3727 105.17 23.2727 106.354 23.534 107.483C23.6448 107.963 24.3826 107.76 24.2729 107.28C24.0526 106.34 24.1258 105.355 24.4825 104.458C24.8391 103.561 25.4623 102.795 26.2678 102.264C26.9893 101.881 27.7963 101.687 28.6129 101.702C29.4296 101.716 30.2291 101.938 30.9368 102.346C33.2358 103.594 35.9769 109.54 38.7064 114.103C38.7576 114.191 38.8416 114.255 38.9397 114.28C38.9884 114.292 39.039 114.296 39.0889 114.289C39.1386 114.282 39.1866 114.265 39.2299 114.24C39.2733 114.215 39.3112 114.181 39.3415 114.141C39.3719 114.101 39.3941 114.055 39.4068 114.007C39.4195 113.958 39.4225 113.908 39.4156 113.858C39.4087 113.808 39.3922 113.761 39.3668 113.717C38.2654 111.71 35.3561 106.495 34.0666 104.604Z" fill="black"/>
<path d="M71.2745 111.835C69.7822 103.625 61.3219 102.682 58.9184 107.808C58.1799 109.381 57.8315 111.108 57.9026 112.844C57.7846 112.781 58.0678 112.801 53.9316 112.801C53.6526 109.562 51.8207 106.213 48.7756 105.068C47.4363 104.498 45.9291 104.464 44.5657 104.974C43.2024 105.484 42.0873 106.499 41.4512 107.808C40.2364 110.497 40.0819 113.545 41.0186 116.343C41.5211 117.898 42.5126 119.249 43.8453 120.195C48.2343 123.323 54.0633 120.369 53.9713 113.566C58.0468 113.566 57.8065 113.597 57.9424 113.497C58.0124 114.464 58.1962 115.419 58.4899 116.343C59.5694 119.741 63.0879 122.129 66.5605 121.254C69.7561 120.442 72.1387 116.585 71.2745 111.835ZM51.0777 119.254C48.1664 122.082 43.49 120.326 41.9862 116.762C40.6612 113.627 40.8994 108.04 43.8516 106.143C45.0086 105.464 46.3802 105.25 47.6888 105.545C52.9452 106.669 55.2233 115.233 51.0777 119.259V119.254ZM68.547 119.254C65.621 122.094 60.9185 120.313 59.4555 116.762C58.5137 114.293 58.4319 111.578 59.2235 109.056C59.5816 107.879 60.3191 106.855 61.3208 106.143C62.4799 105.47 63.8492 105.256 65.1581 105.545C70.4479 106.694 72.6727 115.253 68.5512 119.259L68.547 119.254Z" fill="black"/>
<path d="M117.447 124.19L110.322 130.251C109.947 130.571 110.49 131.11 110.864 130.792L117.988 124.731C118.364 124.412 117.82 123.872 117.447 124.19Z" fill="#B999BE"/>
<path d="M109.882 129.61C112.32 127.665 114.712 125.666 117.056 123.613C117.427 123.288 116.884 122.748 116.515 123.071C114.169 125.124 111.777 127.123 109.341 129.069C108.955 129.376 109.501 129.915 109.882 129.61Z" fill="#B999BE"/>
<path d="M157.972 117.866C156.969 116.036 149.057 102.55 148.671 101.896C148.637 101.839 148.588 101.792 148.53 101.76C148.473 101.727 148.407 101.71 148.341 101.71C148.274 101.71 148.209 101.727 148.151 101.76C148.093 101.792 148.044 101.839 148.01 101.896C146.944 103.691 139.084 117.206 138.709 117.866C138.677 117.925 138.659 117.991 138.66 118.058C138.66 118.125 138.678 118.19 138.711 118.248C138.745 118.306 138.792 118.354 138.849 118.389C138.907 118.422 138.973 118.441 139.04 118.442H146.346V115.255C146.351 115.157 146.394 115.065 146.465 114.997C146.536 114.929 146.631 114.891 146.73 114.891C146.828 114.891 146.922 114.929 146.993 114.997C147.064 115.065 147.107 115.157 147.112 115.255V118.442H157.648C157.714 118.438 157.776 118.417 157.832 118.382C157.887 118.347 157.932 118.298 157.964 118.242C157.997 118.184 158.015 118.12 158.016 118.055C158.017 117.99 158.002 117.925 157.972 117.866Z" fill="#B999BE"/>
<path d="M138.868 88.4319H132.174C132.073 88.4331 131.977 88.4737 131.905 88.5452C131.834 88.6167 131.793 88.7134 131.792 88.8144V95.5129C131.793 95.6141 131.834 95.7111 131.905 95.7828C131.976 95.8545 132.073 95.8953 132.174 95.8964C136.738 95.9288 138.253 95.9392 138.786 95.9037C139.035 95.888 139.236 95.8598 139.264 95.4303C139.298 94.9172 139.284 93.4365 139.251 88.8196C139.251 88.7174 139.211 88.6193 139.139 88.5467C139.067 88.4741 138.97 88.4328 138.868 88.4319Z" fill="#B999BE"/>
<path d="M165.455 81.4785C163.907 80.9107 162.22 80.8353 160.626 81.2625C159.033 81.6898 157.611 82.5988 156.554 83.8654C155.497 85.132 154.857 86.6942 154.721 88.3383C154.586 89.9824 154.962 91.6283 155.798 93.0506C156.634 94.473 157.888 95.6024 159.39 96.2846C160.892 96.9666 162.568 97.168 164.189 96.8612C165.81 96.5543 167.297 95.7542 168.445 94.5704C169.595 93.3864 170.349 91.8764 170.607 90.2471C170.9 88.4148 170.546 86.5379 169.605 84.9381C168.666 83.3383 167.198 82.1152 165.455 81.4785Z" fill="#B999BE"/>
<path d="M135.546 64.284C135.514 64.3425 135.496 64.4085 135.497 64.4755C135.497 64.5424 135.515 64.6082 135.548 64.6663C135.582 64.7244 135.63 64.7729 135.687 64.8069C135.745 64.8411 135.811 64.8596 135.877 64.8609H144.797C144.849 64.8582 144.9 64.8453 144.947 64.8227C144.994 64.8002 145.036 64.7686 145.07 64.7297C145.105 64.6908 145.132 64.6455 145.149 64.5963C145.165 64.547 145.173 64.4949 145.17 64.4429C145.155 64.1482 140.748 56.7642 140.668 56.6283C140.633 56.5715 140.585 56.5245 140.527 56.4918C140.469 56.4592 140.403 56.442 140.338 56.442C140.271 56.442 140.205 56.4592 140.147 56.4918C140.089 56.5245 140.041 56.5715 140.006 56.6283C138.684 58.8542 135.729 63.9663 135.546 64.284Z" fill="#B999BE"/>
<path d="M153.81 31.4732C153.3 29.8516 152.287 28.4347 150.917 27.4281C149.548 26.4214 147.892 25.8775 146.192 25.8752H144.328C144.226 25.8765 144.13 25.9172 144.058 25.9887C143.987 26.06 143.946 26.1565 143.944 26.2577V33.0219C143.945 33.1234 143.986 33.2205 144.057 33.2922C144.129 33.364 144.226 33.4046 144.328 33.4055C144.635 33.398 144.94 33.4534 145.226 33.5682C145.51 33.6829 145.769 33.8546 145.985 34.0728C146.202 34.291 146.371 34.551 146.483 34.837C146.596 35.1229 146.648 35.4288 146.637 35.7358V39.7904C146.638 39.8915 146.679 39.9879 146.751 40.0594C146.822 40.1308 146.918 40.1715 147.02 40.1729H153.788C153.89 40.1718 153.987 40.1312 154.058 40.0597C154.13 39.9882 154.171 39.8916 154.172 39.7904C154.217 33.4995 154.257 32.9822 153.81 31.4732Z" fill="#B999BE"/>
<path d="M134.151 39.112C133.428 37.7922 127.708 28.0423 127.426 27.5689C127.392 27.512 127.344 27.465 127.285 27.4324C127.228 27.3996 127.162 27.3825 127.096 27.3825C127.029 27.3825 126.963 27.3996 126.906 27.4324C126.848 27.465 126.799 27.512 126.765 27.5689C125.997 28.8616 120.314 38.6344 120.04 39.112C120.008 39.1703 119.99 39.2362 119.991 39.303C119.991 39.3699 120.009 39.4355 120.042 39.4935C120.076 39.5515 120.123 39.5999 120.18 39.634C120.238 39.6681 120.304 39.6865 120.371 39.6878H133.821C133.887 39.684 133.95 39.664 134.007 39.6293C134.062 39.5947 134.109 39.5465 134.142 39.4894C134.175 39.4322 134.193 39.3677 134.195 39.3018C134.196 39.2359 134.181 39.1706 134.151 39.112Z" fill="#B999BE"/>
<path d="M146.34 134.08C146.345 134.178 146.388 134.27 146.459 134.338C146.53 134.406 146.625 134.443 146.723 134.443C146.822 134.443 146.916 134.406 146.987 134.338C147.058 134.27 147.101 134.178 147.106 134.08V115.255C147.101 115.157 147.058 115.065 146.987 114.997C146.916 114.929 146.822 114.891 146.723 114.891C146.625 114.891 146.53 114.929 146.459 114.997C146.388 115.065 146.345 115.157 146.34 115.255V134.08Z" fill="black"/>
<path d="M141.634 80.052V96.6174C141.634 96.7188 141.673 96.8161 141.746 96.8878C141.818 96.9596 141.915 96.9998 142.016 96.9998C142.118 96.9998 142.215 96.9596 142.287 96.8878C142.358 96.8161 142.399 96.7188 142.399 96.6174V80.052C142.399 79.9506 142.358 79.8534 142.287 79.7816C142.215 79.7099 142.118 79.6696 142.016 79.6696C141.915 79.6696 141.818 79.7099 141.746 79.7816C141.673 79.8534 141.634 79.9506 141.634 80.052Z" fill="black"/>
<path d="M147.658 55.9555V79.677C147.663 79.7752 147.706 79.8675 147.777 79.9351C147.848 80.0028 147.943 80.0405 148.042 80.0405C148.14 80.0405 148.234 80.0028 148.305 79.9351C148.376 79.8675 148.419 79.7752 148.424 79.677V55.9555C148.419 55.8574 148.376 55.765 148.305 55.6973C148.234 55.6297 148.14 55.592 148.042 55.592C147.943 55.592 147.848 55.6297 147.777 55.6973C147.706 55.765 147.663 55.8574 147.658 55.9555Z" fill="black"/>
<path d="M151.798 50.1202V68.1924C151.803 68.2906 151.846 68.3829 151.917 68.4506C151.988 68.5183 152.082 68.5559 152.18 68.5559C152.279 68.5559 152.374 68.5183 152.445 68.4506C152.516 68.3829 152.559 68.2906 152.564 68.1924V50.1202C152.559 50.0221 152.516 49.9297 152.445 49.862C152.374 49.7944 152.279 49.7567 152.18 49.7567C152.082 49.7567 151.988 49.7944 151.917 49.862C151.846 49.9297 151.803 50.0221 151.798 50.1202Z" fill="black"/>
<path d="M96.7945 151.447C96.3368 151.618 96.5354 152.359 96.9983 152.184C102.213 150.227 107.644 148.9 113.174 148.233C113.658 148.175 113.663 147.409 113.174 147.467C107.574 148.131 102.075 149.467 96.7945 151.447Z" fill="black"/>
<path d="M112.269 144.105C106.602 145.016 101.057 146.565 95.7382 148.723C95.2868 148.906 95.4843 149.647 95.9472 149.462C101.266 147.304 106.811 145.754 112.478 144.844C112.958 144.768 112.755 144.03 112.269 144.105Z" fill="black"/>
<path d="M9.31854 29.3861C11.1222 31.9986 15.484 38.3292 15.484 38.3292C15.762 38.7326 16.4245 38.3491 16.1445 37.9426L9.97898 28.9995C9.70205 28.5961 9.03848 28.9786 9.31854 29.3861Z" fill="black"/>
<path d="M20.5 37.6251C20.6045 38.1069 21.3454 37.9031 21.2378 37.4224C20.9086 35.9364 18.3118 24.2219 18.3118 24.2219C18.2073 23.7402 17.4664 23.944 17.573 24.4309C18.0787 26.7362 19.8814 34.8454 20.5 37.6251Z" fill="black"/>
<path d="M171.275 165.379H152.299C152.666 163.879 151.82 162.37 150.769 161.108C147.457 157.296 143.479 154.12 139.03 151.733C133.08 143.246 120.136 126.215 119.541 125.449C119.495 125.384 119.426 125.339 119.348 125.325C119.271 125.31 119.189 125.326 119.123 125.369C118.904 125.52 111.781 131.41 111.662 131.509C111.592 131.582 111.553 131.679 111.553 131.78C111.553 131.88 111.592 131.977 111.662 132.05C116.548 137.328 115.92 137.049 127.86 149.575C116.165 150.043 96.079 155.888 81.1146 158.971C80.2386 154.972 78.9672 151.069 77.3192 147.322C75.7516 143.62 73.6121 140.19 70.9791 137.153C61.9859 127.068 47.3695 125.229 34.5536 129.354C36.8184 125.252 39.0586 121.136 41.274 117.006C42.8321 120.697 47.126 122.545 50.4073 120.716C52.9466 119.294 54.0125 116.368 53.9749 113.567C58.0504 113.567 57.8101 113.597 57.9459 113.497C58.0155 114.464 58.1993 115.419 58.4935 116.343C58.9792 118.023 60.078 119.46 61.5724 120.37C63.0668 121.279 64.8481 121.595 66.564 121.254C70.3971 120.216 72.0074 115.82 71.2822 111.839C69.7962 103.661 61.3328 102.663 58.9261 107.811C58.1875 109.384 57.8391 111.111 57.9104 112.847C57.7933 112.786 58.0755 112.804 53.9394 112.804C53.8826 112.084 53.7477 111.373 53.5371 110.682C56.0273 109.034 56.9584 105.621 54.7911 103.436C58.1351 102.463 60.968 100.812 62.3955 97.6059C62.3955 97.6059 82.1648 97.6122 84.027 97.6059C86.6079 97.6034 89.1556 97.0237 91.4834 95.9091C93.8111 94.7947 95.8602 93.1734 97.4803 91.1645L120.111 65.0803H121.818C121.917 65.0752 122.009 65.0325 122.077 64.9613C122.144 64.89 122.182 64.7955 122.182 64.6973C122.182 64.5991 122.144 64.5045 122.077 64.4332C122.009 64.3619 121.917 64.3194 121.818 64.3143H120.773C123.426 61.2577 123.281 61.4771 123.347 61.1793C123.365 60.8552 123.365 60.5305 123.347 60.2064C123.347 57.9732 123.363 56.9303 123.347 56.4193C123.327 55.7223 123.193 55.7923 122.794 55.7819C120.964 55.7317 111.541 55.762 64.2473 55.762C65.1658 54.9584 66.169 54.1454 67.0771 53.4264H123.247C123.348 53.4248 123.444 53.3838 123.515 53.3122C123.588 53.2406 123.628 53.144 123.629 53.0429V39.6878H133.83C133.882 39.6851 133.933 39.6722 133.98 39.6497C134.027 39.6272 134.069 39.5956 134.103 39.5568C134.139 39.5179 134.165 39.4726 134.183 39.4232C134.2 39.374 134.207 39.3219 134.204 39.2698C134.195 39.1277 134.637 39.9344 127.435 27.5658C127.401 27.5089 127.353 27.4619 127.294 27.4292C127.237 27.3965 127.171 27.3794 127.105 27.3794C127.038 27.3794 126.972 27.3965 126.915 27.4292C126.856 27.4619 126.808 27.5089 126.774 27.5658C126.017 28.8658 123.629 32.9633 123.629 32.9633V24.62C124.048 24.5004 124.427 24.2668 124.721 23.9449C126.323 21.9281 124.78 19.3396 126.355 17.8609C126.498 17.7431 126.663 17.6548 126.841 17.601C127.018 17.5473 127.204 17.5291 127.388 17.5475C127.573 17.566 127.752 17.6208 127.916 17.7086C128.079 17.7964 128.223 17.9157 128.34 18.0595C128.729 18.5151 128.945 19.0928 128.953 19.6918C129.124 21.2454 129.126 22.813 128.959 24.3671C128.907 24.8572 129.673 24.853 129.725 24.3671C129.934 22.4159 129.86 20.4447 129.502 18.5151C129.407 18.1769 129.237 17.8645 129.005 17.6004C128.773 17.3364 128.486 17.1274 128.163 16.9889C127.84 16.8502 127.49 16.7855 127.138 16.7993C126.787 16.8131 126.445 16.9052 126.133 17.0688C125.597 17.4561 125.21 18.0152 125.037 18.653C124.483 20.6699 125.13 21.2854 124.436 23.0159C124.262 23.3564 123.979 23.6296 123.634 23.7934V21.5508C123.728 19.8653 123.521 18.1766 123.021 16.5641C122.413 14.7523 121.362 13.1217 119.962 11.8208C118.562 10.5199 116.859 9.5901 115.008 9.11632C113.784 8.86522 112.538 8.7409 111.288 8.74534C105.92 8.62935 45.7832 8.60532 43.828 8.79551C40.9641 9.06184 38.3026 10.3866 36.3635 12.5108C34.4244 14.635 33.3472 17.406 33.3424 20.2822V42.9806C31.4583 43.861 29.766 45.1039 28.362 46.6381C26.6377 43.5334 22.7597 42.3881 19.3812 42.8625C15.0622 43.4697 11.8969 46.8607 9.96682 50.5663C7.76841 55.2555 6.40683 60.293 5.94357 65.4513C5.57259 69.7452 5.23401 189.563 5.22461 192.814C5.22596 192.915 5.26669 193.011 5.33813 193.082C5.40956 193.154 5.50606 193.195 5.60708 193.196H82.2411C82.3423 193.195 82.4388 193.154 82.5104 193.082C82.5821 193.011 82.623 192.915 82.6246 192.814C82.6246 192.648 82.6246 192.483 82.6246 192.316C88.6328 192.664 94.6604 192.431 100.624 191.62C100.624 192.038 100.644 192.497 100.644 192.497C100.645 192.598 100.686 192.695 100.758 192.767C100.829 192.838 100.926 192.879 101.027 192.881H171.275C171.376 192.879 171.473 192.838 171.544 192.766C171.615 192.695 171.656 192.598 171.658 192.497V165.763C171.656 165.662 171.615 165.565 171.544 165.494C171.473 165.422 171.376 165.381 171.275 165.379ZM59.2229 109.061C59.575 107.882 60.3138 106.856 61.3202 106.148C62.4774 105.47 63.8488 105.256 65.1575 105.55C70.3919 106.637 72.7076 115.233 68.5474 119.259C65.6862 122.05 60.9764 120.371 59.4559 116.767C58.5032 114.3 58.4211 111.582 59.2229 109.061ZM112.477 131.821L119.209 126.264C126.565 136.333 131.887 143.08 137.662 151.135C134.878 150.001 131.888 149.462 128.884 149.554C123.467 143.881 117.737 137.777 112.477 131.821ZM111.931 153.886C111.931 153.502 111.963 153.094 111.946 152.704C115.115 152.056 118.298 151.473 121.498 151.004C124.694 150.413 127.95 150.202 131.197 150.377C138.454 150.833 144.515 155.565 149.532 160.868C150.562 161.96 151.66 163.258 151.622 164.839C151.592 165.995 150.333 167.322 149.105 166.97C148.758 166.871 148.427 167.36 148.733 167.609C149.843 168.516 149.575 170.399 148.697 171.371C147.416 172.797 145.131 172.765 143.381 172.685C143.29 172.688 143.203 172.724 143.136 172.784C143.068 172.845 143.026 172.927 143.013 173.017C143.001 173.107 143.019 173.198 143.068 173.275C143.117 173.352 143.19 173.409 143.276 173.437C143.674 173.599 144.012 173.878 144.247 174.237C144.482 174.596 144.603 175.018 144.592 175.447C144.574 175.936 144.438 176.413 144.196 176.838C143.953 177.262 143.61 177.621 143.197 177.883C142.253 178.503 141.241 179.01 140.18 179.395C134.145 181.666 124.949 185.653 111.931 188.743V153.886ZM150.186 168.895C150.484 169.324 153.339 173.448 153.606 173.846C153.758 174.072 153.86 174.315 153.606 174.518C153.369 174.707 153.158 174.579 152.979 174.395C152.635 174.046 149.783 171.099 149.783 171.099C150.141 170.424 150.282 169.653 150.186 168.895ZM43.201 106.666C43.1602 107.219 43.2338 107.775 43.417 108.298C43.6001 108.822 43.8891 109.302 44.2658 109.709C43.3386 111.484 42.4026 113.254 41.4579 115.019C40.902 112.251 41.1956 108.7 43.201 106.666ZM44.062 106.031C47.0675 104.472 50.9862 105.905 52.608 110.346C48.6454 112.32 43.0432 109.94 44.062 106.031ZM51.0782 119.259C48.2274 122.035 43.1853 120.492 41.7474 116.101C42.7847 114.158 43.8141 112.21 44.8353 110.258C45.9626 111.125 47.309 111.662 48.7239 111.809C50.1388 111.955 51.5666 111.704 52.8474 111.085C53.6227 113.879 53.2434 117.163 51.0782 119.259ZM55.0053 105.114C55.2708 105.997 55.2457 106.942 54.9338 107.809C54.6219 108.676 54.0395 109.421 53.2727 109.932C51.5787 105.479 47.7446 103.879 44.4497 105.02C44.9956 103.978 45.8615 103.138 46.9201 102.625C49.8221 101.41 53.7596 102.426 55.0053 105.114ZM60.5626 99.1442C58.8669 101.046 56.5967 102.342 54.0972 102.835C50.8932 100.475 46.3318 100.905 44.224 103.919C44.004 103.477 43.9256 102.977 43.9993 102.489C44.4769 99.0888 47.4269 96.7292 50.6393 95.4814C53.1949 94.4947 55.9587 94.1712 58.6732 94.5409C59.915 94.6652 61.1687 94.4969 62.3339 94.0498C62.3862 95.9074 61.7561 97.7197 60.5626 99.1442ZM122.578 61.0612C121.4 62.4197 98.5149 88.7966 96.7583 90.8207C95.2047 92.7054 93.2528 94.2224 91.043 95.2628C88.8332 96.3032 86.4204 96.8411 83.9779 96.8378C82.1544 96.8378 62.7289 96.8378 62.6933 96.8378C63.0708 95.7495 63.1969 94.5897 63.0622 93.4458C63.061 93.3948 63.0498 93.3446 63.0291 93.2981C63.0085 93.2515 62.9789 93.2095 62.9421 93.1743C62.9052 93.1392 62.8617 93.1117 62.8143 93.0933C62.7667 93.075 62.716 93.0662 62.6651 93.0675C61.44 93.706 60.049 93.9547 58.6785 93.7802C56.7801 93.5728 54.8614 93.6485 52.9853 94.0048C53.2152 93.5189 53.4399 93.0309 53.6666 92.5418H83.4826C86.0339 92.6174 88.5704 92.1265 90.9093 91.1042C93.2482 90.082 95.3314 88.554 97.0091 86.6303C98.2505 85.2091 120.988 58.9932 122.573 57.1665L122.578 61.0612ZM122.095 56.5594L96.753 85.7619C95.1994 87.6464 93.2475 89.1633 91.0377 90.2036C88.8279 91.2437 86.4151 91.7814 83.9727 91.7779C82.1471 91.7779 54.0178 91.7779 54.0178 91.7779C55.0523 89.5364 56.0513 87.2771 56.9835 84.9907C61.7153 85.2643 66.4616 85.1486 71.1746 84.6448C72.9745 84.5023 74.7511 84.1474 76.4675 83.5872H97.6914C97.7896 83.5821 97.882 83.5395 97.9496 83.4682C98.0173 83.3969 98.0549 83.3025 98.0549 83.2042C98.0549 83.106 98.0173 83.0114 97.9496 82.9402C97.882 82.8689 97.7896 82.8264 97.6914 82.8213H78.1144C81.3968 80.9517 82.5703 76.4112 79.451 74.1739H87.0544C87.1456 74.1595 87.2288 74.1131 87.2889 74.0428C87.3489 73.9726 87.3819 73.8833 87.3819 73.7909C87.3819 73.6985 87.3489 73.6092 87.2889 73.5389C87.2288 73.4687 87.1456 73.4222 87.0544 73.4079H78.0747C74.2699 71.9324 66.0927 71.5917 62.2795 70.6031C60.037 70.0608 58.4068 68.0951 58.5802 65.0792H75.1142C75.2123 65.0741 75.3047 65.0315 75.3723 64.9602C75.44 64.8889 75.4778 64.7945 75.4778 64.6962C75.4778 64.598 75.44 64.5034 75.3723 64.4322C75.3047 64.3609 75.2123 64.3184 75.1142 64.3133H58.6607C59.1424 61.1866 61.0778 58.688 63.3893 56.5291C63.3893 56.527 121.175 56.5813 122.09 56.5594H122.095ZM127.097 28.5283L133.158 38.9271H121.036C121.142 38.7431 126.991 28.7028 127.097 28.5283ZM34.1084 20.2822C34.1122 18.8346 34.4068 17.4027 34.9745 16.0712C35.5423 14.7398 36.3718 13.536 37.4136 12.5312C38.4556 11.5263 39.6887 10.7411 41.0399 10.222C42.3911 9.70292 43.8328 9.46053 45.2795 9.50924H111.979C114.837 9.48167 117.588 10.5904 119.628 12.5915C121.668 14.5926 122.83 17.3222 122.857 20.1798C122.857 20.2163 122.857 21.2404 122.857 23.9731C122.83 23.9731 122.805 23.9825 122.777 23.9815C122.433 23.9667 122.102 23.8526 121.822 23.653C121.541 23.4534 121.325 23.1769 121.2 22.8571C120.539 21.2321 121.334 19.3887 120.564 17.7794C120.412 17.4383 120.188 17.134 119.907 16.8874C119.627 16.6407 119.296 16.4574 118.938 16.3498C118.56 16.2728 118.167 16.301 117.804 16.4315C117.439 16.5619 117.118 16.7896 116.875 17.0897C115.359 18.9216 116.554 21.6093 115.701 23.1873C115.493 23.37 115.247 23.5043 114.981 23.5805C114.714 23.6567 114.434 23.6727 114.162 23.6275C113.888 23.5823 113.629 23.477 113.401 23.3192C113.174 23.1614 112.984 22.955 112.846 22.7149C112.444 21.9457 112.267 21.0784 112.337 20.2132C112.363 19.186 112.449 18.1612 112.594 17.144C112.655 16.656 111.889 16.6613 111.828 17.144C111.5 18.8445 111.496 20.5916 111.815 22.2938C112.031 23.0304 112.506 23.6636 113.154 24.0755C113.787 24.4103 114.519 24.5064 115.216 24.3462C116.993 23.9679 116.815 21.7535 116.793 20.3637C116.723 19.567 116.85 18.7653 117.163 18.0292C117.294 17.6776 117.557 17.3914 117.897 17.2316C118.236 17.0718 118.625 17.0513 118.979 17.1743C120.681 17.9623 120.076 20.3898 120.19 21.8465C120.315 23.4391 121.26 24.7725 122.859 24.7496V34.281C122.199 35.4148 120.322 38.6355 120.045 39.112C120.013 39.1703 119.995 39.2362 119.996 39.3031C119.996 39.3699 120.014 39.4356 120.047 39.4936C120.081 39.5516 120.128 39.5999 120.185 39.634C120.243 39.6681 120.308 39.6866 120.375 39.6878H122.859V52.6594H68.0343C70.2646 51.0385 72.2838 49.1457 74.0452 47.0248C75.3946 45.506 76.2533 43.6147 76.5082 41.5991C76.5972 40.7311 76.4685 39.8546 76.1339 39.0488C75.7993 38.2429 75.2693 37.533 74.5917 36.9834C72.8612 35.604 70.673 36.209 68.8568 37.1077C61.9721 40.7302 55.3872 44.8959 49.1648 49.5652C48.7949 48.0496 48.0789 46.6403 47.0731 45.4478C46.0672 44.2553 44.7987 43.3121 43.3671 42.6922C41.9052 42.063 40.3313 41.7352 38.7397 41.7283C37.1481 41.7215 35.5715 42.0358 34.1042 42.6525L34.1084 20.2822ZM6.48592 68.6343C6.73463 60.2628 9.70139 46.7823 17.7113 44.0455C21.489 42.7559 26.2563 43.7529 27.945 47.494C27.9749 47.5441 28.0159 47.587 28.0648 47.619C28.1137 47.651 28.1692 47.6716 28.2271 47.679C28.2851 47.6866 28.3441 47.6807 28.3995 47.662C28.4549 47.6433 28.5053 47.6123 28.5469 47.5713C33.6392 41.7057 41.5415 40.6545 46.3119 45.7311C47.5083 47.0015 48.2829 48.6108 48.5294 50.3385C48.5572 50.4364 48.6225 50.5193 48.7112 50.5692C48.7999 50.6192 48.9047 50.6319 49.0028 50.6049C55.2602 45.9132 61.8651 41.7039 68.7606 38.0137C69.7088 37.4434 70.7642 37.0738 71.8611 36.928C72.7406 36.9012 73.6009 37.188 74.2885 37.7369C74.9761 38.286 75.4461 39.0615 75.6148 39.925C75.782 40.9032 75.7432 41.9054 75.501 42.8678C75.2588 43.83 74.8185 44.7312 74.2082 45.5137C70.371 51.2727 63.033 54.1036 59.3577 60.2283C57.7996 62.8252 56.9761 66.653 58.9272 69.2822C60.1197 70.6671 61.8084 71.5283 63.6297 71.6805C74.2019 73.4758 79.1897 73.0724 80.334 76.546C80.54 77.3586 80.5288 78.2112 80.3016 79.0182C80.0743 79.8251 79.639 80.5582 79.0392 81.144C77.6116 82.4557 75.8065 83.2836 73.8811 83.5099C68.2089 84.3446 62.4646 84.5799 56.7431 84.2122C56.1809 84.2226 56.7431 84.3459 52.0323 94.2295C50.4329 94.6487 48.9126 95.326 47.5314 96.2349C47.5314 96.2349 6.86735 96.192 6.3856 96.214C6.42009 86.0796 6.45144 69.5205 6.48592 68.6343ZM81.3372 191.452C71.6565 190.774 62.2297 188.051 53.6781 183.463C40.4725 176.326 24.8915 164.131 18.0938 159.457C17.6862 159.177 17.3027 159.841 17.7071 160.118C24.7807 164.971 28.9398 168.472 39.4734 175.609C53.5444 185.135 64.5451 191.013 81.8628 192.26V192.43C81.8628 192.43 6.25184 192.417 5.99582 192.422C5.99582 188.027 6.37724 97.6697 6.38038 97.0009H46.4948C45.489 97.7962 44.6532 98.7856 44.037 99.9101C43.2929 101.36 42.7108 103.427 43.7976 104.63C43.6526 104.917 43.5296 105.215 43.4298 105.52C42.5756 106.091 41.8901 106.882 41.4443 107.808C40.28 110.391 40.0943 113.31 40.9218 116.021C39.7232 118.262 34.7229 127.452 33.4208 129.806C33.3849 129.871 33.3688 129.947 33.3746 130.022C33.3806 130.096 33.4081 130.168 33.4539 130.228C33.4997 130.287 33.5619 130.332 33.6328 130.357C33.7038 130.382 33.7804 130.385 33.8534 130.368C51.1409 124.685 68.2224 129.292 76.039 146.378C77.9557 150.447 79.4053 154.72 80.3601 159.116C74.3482 160.327 68.817 161.321 62.7634 160.056C53.1316 157.932 37.9122 150.141 26.1884 145.733C25.7265 145.56 25.5269 146.3 25.9794 146.472C40.9291 152.077 56.8591 160.998 67.3248 161.39C76.9472 161.751 94.4384 156.374 111.103 152.879V187.744C111.103 188.1 111.036 188.559 111.072 188.946C101.345 191.286 91.3184 192.131 81.3372 191.452ZM170.886 192.115H101.413V191.515C113.504 189.824 125.512 186 136.864 181.537C138.223 181.008 139.562 180.44 140.923 179.921C142.01 179.519 143.031 178.959 143.954 178.259C144.319 177.996 144.629 177.661 144.862 177.276C145.095 176.89 145.247 176.461 145.311 176.014C145.374 175.568 145.347 175.114 145.23 174.679C145.113 174.243 144.909 173.836 144.631 173.481C145.966 173.535 147.29 173.215 148.453 172.557C148.792 172.34 149.093 172.069 149.345 171.756C150.362 172.801 151.378 173.846 152.396 174.891C152.548 175.088 152.758 175.234 152.996 175.306C153.233 175.379 153.488 175.375 153.724 175.295C153.961 175.216 154.165 175.064 154.311 174.863C154.457 174.66 154.535 174.418 154.536 174.169C154.476 173.774 154.3 173.405 154.031 173.11C152.858 171.405 150.345 167.781 150.269 167.663C151.009 167.377 151.624 166.838 152.003 166.141H170.89L170.886 192.115Z" fill="black"/>
<path d="M68.9348 33.6391C69.2692 34.0038 69.8095 33.4604 69.4761 33.0978C69.4761 33.0978 64.3629 27.5332 64.2135 27.3723L69.6611 20.7888C69.9746 20.4115 69.4343 19.8671 69.1198 20.2474L63.436 27.111C63.3674 27.1844 63.3291 27.2811 63.3291 27.3817C63.3291 27.4822 63.3674 27.579 63.436 27.6523C70.7876 35.5473 68.4875 33.1532 68.9348 33.6391Z" fill="black"/>
<path d="M94.0414 27.3724L88.7798 33.098C88.4465 33.4606 88.9888 34.004 89.3211 33.6393L94.8199 27.6567C94.8888 27.5834 94.9273 27.4866 94.9273 27.386C94.9273 27.2855 94.8888 27.1887 94.8199 27.1153L89.1383 20.2518C88.8248 19.8714 88.2845 20.4158 88.597 20.7931L94.0414 27.3724Z" fill="black"/>
<path d="M99.3938 65.077H114.285C114.383 65.0718 114.475 65.0292 114.543 64.9579C114.611 64.8867 114.649 64.7922 114.649 64.694C114.649 64.5957 114.611 64.5012 114.543 64.4299C114.475 64.3587 114.383 64.3161 114.285 64.311H99.3938C99.2957 64.3161 99.2032 64.3587 99.1356 64.4299C99.068 64.5012 99.0303 64.5957 99.0303 64.694C99.0303 64.7922 99.068 64.8867 99.1356 64.9579C99.2032 65.0292 99.2957 65.0718 99.3938 65.077Z" fill="black"/>
<path d="M79.9807 65.077H94.548C94.6461 65.0718 94.7385 65.0292 94.8062 64.9579C94.8738 64.8867 94.9115 64.7922 94.9115 64.694C94.9115 64.5957 94.8738 64.5012 94.8062 64.4299C94.7385 64.3587 94.6461 64.3161 94.548 64.311H79.9807C79.8826 64.3161 79.7901 64.3587 79.7225 64.4299C79.6549 64.5012 79.6172 64.5957 79.6172 64.694C79.6172 64.7922 79.6549 64.8867 79.7225 64.9579C79.7901 65.0292 79.8826 65.0718 79.9807 65.077Z" fill="black"/>
<path d="M79.9801 98.7939C79.8787 98.7939 79.7814 98.8342 79.7097 98.906C79.638 98.9777 79.5977 99.0749 79.5977 99.1764C79.5977 99.2778 79.638 99.3751 79.7097 99.4469C79.7814 99.5186 79.8787 99.5589 79.9801 99.5589H89.5555C89.6569 99.5589 89.7542 99.5186 89.8259 99.4469C89.8976 99.3751 89.9379 99.2778 89.9379 99.1764C89.9379 99.0749 89.8976 98.9777 89.8259 98.906C89.7542 98.8342 89.6569 98.7939 89.5555 98.7939H79.9801Z" fill="black"/>
<path d="M106.148 73.4058H91.7072C91.6091 73.4109 91.5167 73.4535 91.4491 73.5247C91.3814 73.596 91.3438 73.6905 91.3438 73.7888C91.3438 73.887 91.3814 73.9814 91.4491 74.0527C91.5167 74.124 91.6091 74.1666 91.7072 74.1717H106.148C106.246 74.1666 106.338 74.124 106.406 74.0527C106.474 73.9814 106.512 73.887 106.512 73.7888C106.512 73.6905 106.474 73.596 106.406 73.5247C106.338 73.4535 106.246 73.4109 106.148 73.4058Z" fill="black"/>
<path d="M21.7112 57.0157C22.9325 54.2558 24.6166 51.7249 26.6907 49.5325C27.0303 49.1751 26.49 48.6327 26.1494 48.9912C24.0206 51.2238 22.2951 53.8088 21.0498 56.6312C20.8533 57.0763 21.5137 57.4672 21.7112 57.0157Z" fill="black"/>
<path d="M40.9843 60.7518C42.3606 57.427 44.5016 54.4738 47.2334 52.1316C47.6085 51.8118 47.0641 51.2726 46.691 51.5903C43.8568 54.0167 41.6478 57.0894 40.2507 60.5491C40.0605 61.0047 40.8014 61.2033 40.9843 60.7518Z" fill="black"/>
<path d="M26.2749 102.26C26.9965 101.878 27.8034 101.685 28.62 101.699C29.4366 101.714 30.2362 101.935 30.9439 102.343C31.9725 103.019 32.8231 103.932 33.4237 105.007C35.056 107.418 37.9026 112.74 38.7135 114.098C38.7399 114.141 38.7746 114.179 38.8156 114.208C38.8567 114.237 38.9031 114.258 38.9522 114.268C39.0013 114.28 39.0522 114.281 39.1018 114.273C39.1513 114.264 39.1988 114.245 39.2412 114.218C39.3237 114.167 39.3833 114.086 39.408 113.991C39.4327 113.897 39.4204 113.797 39.3739 113.711C35.5712 106.984 33.454 102.785 31.2564 101.641C30.4576 101.208 29.5675 100.97 28.6593 100.948C27.751 100.926 26.8504 101.119 26.0314 101.512C25.0436 102.12 24.2718 103.023 23.8246 104.093C23.3775 105.163 23.2776 106.347 23.539 107.477C23.5526 107.525 23.5755 107.569 23.6062 107.608C23.6371 107.646 23.6752 107.679 23.7185 107.703C23.7618 107.727 23.8094 107.742 23.8586 107.748C23.9077 107.753 23.9576 107.749 24.0051 107.735C24.1 107.706 24.1805 107.642 24.2309 107.557C24.2814 107.472 24.2981 107.37 24.2779 107.273C24.0601 106.334 24.1346 105.35 24.4916 104.454C24.8484 103.558 25.4707 102.793 26.2749 102.26Z" fill="black"/>
<path d="M133.759 160.135L146.525 166.606C146.964 166.829 147.352 166.168 146.912 165.946L134.146 159.474C133.708 159.251 133.321 159.912 133.759 160.135Z" fill="black"/>
<path d="M141.256 173.156C141.283 173.058 141.269 172.953 141.219 172.866C141.169 172.777 141.086 172.712 140.988 172.685C137.392 172.171 133.782 171.787 130.157 171.535C129.665 171.501 129.668 172.267 130.157 172.301C133.71 172.549 137.252 172.925 140.784 173.428C140.883 173.452 140.987 173.437 141.075 173.386C141.163 173.336 141.227 173.253 141.256 173.156Z" fill="black"/>
<path d="M117.446 124.191L110.322 130.252C109.946 130.571 110.49 131.111 110.864 130.793L117.987 124.732C118.364 124.412 117.819 123.872 117.446 124.191Z" fill="black"/>
<path d="M109.881 129.61C112.319 127.665 114.711 125.666 117.055 123.613C117.426 123.288 116.883 122.747 116.513 123.071C114.168 125.125 111.777 127.124 109.34 129.069C108.954 129.376 109.499 129.915 109.881 129.61Z" fill="black"/>
<path d="M92.1306 188.1H86.8596C86.7615 188.105 86.6691 188.148 86.6014 188.219C86.5338 188.29 86.4961 188.384 86.4961 188.483C86.4961 188.581 86.5338 188.675 86.6014 188.747C86.6691 188.818 86.7615 188.86 86.8596 188.866H92.1306C92.2288 188.86 92.3211 188.818 92.3887 188.747C92.4565 188.675 92.4941 188.581 92.4941 188.483C92.4941 188.384 92.4565 188.29 92.3887 188.219C92.3211 188.148 92.2288 188.105 92.1306 188.1Z" fill="black"/>
<path d="M9.09845 100.766C9.00141 100.769 8.90927 100.809 8.84061 100.878C8.77196 100.947 8.73189 101.039 8.72852 101.136V107.348C8.73364 107.447 8.77623 107.539 8.84749 107.607C8.91875 107.674 9.01326 107.712 9.11151 107.712C9.20976 107.712 9.30426 107.674 9.37552 107.607C9.44679 107.539 9.48937 107.447 9.4945 107.348V101.136C9.49096 101.034 9.44726 100.938 9.373 100.869C9.29874 100.8 9.2 100.763 9.09845 100.766Z" fill="black"/>
<path d="M184.996 153.15C183.539 153.647 182.274 154.59 181.383 155.845C180.491 157.1 180.015 158.604 180.024 160.143C180.024 160.832 180.024 192.408 180.024 192.443C180.029 192.541 180.072 192.633 180.143 192.701C180.214 192.769 180.309 192.806 180.407 192.806C180.505 192.806 180.599 192.769 180.67 192.701C180.741 192.633 180.784 192.541 180.79 192.443C180.79 192.443 180.79 160.281 180.79 160.111C180.836 158.4 181.545 156.774 182.769 155.578C183.992 154.382 185.633 153.709 187.345 153.703C189.055 153.695 190.702 154.356 191.936 155.542C193.169 156.728 193.891 158.348 193.95 160.058C193.95 160.413 193.944 160.767 193.95 161.121C193.955 161.219 193.998 161.311 194.069 161.379C194.14 161.447 194.236 161.485 194.334 161.485C194.432 161.485 194.526 161.447 194.597 161.379C194.668 161.311 194.711 161.219 194.716 161.121C194.79 159.975 194.657 158.825 194.322 157.727C194.017 156.809 193.532 155.962 192.896 155.233C192.259 154.506 191.485 153.912 190.618 153.485C189.749 153.06 188.806 152.81 187.84 152.753C186.876 152.695 185.908 152.83 184.996 153.15Z" fill="black"/>
<path d="M193.457 151.734C191.873 150.719 190.062 150.113 188.186 149.968C186.31 149.823 184.428 150.145 182.707 150.905C181.011 151.709 179.578 152.978 178.576 154.566C177.575 156.154 177.047 157.994 177.052 159.871C177.046 161.001 177.052 191.833 177.052 191.833C177.095 195.395 174.745 199.339 169.367 199.491C164.808 199.62 150.86 199.402 100.81 199.491C100.759 199.492 100.71 199.504 100.664 199.525C100.617 199.544 100.576 199.575 100.542 199.611C100.507 199.648 100.48 199.692 100.463 199.739C100.445 199.787 100.438 199.837 100.44 199.887C100.443 199.984 100.484 200.076 100.552 200.144C100.621 200.213 100.713 200.253 100.81 200.257H169.333C170.419 200.285 171.499 200.1 172.512 199.712C173.526 199.323 174.454 198.738 175.241 197.991C176.029 197.243 176.661 196.349 177.103 195.357C177.545 194.365 177.786 193.296 177.815 192.211C177.815 192.139 177.815 161.755 177.815 161.755C177.72 160.231 177.849 158.701 178.201 157.215C181.241 147.453 197.611 148.614 196.921 161.117C196.921 161.218 196.962 161.315 197.033 161.387C197.105 161.458 197.203 161.499 197.304 161.499C197.405 161.499 197.502 161.458 197.575 161.387C197.647 161.315 197.686 161.218 197.686 161.117C197.881 159.317 197.592 157.5 196.848 155.85C196.105 154.2 194.934 152.779 193.457 151.734Z" fill="black"/>
<path d="M175.977 153.288C174.57 155.593 173.852 158.254 173.91 160.955C173.91 160.955 173.902 191.146 173.91 191.667C173.925 192.248 173.812 192.826 173.58 193.359C173.348 193.892 173.002 194.368 172.567 194.753C171.578 195.47 170.354 195.786 169.142 195.637H100.919C100.821 195.642 100.729 195.685 100.661 195.756C100.593 195.827 100.556 195.921 100.556 196.021C100.556 196.119 100.593 196.213 100.661 196.284C100.729 196.355 100.821 196.398 100.919 196.403C100.919 196.403 169.112 196.403 169.949 196.403C170.555 196.418 171.158 196.313 171.724 196.095C172.29 195.878 172.807 195.549 173.247 195.131C173.686 194.713 174.038 194.213 174.283 193.658C174.529 193.104 174.664 192.506 174.678 191.9C174.678 191.885 174.678 161.714 174.678 160.498C174.676 158.795 175.016 157.108 175.679 155.537C176.34 153.968 177.31 152.547 178.531 151.358C179.753 150.17 181.2 149.24 182.788 148.622C184.375 148.003 186.07 147.709 187.773 147.758C189.477 147.808 191.152 148.198 192.702 148.907C194.251 149.615 195.642 150.628 196.794 151.884C197.944 153.14 198.832 154.615 199.402 156.22C199.973 157.825 200.215 159.528 200.115 161.23C200.12 161.328 200.163 161.42 200.234 161.488C200.305 161.556 200.399 161.593 200.497 161.593C200.596 161.593 200.691 161.556 200.762 161.488C200.833 161.42 200.876 161.328 200.881 161.23C200.975 159.321 200.668 157.415 199.979 155.634C199.29 153.852 198.237 152.233 196.885 150.884C195.449 149.464 193.712 148.383 191.803 147.723C189.894 147.064 187.861 146.841 185.855 147.072C183.848 147.302 181.918 147.98 180.209 149.056C178.5 150.132 177.054 151.578 175.977 153.288Z" fill="black"/>
<path d="M177.902 146.718C175.753 148.237 174 150.253 172.794 152.593C171.588 154.932 170.963 157.529 170.973 160.162C170.973 161.34 170.973 164.043 170.973 164.043C170.973 164.144 171.014 164.241 171.085 164.313C171.157 164.384 171.254 164.425 171.355 164.425C171.457 164.425 171.554 164.384 171.626 164.313C171.697 164.241 171.738 164.144 171.738 164.043C171.602 161.492 171.749 158.933 172.178 156.414C173.083 152.681 175.329 149.414 178.489 147.232C181.65 145.05 185.502 144.107 189.313 144.584C193.124 145.06 196.625 146.924 199.15 149.816C201.676 152.71 203.048 156.431 203.005 160.271V161.066C203.01 161.164 203.053 161.256 203.124 161.324C203.195 161.392 203.289 161.429 203.388 161.429C203.486 161.429 203.581 161.392 203.652 161.324C203.723 161.256 203.766 161.164 203.771 161.066C203.946 157.982 203.247 154.912 201.755 152.206C200.264 149.502 198.039 147.273 195.339 145.774C192.638 144.277 189.569 143.57 186.485 143.737C183.401 143.903 180.426 144.937 177.902 146.718Z" fill="black"/>
<path d="M139.137 95.7771C139.308 95.5441 139.305 96.285 139.25 88.8143C139.249 88.7129 139.208 88.6162 139.136 88.5447C139.065 88.4731 138.968 88.4326 138.867 88.4318H132.174C132.072 88.4332 131.976 88.4738 131.904 88.5452C131.833 88.6167 131.792 88.7131 131.79 88.8143V95.5127C131.791 95.614 131.832 95.7108 131.904 95.7824C131.975 95.854 132.072 95.8949 132.174 95.8963C139.593 95.9454 138.948 95.9381 139.137 95.7771ZM138.484 95.125H132.556V89.1968H138.484V95.125Z" fill="black"/>
<path d="M162.68 97.0028C164.265 97.0047 165.816 96.5363 167.136 95.6568C168.454 94.7775 169.484 93.5266 170.093 92.0624C170.701 90.5981 170.862 88.9863 170.554 87.4307C170.247 85.8751 169.485 84.4458 168.365 83.3231C167.245 82.2006 165.817 81.4353 164.263 81.1242C162.708 80.813 161.095 80.9699 159.629 81.575C158.164 82.1801 156.91 83.2062 156.028 84.5236C155.145 85.841 154.674 87.3905 154.672 88.9762C154.671 90.0291 154.877 91.072 155.278 92.0452C155.679 93.0185 156.269 93.9031 157.013 94.6485C157.757 95.3939 158.64 95.9855 159.612 96.3895C160.584 96.7934 161.626 97.0019 162.68 97.0028ZM160.129 82.1638C161.476 81.6613 162.942 81.5696 164.342 81.9004C165.742 82.2312 167.011 82.9695 167.991 84.0221C168.972 85.0746 169.617 86.3941 169.847 87.8137C170.077 89.2332 169.881 90.6891 169.283 91.9973C168.686 93.3054 167.715 94.4069 166.491 95.1627C165.267 95.9184 163.847 96.2944 162.41 96.2431C160.973 96.1917 159.583 95.7154 158.417 94.8742C157.25 94.0331 156.36 92.865 155.857 91.5176C155.184 89.7107 155.256 87.7106 156.058 85.9566C156.858 84.2027 158.323 82.8386 160.129 82.1638Z" fill="black"/>
<path d="M156.883 141.993C157.733 141.666 158.646 141.531 159.554 141.6C160.801 141.754 162.066 141.613 163.248 141.189C163.672 141.003 164.048 140.725 164.352 140.375C164.656 140.026 164.878 139.613 165.004 139.168C165.089 138.693 165.038 138.205 164.858 137.758C164.677 137.311 164.375 136.924 163.985 136.642C162.192 135.272 159.981 135.879 157.924 135.675C157.016 135.584 156.137 135.337 155.932 134.349C155.833 133.928 155.84 133.489 155.953 133.071C156.065 132.653 156.28 132.27 156.577 131.955C157.289 131.338 158.19 130.983 159.132 130.948C160.791 130.868 162.454 130.961 164.093 131.224C164.581 131.284 164.577 130.517 164.093 130.459C161.989 130.052 159.828 130.041 157.719 130.424C156.813 130.683 156.032 131.264 155.524 132.058C155.105 132.846 154.993 133.762 155.211 134.628C155.744 136.851 158.671 136.466 160.394 136.459C161.367 136.391 162.34 136.589 163.208 137.032C163.631 137.229 163.963 137.582 164.134 138.017C164.304 138.453 164.301 138.937 164.125 139.369C163.329 140.943 161.512 140.916 159.861 140.874C159.122 140.758 158.368 140.789 157.641 140.967C156.915 141.144 156.231 141.463 155.629 141.907C155.314 142.214 155.068 142.585 154.908 142.994C154.748 143.405 154.677 143.844 154.701 144.284C154.724 144.723 154.841 145.152 155.044 145.543C155.246 145.934 155.531 146.277 155.876 146.548C156.671 147.074 157.6 147.355 158.552 147.358C159.466 147.349 160.38 147.396 161.29 147.498C162.088 147.587 162.829 147.958 163.38 148.543C164.32 149.877 163.156 151.554 161.408 151.756C159.309 152.026 157.186 152.051 155.081 151.831C154.592 151.779 154.595 152.545 155.081 152.597C157.493 152.853 159.93 152.766 162.317 152.337C164.04 151.753 165.118 149.767 164.071 148.2C163.572 147.552 162.868 147.092 162.073 146.895C161.213 146.683 160.328 146.59 159.443 146.62C158.489 146.674 157.535 146.509 156.654 146.137C156.274 145.929 155.959 145.616 155.748 145.237C155.537 144.858 155.438 144.426 155.462 143.992C155.486 143.56 155.632 143.142 155.884 142.788C156.135 142.434 156.482 142.158 156.883 141.993Z" fill="black"/>
<path d="M135.694 64.8107C135.826 64.8859 135.276 64.8609 144.797 64.8609C144.863 64.8572 144.927 64.837 144.983 64.8023C145.04 64.7676 145.087 64.7195 145.119 64.6621C145.152 64.6048 145.17 64.5401 145.171 64.4741C145.172 64.4081 145.158 64.3427 145.128 64.284L140.668 56.6304C140.615 56.5427 140.53 56.4795 140.429 56.4551C140.33 56.4306 140.224 56.4466 140.137 56.4998C139.997 56.5855 140.314 56.1205 135.547 64.284C135.522 64.3282 135.506 64.3769 135.5 64.4274C135.494 64.4778 135.498 64.529 135.511 64.5779C135.525 64.6268 135.548 64.6724 135.579 64.7125C135.611 64.7524 135.65 64.7857 135.694 64.8107ZM140.337 57.5835L144.131 64.0949H136.544C136.704 63.8221 140.255 57.7277 140.337 57.5793V57.5835Z" fill="black"/>
<path d="M144.328 33.4085C144.635 33.401 144.94 33.4564 145.226 33.5713C145.511 33.686 145.769 33.8579 145.985 34.0761C146.202 34.2944 146.371 34.5546 146.483 34.8407C146.596 35.1268 146.648 35.4327 146.637 35.7399V39.7945C146.638 39.8955 146.679 39.9922 146.751 40.0638C146.822 40.1353 146.918 40.1763 147.02 40.178H153.788C153.89 40.1766 153.987 40.1358 154.058 40.0642C154.13 39.9925 154.171 39.8957 154.172 39.7945C154.217 33.5924 154.262 33.0877 153.81 31.4731C153.299 29.852 152.286 28.4356 150.917 27.4292C149.547 26.4226 147.892 25.8783 146.192 25.8751H144.328C144.226 25.8764 144.13 25.9171 144.058 25.9885C143.987 26.0599 143.946 26.1564 143.944 26.2575V33.0218C143.944 33.1239 143.984 33.2219 144.056 33.2944C144.128 33.3669 144.225 33.4079 144.328 33.4085ZM144.71 26.641H146.195C147.191 26.638 148.178 26.8414 149.091 27.2383C150.004 27.6353 150.826 28.2171 151.503 28.9474C152.181 29.6775 152.699 30.54 153.026 31.4808C153.355 32.4214 153.483 33.4196 153.406 34.4127V39.412H147.403V36.9771C147.57 35.8767 147.352 34.7522 146.786 33.7941C146.536 33.4737 146.222 33.2081 145.865 33.0138C145.509 32.8195 145.116 32.7006 144.71 32.6644V26.641Z" fill="black"/>
<path d="M146.736 134.449C146.833 134.446 146.925 134.405 146.994 134.338C147.062 134.269 147.103 134.177 147.106 134.079V118.442H157.641C157.694 118.439 157.745 118.426 157.792 118.403C157.839 118.381 157.881 118.35 157.915 118.311C157.951 118.272 157.977 118.227 157.995 118.178C158.011 118.129 158.019 118.076 158.016 118.024C158.004 117.775 154.964 112.689 148.668 101.895C148.634 101.838 148.585 101.791 148.527 101.758C148.469 101.725 148.404 101.708 148.338 101.708C148.271 101.708 148.205 101.725 148.148 101.758C148.089 101.791 148.041 101.838 148.007 101.895L138.706 117.864C138.657 117.953 138.645 118.058 138.673 118.156C138.7 118.253 138.765 118.337 138.852 118.387C138.989 118.463 138.559 118.436 146.343 118.436V134.073C146.344 134.123 146.354 134.174 146.375 134.219C146.395 134.267 146.424 134.308 146.461 134.343C146.498 134.378 146.54 134.405 146.587 134.423C146.635 134.442 146.686 134.45 146.736 134.449ZM139.7 117.676L148.338 102.85L156.975 117.676H147.106V115.254C147.1 115.156 147.058 115.064 146.987 114.996C146.916 114.928 146.821 114.89 146.723 114.89C146.625 114.89 146.53 114.928 146.459 114.996C146.388 115.064 146.345 115.156 146.34 115.254V117.676H139.7Z" fill="black"/>
<path d="M142.399 96.6173V80.052C142.394 79.9538 142.351 79.8615 142.28 79.7938C142.209 79.7261 142.114 79.6884 142.015 79.6884C141.917 79.6884 141.823 79.7261 141.752 79.7938C141.681 79.8615 141.638 79.9538 141.633 80.052V96.6173C141.638 96.7154 141.681 96.8078 141.752 96.8754C141.823 96.9431 141.917 96.9808 142.015 96.9808C142.114 96.9808 142.209 96.9431 142.28 96.8754C142.351 96.8078 142.394 96.7154 142.399 96.6173Z" fill="black"/>
<path d="M148.423 79.6746V55.9531C148.418 55.855 148.375 55.7625 148.304 55.6949C148.233 55.6273 148.139 55.5895 148.041 55.5895C147.943 55.5895 147.847 55.6273 147.776 55.6949C147.705 55.7625 147.662 55.855 147.657 55.9531V79.6746C147.662 79.7726 147.705 79.8651 147.776 79.9327C147.847 80.0003 147.943 80.038 148.041 80.038C148.139 80.038 148.233 80.0003 148.304 79.9327C148.375 79.8651 148.418 79.7726 148.423 79.6746Z" fill="black"/>
<path d="M152.57 68.1923V50.1201C152.564 50.022 152.522 49.9296 152.451 49.8619C152.38 49.7943 152.285 49.7565 152.187 49.7565C152.089 49.7565 151.994 49.7943 151.923 49.8619C151.852 49.9296 151.809 50.022 151.804 50.1201V68.1923C151.809 68.2904 151.852 68.3828 151.923 68.4504C151.994 68.5181 152.089 68.5558 152.187 68.5558C152.285 68.5558 152.38 68.5181 152.451 68.4504C152.522 68.3828 152.564 68.2904 152.57 68.1923Z" fill="black"/>
<path d="M96.9981 152.185C102.214 150.231 107.645 148.904 113.174 148.233C113.657 148.175 113.662 147.409 113.174 147.467C107.575 148.131 102.075 149.467 96.7953 151.446C96.3366 151.618 96.5351 152.361 96.9981 152.185Z" fill="black"/>
<path d="M112.269 144.105C106.602 145.015 101.057 146.565 95.7382 148.723C95.2868 148.906 95.4843 149.647 95.9472 149.462C101.267 147.306 106.812 145.757 112.478 144.844C112.958 144.768 112.755 144.029 112.269 144.105Z" fill="black"/>
<path d="M15.4838 38.3291C15.7617 38.7314 16.4243 38.349 16.1442 37.9424L9.97867 28.9993C9.7007 28.596 9.03817 28.9784 9.31719 29.386L15.4838 38.3291Z" fill="black"/>
<path d="M20.498 37.6249C20.6025 38.1067 21.3444 37.9029 21.2368 37.4222C20.9076 35.9362 18.3108 24.2217 18.3108 24.2217C18.2063 23.741 17.4654 23.9438 17.572 24.4307C17.897 25.9094 20.1416 36.0198 20.498 37.6249Z" fill="black"/>
</svg>
