<svg width="196" height="55" viewBox="0 0 196 55" fill="none" xmlns="http://www.w3.org/2000/svg">
<rect x="4" y="4" width="192" height="51" rx="4" fill="#EDA3E6"/>
<rect x="0.5" y="0.5" width="191" height="50" rx="3.5" fill="white"/>
<path d="M18.8955 22V31.4C18.8955 32.1733 19.0155 32.8667 19.2555 33.48C19.5089 34.08 19.8622 34.5933 20.3155 35.02C20.7689 35.4467 21.3089 35.7733 21.9355 36C22.5622 36.2267 23.2489 36.34 23.9955 36.34C24.7422 36.34 25.4289 36.2267 26.0555 36C26.6822 35.7733 27.2222 35.4467 27.6755 35.02C28.1422 34.5933 28.4955 34.08 28.7355 33.48C28.9889 32.8667 29.1155 32.1733 29.1155 31.4V22H26.7355V31.3C26.7355 32.1533 26.5022 32.8467 26.0355 33.38C25.5822 33.9133 24.9022 34.18 23.9955 34.18C23.1022 34.18 22.4222 33.9133 21.9555 33.38C21.4889 32.8467 21.2555 32.1533 21.2555 31.3V22H18.8955ZM37.8605 30.4V36H40.0805V30.14C40.0805 29.0467 39.8072 28.1867 39.2605 27.56C38.7139 26.92 37.9205 26.6 36.8805 26.6C36.2539 26.6 35.7072 26.7333 35.2405 27C34.7872 27.2667 34.4139 27.6733 34.1205 28.22V26.8H31.9405V36H34.1205V30.4C34.1205 29.9867 34.2005 29.6267 34.3605 29.32C34.5339 29 34.7739 28.76 35.0805 28.6C35.3872 28.4267 35.7472 28.34 36.1605 28.34C36.7339 28.34 37.1605 28.5133 37.4405 28.86C37.7205 29.2067 37.8605 29.72 37.8605 30.4ZM42.759 23.14C42.759 23.5 42.8923 23.8133 43.159 24.08C43.439 24.3333 43.759 24.46 44.119 24.46C44.5057 24.46 44.8323 24.3333 45.099 24.08C45.3657 23.8133 45.499 23.5 45.499 23.14C45.499 22.7667 45.3657 22.4533 45.099 22.2C44.8323 21.9467 44.5057 21.82 44.119 21.82C43.759 21.82 43.439 21.9467 43.159 22.2C42.8923 22.4533 42.759 22.7667 42.759 23.14ZM43.059 26.8V36H45.199V26.8H43.059ZM47.411 26.8V28.7H52.691V26.8H47.411ZM52.471 22.72L53.471 21.04C53.3643 20.9067 53.2177 20.7733 53.031 20.64C52.8443 20.4933 52.6177 20.3733 52.351 20.28C52.0843 20.1867 51.771 20.14 51.411 20.14C50.7577 20.14 50.211 20.2667 49.771 20.52C49.331 20.7733 48.991 21.14 48.751 21.62C48.5243 22.0867 48.411 22.68 48.411 23.4V36H50.551V23.82C50.551 23.4333 50.591 23.12 50.671 22.88C50.751 22.64 50.8577 22.4667 50.991 22.36C51.1377 22.2533 51.311 22.2 51.511 22.2C51.671 22.2 51.8377 22.2333 52.011 22.3C52.1843 22.3667 52.3377 22.5067 52.471 22.72ZM62.4829 26.8H60.1629L57.2829 34.02L58.3029 34.08L55.3629 26.8H52.8829L56.6029 34.92L54.1829 40.4H56.4829L62.4829 26.8ZM69.0321 26.8V28.7H74.3121V26.8H69.0321ZM74.0921 22.72L75.0921 21.04C74.9854 20.9067 74.8388 20.7733 74.6521 20.64C74.4654 20.4933 74.2388 20.3733 73.9721 20.28C73.7054 20.1867 73.3921 20.14 73.0321 20.14C72.3788 20.14 71.8321 20.2667 71.3921 20.52C70.9521 20.7733 70.6121 21.14 70.3721 21.62C70.1454 22.0867 70.0321 22.68 70.0321 23.4V36H72.1721V23.82C72.1721 23.4333 72.2121 23.12 72.2921 22.88C72.3721 22.64 72.4788 22.4667 72.6121 22.36C72.7588 22.2533 72.9321 22.2 73.1321 22.2C73.2921 22.2 73.4588 22.2333 73.6321 22.3C73.8054 22.3667 73.9588 22.5067 74.0921 22.72ZM75.264 31.4C75.264 32.3333 75.4773 33.1667 75.904 33.9C76.344 34.62 76.9373 35.1867 77.684 35.6C78.444 36 79.2907 36.2 80.224 36.2C81.1707 36.2 82.0173 36 82.764 35.6C83.5107 35.1867 84.0973 34.62 84.524 33.9C84.964 33.1667 85.184 32.3333 85.184 31.4C85.184 30.4533 84.964 29.62 84.524 28.9C84.0973 28.18 83.5107 27.62 82.764 27.22C82.0173 26.8067 81.1707 26.6 80.224 26.6C79.2907 26.6 78.444 26.8067 77.684 27.22C76.9373 27.62 76.344 28.18 75.904 28.9C75.4773 29.62 75.264 30.4533 75.264 31.4ZM77.484 31.4C77.484 30.8267 77.604 30.32 77.844 29.88C78.084 29.44 78.4107 29.1 78.824 28.86C79.2373 28.62 79.704 28.5 80.224 28.5C80.744 28.5 81.2107 28.62 81.624 28.86C82.0373 29.1 82.364 29.44 82.604 29.88C82.844 30.32 82.964 30.8267 82.964 31.4C82.964 31.9733 82.844 32.48 82.604 32.92C82.364 33.3467 82.0373 33.6867 81.624 33.94C81.2107 34.18 80.744 34.3 80.224 34.3C79.704 34.3 79.2373 34.18 78.824 33.94C78.4107 33.6867 78.084 33.3467 77.844 32.92C77.604 32.48 77.484 31.9733 77.484 31.4ZM89.393 26.8H87.253V36H89.393V26.8ZM92.133 29.1L93.193 27.28C92.9797 27.0267 92.7264 26.8467 92.433 26.74C92.1397 26.6333 91.8264 26.58 91.493 26.58C91.0264 26.58 90.573 26.7533 90.133 27.1C89.7064 27.4333 89.353 27.8867 89.073 28.46C88.8064 29.02 88.673 29.6667 88.673 30.4L89.393 30.82C89.393 30.38 89.4397 30 89.533 29.68C89.6397 29.3467 89.8064 29.0867 90.033 28.9C90.2597 28.7133 90.553 28.62 90.913 28.62C91.1797 28.62 91.3997 28.66 91.573 28.74C91.7597 28.82 91.9464 28.94 92.133 29.1ZM101.771 31.48L100.011 32.72C100.318 33.36 100.731 33.9533 101.251 34.5C101.784 35.0467 102.398 35.4867 103.091 35.82C103.798 36.14 104.558 36.3 105.371 36.3C105.971 36.3 106.544 36.2 107.091 36C107.651 35.8133 108.151 35.5467 108.591 35.2C109.031 34.84 109.378 34.4 109.631 33.88C109.898 33.36 110.031 32.7733 110.031 32.12C110.031 31.5067 109.924 30.9733 109.711 30.52C109.498 30.0533 109.218 29.6533 108.871 29.32C108.538 28.9867 108.158 28.7067 107.731 28.48C107.318 28.2533 106.898 28.0667 106.471 27.92C105.724 27.6533 105.118 27.3933 104.651 27.14C104.184 26.8867 103.838 26.62 103.611 26.34C103.398 26.0467 103.291 25.72 103.291 25.36C103.291 24.96 103.444 24.6133 103.751 24.32C104.058 24.0133 104.538 23.86 105.191 23.86C105.658 23.86 106.064 23.9533 106.411 24.14C106.771 24.3133 107.084 24.5533 107.351 24.86C107.618 25.1533 107.844 25.4733 108.031 25.82L109.931 24.74C109.704 24.2467 109.378 23.7733 108.951 23.32C108.524 22.8667 108.004 22.4933 107.391 22.2C106.778 21.8933 106.058 21.74 105.231 21.74C104.391 21.74 103.638 21.9 102.971 22.22C102.318 22.54 101.798 22.9867 101.411 23.56C101.024 24.12 100.831 24.7733 100.831 25.52C100.831 26.1733 100.958 26.7333 101.211 27.2C101.464 27.6533 101.784 28.04 102.171 28.36C102.558 28.6667 102.964 28.9267 103.391 29.14C103.818 29.34 104.204 29.5 104.551 29.62C105.138 29.8333 105.658 30.0533 106.111 30.28C106.564 30.4933 106.911 30.76 107.151 31.08C107.404 31.3867 107.531 31.7933 107.531 32.3C107.531 32.86 107.331 33.3133 106.931 33.66C106.531 34.0067 106.011 34.18 105.371 34.18C104.851 34.18 104.371 34.0667 103.931 33.84C103.504 33.6133 103.111 33.3 102.751 32.9C102.404 32.5 102.078 32.0267 101.771 31.48ZM110.973 26.8V28.7H116.193V26.8H110.973ZM112.533 23.6V36H114.653V23.6H112.533ZM119.903 32.4V26.8H117.683V32.64C117.683 33.7333 117.956 34.6 118.503 35.24C119.063 35.88 119.856 36.2 120.883 36.2C121.523 36.2 122.069 36.0667 122.523 35.8C122.989 35.52 123.369 35.1133 123.663 34.58V36H125.823V26.8H123.663V32.4C123.663 32.8133 123.576 33.1733 123.403 33.48C123.229 33.7867 122.989 34.0267 122.683 34.2C122.376 34.3733 122.023 34.46 121.623 34.46C121.036 34.46 120.603 34.28 120.323 33.92C120.043 33.56 119.903 33.0533 119.903 32.4ZM135.501 20.4V36H137.681V20.4H135.501ZM127.881 31.4C127.881 32.4 128.088 33.26 128.501 33.98C128.915 34.7 129.461 35.2533 130.141 35.64C130.835 36.0133 131.575 36.2 132.361 36.2C133.135 36.2 133.808 36.0067 134.381 35.62C134.968 35.2333 135.428 34.68 135.761 33.96C136.108 33.24 136.281 32.3867 136.281 31.4C136.281 30.4 136.108 29.5467 135.761 28.84C135.428 28.12 134.968 27.5667 134.381 27.18C133.808 26.7933 133.135 26.6 132.361 26.6C131.575 26.6 130.835 26.7933 130.141 27.18C129.461 27.5533 128.915 28.1 128.501 28.82C128.088 29.5267 127.881 30.3867 127.881 31.4ZM130.121 31.4C130.121 30.7867 130.248 30.26 130.501 29.82C130.755 29.38 131.088 29.0467 131.501 28.82C131.928 28.5933 132.388 28.48 132.881 28.48C133.308 28.48 133.721 28.5933 134.121 28.82C134.521 29.0467 134.848 29.38 135.101 29.82C135.368 30.2467 135.501 30.7733 135.501 31.4C135.501 32.0267 135.368 32.56 135.101 33C134.848 33.4267 134.521 33.7533 134.121 33.98C133.721 34.2067 133.308 34.32 132.881 34.32C132.388 34.32 131.928 34.2067 131.501 33.98C131.088 33.7533 130.755 33.42 130.501 32.98C130.248 32.54 130.121 32.0133 130.121 31.4ZM144.359 36.2C145.425 36.2 146.339 35.9933 147.099 35.58C147.859 35.1533 148.485 34.5267 148.979 33.7L147.099 32.96C146.819 33.4533 146.459 33.82 146.019 34.06C145.579 34.3 145.059 34.42 144.459 34.42C143.899 34.42 143.425 34.3 143.039 34.06C142.652 33.82 142.352 33.4667 142.139 33C141.939 32.5333 141.845 31.9733 141.859 31.32C141.859 30.6533 141.959 30.0933 142.159 29.64C142.372 29.1867 142.665 28.84 143.039 28.6C143.425 28.36 143.892 28.24 144.439 28.24C144.892 28.24 145.285 28.34 145.619 28.54C145.965 28.74 146.232 29.02 146.419 29.38C146.619 29.74 146.719 30.1667 146.719 30.66C146.719 30.7533 146.692 30.8667 146.639 31C146.599 31.1333 146.559 31.24 146.519 31.32L147.179 30.4H140.959V31.9H149.039C149.039 31.8467 149.039 31.76 149.039 31.64C149.052 31.52 149.059 31.4067 149.059 31.3C149.059 30.3133 148.879 29.4733 148.519 28.78C148.159 28.0733 147.632 27.5333 146.939 27.16C146.259 26.7867 145.432 26.6 144.459 26.6C143.485 26.6 142.639 26.8 141.919 27.2C141.199 27.5867 140.639 28.14 140.239 28.86C139.852 29.58 139.659 30.4267 139.659 31.4C139.659 32.36 139.852 33.2 140.239 33.92C140.625 34.64 141.172 35.2 141.879 35.6C142.599 36 143.425 36.2 144.359 36.2ZM157.06 30.4V36H159.28V30.14C159.28 29.0467 159.006 28.1867 158.46 27.56C157.913 26.92 157.12 26.6 156.08 26.6C155.453 26.6 154.906 26.7333 154.44 27C153.986 27.2667 153.613 27.6733 153.32 28.22V26.8H151.14V36H153.32V30.4C153.32 29.9867 153.4 29.6267 153.56 29.32C153.733 29 153.973 28.76 154.28 28.6C154.586 28.4267 154.946 28.34 155.36 28.34C155.933 28.34 156.36 28.5133 156.64 28.86C156.92 29.2067 157.06 29.72 157.06 30.4ZM160.758 26.8V28.7H165.978V26.8H160.758ZM162.318 23.6V36H164.438V23.6H162.318ZM167.888 32.96L166.628 34.24C166.895 34.5867 167.228 34.92 167.628 35.24C168.028 35.5467 168.488 35.8 169.008 36C169.528 36.1867 170.108 36.28 170.748 36.28C171.748 36.28 172.541 36.02 173.128 35.5C173.728 34.9667 174.028 34.2667 174.028 33.4C174.028 32.84 173.901 32.3867 173.648 32.04C173.395 31.6933 173.055 31.4 172.628 31.16C172.201 30.92 171.728 30.7 171.208 30.5C170.835 30.3533 170.495 30.2133 170.188 30.08C169.895 29.9467 169.655 29.8 169.468 29.64C169.295 29.4667 169.208 29.2733 169.208 29.06C169.208 28.8067 169.308 28.6133 169.508 28.48C169.708 28.3467 169.968 28.28 170.288 28.28C170.741 28.28 171.181 28.3933 171.608 28.62C172.035 28.8467 172.395 29.14 172.688 29.5L173.888 28.22C173.635 27.9133 173.328 27.64 172.968 27.4C172.608 27.16 172.201 26.9667 171.748 26.82C171.308 26.6733 170.835 26.6 170.328 26.6C169.768 26.6 169.241 26.6933 168.748 26.88C168.268 27.0533 167.881 27.3267 167.588 27.7C167.308 28.0733 167.168 28.54 167.168 29.1C167.168 29.6467 167.295 30.1 167.548 30.46C167.815 30.82 168.148 31.1133 168.548 31.34C168.961 31.5533 169.375 31.74 169.788 31.9C170.201 32.0467 170.561 32.1933 170.868 32.34C171.175 32.4733 171.415 32.64 171.588 32.84C171.761 33.0267 171.848 33.2533 171.848 33.52C171.848 33.8267 171.735 34.0667 171.508 34.24C171.295 34.4133 170.995 34.5 170.608 34.5C170.301 34.5 169.995 34.44 169.688 34.32C169.381 34.2 169.081 34.0267 168.788 33.8C168.495 33.5733 168.195 33.2933 167.888 32.96Z" fill="black"/>
<rect x="0.5" y="0.5" width="191" height="50" rx="3.5" stroke="black"/>
</svg>
